<svg width="832" height="587" viewBox="0 0 832 587" fill="none" xmlns="http://www.w3.org/2000/svg">
<path d="M375.632 531.348C318.026 531.01 302.184 530.608 292.896 529.248C267.338 525.507 240.145 515.212 203.532 495.417C191.704 489.022 169.098 475.796 142.175 459.52C131.145 452.851 118.012 443.505 93.5244 424.898C68.8086 406.117 57.3762 399.335 44.2595 395.673C38.7349 394.13 35.4943 391.754 35.4943 389.247C35.4943 386.472 42.2503 355.359 45.5458 342.959C50.0275 326.094 52.924 320.44 60.9351 312.918C68.7491 305.58 79.6147 299.64 98.562 292.348C126.721 281.51 151.106 263.391 157.966 248.206C161.843 239.627 164.063 228.543 165.497 210.609C165.807 206.727 166.03 181.046 166.14 136.475C166.757 54.2466 165.21 58.6972 168.63 63.2786C164.203 61.0205 168.512 56.4597 180.587 65.1013C190.05 71.9923 199.389 76.0669 202.377 76.8311C208.935 78.508 215.713 74.7994 217.218 63.4437C218.207 58.9897 221.75 57.5346 231.627 57.5257C238.475 57.5199 240.639 57.776 248.47 59.5207C272.089 64.7832 290.429 81.9204 296.75 104.635C299.323 113.881 299.341 114.159 299.738 152.561C299.94 171.994 300.237 188.781 300.399 189.866C301.047 194.206 302.788 196.186 306.545 196.859C308.403 197.191 323.581 197.042 356.744 196.365C618.499 191.021 642.522 190.471 649.924 189.66C656.555 188.934 656.846 190.03 663.098 187.743C672.303 184.376 678.551 180.417 684.321 174.292C694.159 163.85 696.612 154.626 692.82 142.334C690.389 134.457 688.547 130.926 680.335 114.238C674.233 101.84 673.532 99.6665 672.816 96.1141C671.262 88.4054 673.049 81.1279 675.159 77.0339C681.143 68.7671 690.339 66.6461 696.181 71.5955C702.412 77.4313 702.246 75.9981 732.278 116.827C747.638 139.607 761.248 160.029 762.523 162.21C767.109 170.059 770.079 177.919 771.888 186.996C772.843 191.792 772.852 192.156 772.774 225.341C772.706 254.508 770.19 348.079 770.515 462.477C770.576 483.259 770.714 476.641 768.506 482.463C768.111 483.503 754.877 497.426 752.888 498.403C751.245 499.47 749.621 500.817 749.279 501.397C747.478 503.216 744.214 509.094 743.987 513.93C743.7 520.034 744.081 527.561 741.737 528.878C740.205 529.738 746.508 528.843 708.288 530.481C684.086 531.518 619.512 530.936 564.835 531.096C510.159 531.257 458.209 531.456 449.389 531.537C440.571 531.619 407.38 531.534 375.632 531.348ZM695.099 527.122C728.333 526.839 739.417 526.08 740.05 525.812C741.455 525.219 740.726 518.162 740.986 512.266C741.342 504.207 746.36 498.145 751.697 494.984C754.572 493.28 766.702 479.801 767.308 477.302C767.556 476.269 767.491 454.501 768.132 393.562C768.722 337.502 769.417 271.426 769.676 246.726C769.936 222.027 770.02 199.786 769.865 197.303C769.109 185.206 765.789 174.343 759.624 163.8C758.401 161.709 745.282 142.035 730.47 120.079C713.211 97.2587 694.382 71.1828 699.181 78.4615C704.599 84.262 686.855 62.5952 678.36 77.8811C674.406 87.2538 674.703 90.84 675.24 95.7468C675.387 97.0831 677.836 103.17 679.807 107.048C689.786 126.678 692.472 131.351 694.897 138.143C696.819 143.523 697.517 147.487 697.505 152.937C697.479 160.59 695.518 165.763 689.804 173.166C680.939 184.652 672.775 189.616 654.711 192.531C646.811 193.807 641.485 193.955 491.933 197.056C308.75 200.854 307.079 200.88 304.245 199.953C302.501 199.383 301.201 198.568 300.121 197.367C297.261 194.189 297.241 193.973 296.754 161.728C296.037 114.24 296.103 116.271 295.108 111.525C291.284 93.278 281.951 79.6957 267.027 70.6586C256.327 64.1793 244.306 61.1839 230.175 61.4755C221.239 61.66 220.85 61.8539 219.789 66.6498C219.129 75.3602 213.056 79.7599 209.921 80.3826C208.665 80.5701 207.147 81.5679 200.867 80.1245C195.987 79.0028 187.03 75.0748 174.957 65.7706C164.564 57.761 170.24 64.5539 169.622 69.0743C169.735 69.6278 169.37 99.0984 169.353 133.861C169.335 169.963 169.136 200.734 168.889 205.62C167.716 228.853 164.311 244.905 158.588 254.175C155.026 259.946 146.459 268.584 138.259 274.673C126.038 283.749 113.643 290.395 97.4155 296.574C79.0461 303.569 67.5275 310.431 59.8916 318.927C54.3668 325.074 52.4771 329.301 48.5309 344.334C44.8693 358.282 38.2969 388.568 38.753 389.388C39.2136 390.217 41.5116 391.175 46.989 392.825C61.4108 397.168 68.0923 401.453 112.121 434.594C120.927 441.222 130.562 448.051 136.829 452.106C141.044 454.833 169.186 471.689 185.043 480.983C231.412 508.163 267.775 522.941 296.102 526.115C303.279 526.919 310.122 527.219 330.025 527.602C355.172 528.086 623.478 527.733 695.099 527.122Z" fill="black" stroke="black" stroke-width="8.78375"/>
</svg>
