<?xml version="1.0" encoding="UTF-8" standalone="no"?>
<svg id="svg4136" xmlns:rdf="http://www.w3.org/1999/02/22-rdf-syntax-ns#" xmlns="http://www.w3.org/2000/svg" height="639.73" viewBox="0 0 669.711 639.72907" width="669.71" version="1.1" xmlns:cc="http://creativecommons.org/ns#" xmlns:dc="http://purl.org/dc/elements/1.1/">
<g id="g4141" stroke-linejoin="round" transform="translate(34.698 76.106)">
<path id="path4133" d="m585.21-34.373c-6.9913 3.0235-18.139 11.34-34.421 24.831-63.17 52.345-87.55 70.556-143.61 107.31-59.11 38.752-76.43 48.862-175.61 102.53-39.185 21.204-40.835 23.014-27.156 29.785 6.9188 3.4249 38.949 23.901 52.633 33.647 14.226 10.132 13.026 14.253-5.7842 19.888-15.884 4.7583-14.736 5.1148-26.754-8.2845-13.225-14.745-41.44-19.72-52.092-9.183-5.7868 5.7242-3.5048 8.0534 44.535 45.409 9.8006 7.6441 13.037 7.3028 16.634 18.3 7.2123 22.059 3.2096 33.258-19.789 55.379-12.125 11.662-41.747 13.25-56.299 3.0157-19.095-13.429-61.536-37.873-66.728-38.432-7.9358-0.85453-12.515 3.2827-73.262 66.198-12.568 13.017-14.42 17.105-10.303 22.751 2.1767 2.9854 46.112 16.39 139.97 42.706 19.254 5.3986 35.678 10.181 36.499 10.629 8.1555 4.4443 93.845 27.633 111.79 30.253 12.896 1.8823 16.322 1.2448 17.993-3.3525 1.98-5.4458 1.2511-6.5756-20.541-31.783-39.369-45.54-39.474-49.607-2.6209-100.45 26.409-36.436 27.322-38.397 26.809-57.424-0.38595-14.32 1.885-19.215 14.317-30.878 9.4376-8.8538 11.988-20.052 7.2602-31.876-7.3708-18.436 3.098-44.88 21.106-53.309 9.6943-5.7118 21.252-2.6805 32.055-2.2263 13.775 0.57999 25.576 0.83523 26.225 0.56461 4.7276-1.9672 15.372-20.865 20.692-36.735 7.1742-21.403 17.465-26.994 31.936-17.352 8.3885 5.5895 12.275 6.9134 15.945 5.4299 5.0255-2.0316 61.939-42.167 64.425-45.433 1.5364-2.0186 32.875-100.41 38.982-122.38 6.9191-24.901 6.8132-34.563-4.8389-29.524z" stroke="#006400" stroke-width="80" fill="#006400"/>
<g fill="none">
<path id="path4137" d="m585.21-34.373c-6.9913 3.0235-18.139 11.34-34.421 24.831-63.17 52.345-87.55 70.556-143.61 107.31-59.11 38.752-76.43 48.862-175.61 102.53-39.185 21.204-40.835 23.014-27.156 29.785 6.9188 3.4249 38.949 23.901 52.633 33.647 14.226 10.132 13.026 14.253-5.7842 19.888-15.884 4.7583-14.736 5.1148-26.754-8.2845-13.225-14.745-41.44-19.72-52.092-9.183-5.7868 5.7242-3.5048 8.0534 44.535 45.409 9.8006 7.6441 13.037 7.3028 16.634 18.3 7.2123 22.059 3.2096 33.258-19.789 55.379-12.125 11.662-41.747 13.25-56.299 3.0157-19.095-13.429-61.536-37.873-66.728-38.432-7.9358-0.85453-12.515 3.2827-73.262 66.198-12.568 13.017-14.42 17.105-10.303 22.751 2.1767 2.9854 46.112 16.39 139.97 42.706 19.254 5.3986 35.678 10.181 36.499 10.629 8.1555 4.4443 93.845 27.633 111.79 30.253 12.896 1.8823 16.322 1.2448 17.993-3.3525 1.98-5.4458 1.2511-6.5756-20.541-31.783-39.369-45.54-39.474-49.607-2.6209-100.45 26.409-36.436 27.322-38.397 26.809-57.424-0.38595-14.32 1.885-19.215 14.317-30.878 9.4376-8.8538 11.988-20.052 7.2602-31.876-7.3708-18.436 3.098-44.88 21.106-53.309 9.6943-5.7118 21.252-2.6805 32.055-2.2263 13.775 0.57999 25.576 0.83523 26.225 0.56461 4.7276-1.9672 15.372-20.865 20.692-36.735 7.1742-21.403 17.465-26.994 31.936-17.352 8.3885 5.5895 12.275 6.9134 15.945 5.4299 5.0255-2.0316 61.939-42.167 64.425-45.433 1.5364-2.0186 32.875-100.41 38.982-122.38 6.9191-24.901 6.8132-34.563-4.8389-29.524z" stroke="#f00" stroke-width="26"/>
<path id="path4135" d="m585.21-34.373c-6.9913 3.0235-18.139 11.34-34.421 24.831-63.17 52.345-87.55 70.556-143.61 107.31-59.11 38.752-76.43 48.862-175.61 102.53-39.185 21.204-40.835 23.014-27.156 29.785 6.9188 3.4249 38.949 23.901 52.633 33.647 14.226 10.132 13.026 14.253-5.7842 19.888-15.884 4.7583-14.736 5.1148-26.754-8.2845-13.225-14.745-41.44-19.72-52.092-9.183-5.7868 5.7242-3.5048 8.0534 44.535 45.409 9.8006 7.6441 13.037 7.3028 16.634 18.3 7.2123 22.059 3.2096 33.258-19.789 55.379-12.125 11.662-41.747 13.25-56.299 3.0157-19.095-13.429-61.536-37.873-66.728-38.432-7.9358-0.85453-12.515 3.2827-73.262 66.198-12.568 13.017-14.42 17.105-10.303 22.751 2.1767 2.9854 46.112 16.39 139.97 42.706 19.254 5.3986 35.678 10.181 36.499 10.629 8.1555 4.4443 93.845 27.633 111.79 30.253 12.896 1.8823 16.322 1.2448 17.993-3.3525 1.98-5.4458 1.2511-6.5756-20.541-31.783-39.369-45.54-39.474-49.607-2.6209-100.45 26.409-36.436 27.322-38.397 26.809-57.424-0.38595-14.32 1.885-19.215 14.317-30.878 9.4376-8.8538 11.988-20.052 7.2602-31.876-7.3708-18.436 3.098-44.88 21.106-53.309 9.6943-5.7118 21.252-2.6805 32.055-2.2263 13.775 0.57999 25.576 0.83523 26.225 0.56461 4.7276-1.9672 15.372-20.865 20.692-36.735 7.1742-21.403 17.465-26.994 31.936-17.352 8.3885 5.5895 12.275 6.9134 15.945 5.4299 5.0255-2.0316 61.939-42.167 64.425-45.433 1.5364-2.0186 32.875-100.41 38.982-122.38 6.9191-24.901 6.8132-34.563-4.8389-29.524z" stroke="#fff" stroke-dasharray="26, 26" stroke-width="26"/>
<path id="path4146" d="m585.21-34.373c-6.9913 3.0235-18.139 11.34-34.421 24.831-63.17 52.345-87.55 70.556-143.61 107.31-59.11 38.752-76.43 48.862-175.61 102.53-39.185 21.204-40.835 23.014-27.156 29.785 6.9188 3.4249 38.949 23.901 52.633 33.647 14.226 10.132 13.026 14.253-5.7842 19.888-15.884 4.7583-14.736 5.1148-26.754-8.2845-13.225-14.745-41.44-19.72-52.092-9.183-5.7868 5.7242-3.5048 8.0534 44.535 45.409 9.8006 7.6441 13.037 7.3028 16.634 18.3 7.2123 22.059 3.2096 33.258-19.789 55.379-12.125 11.662-41.747 13.25-56.299 3.0157-19.095-13.429-61.536-37.873-66.728-38.432-7.9358-0.85453-12.515 3.2827-73.262 66.198-12.568 13.017-14.42 17.105-10.303 22.751 2.1767 2.9854 46.112 16.39 139.97 42.706 19.254 5.3986 35.678 10.181 36.499 10.629 8.1555 4.4443 93.845 27.633 111.79 30.253 12.896 1.8823 16.322 1.2448 17.993-3.3525 1.98-5.4458 1.2511-6.5756-20.541-31.783-39.369-45.54-39.474-49.607-2.6209-100.45 26.409-36.436 27.322-38.397 26.809-57.424-0.38595-14.32 1.885-19.215 14.317-30.878 9.4376-8.8538 11.988-20.052 7.2602-31.876-7.3708-18.436 3.098-44.88 21.106-53.309 9.6943-5.7118 21.252-2.6805 32.055-2.2263 13.775 0.57999 25.576 0.83523 26.225 0.56461 4.7276-1.9672 15.372-20.865 20.692-36.735 7.1742-21.403 17.465-26.994 31.936-17.352 8.3885 5.5895 12.275 6.9134 15.945 5.4299 5.0255-2.0316 61.939-42.167 64.425-45.433 1.5364-2.0186 32.875-100.41 38.982-122.38 6.9191-24.901 6.8132-34.563-4.8389-29.524z" stroke="#141414" stroke-width="20"/>
<path id="path4139" d="m585.21-34.373c-6.9913 3.0235-18.139 11.34-34.421 24.831-63.17 52.345-87.55 70.556-143.61 107.31-59.11 38.752-76.43 48.862-175.61 102.53-39.185 21.204-40.835 23.014-27.156 29.785 6.9188 3.4249 38.949 23.901 52.633 33.647 14.226 10.132 13.026 14.253-5.7842 19.888-15.884 4.7583-14.736 5.1148-26.754-8.2845-13.225-14.745-41.44-19.72-52.092-9.183-5.7868 5.7242-3.5048 8.0534 44.535 45.409 9.8006 7.6441 13.037 7.3028 16.634 18.3 7.2123 22.059 3.2096 33.258-19.789 55.379-12.125 11.662-41.747 13.25-56.299 3.0157-19.095-13.429-61.536-37.873-66.728-38.432-7.9358-0.85453-12.515 3.2827-73.262 66.198-12.568 13.017-14.42 17.105-10.303 22.751 2.1767 2.9854 46.112 16.39 139.97 42.706 19.254 5.3986 35.678 10.181 36.499 10.629 8.1555 4.4443 93.845 27.633 111.79 30.253 12.896 1.8823 16.322 1.2448 17.993-3.3525 1.98-5.4458 1.2511-6.5756-20.541-31.783-39.369-45.54-39.474-49.607-2.6209-100.45 26.409-36.436 27.322-38.397 26.809-57.424-0.38595-14.32 1.885-19.215 14.317-30.878 9.4376-8.8538 11.988-20.052 7.2602-31.876-7.3708-18.436 3.098-44.88 21.106-53.309 9.6943-5.7118 21.252-2.6805 32.055-2.2263 13.775 0.57999 25.576 0.83523 26.225 0.56461 4.7276-1.9672 15.372-20.865 20.692-36.735 7.1742-21.403 17.465-26.994 31.936-17.352 8.3885 5.5895 12.275 6.9134 15.945 5.4299 5.0255-2.0316 61.939-42.167 64.425-45.433 1.5364-2.0186 32.875-100.41 38.982-122.38 6.9191-24.901 6.8132-34.563-4.8389-29.524z" stroke="#fff" stroke-dasharray="8, 2" stroke-width="2"/>
</g>
</g>
</svg>
