<svg width="986" height="483" viewBox="0 0 986 483" fill="none" xmlns="http://www.w3.org/2000/svg">
<path d="M493.317 145.745C493.317 145.745 572.852 199.234 585.79 207.687C598.602 216.14 606.34 225.76 605.959 232.172C605.579 238.439 600.124 246.893 594.162 251.119C588.327 255.346 578.053 261.176 573.993 267.588C569.934 273.855 566.636 278.957 566.256 294.989C565.875 311.021 565.875 323.7 562.957 333.32C560.547 341.19 551.922 359.408 522.366 371.213C493.698 382.581 484.691 379.958 460.971 379.229C439.026 378.501 417.334 364.509 417.334 364.509C417.334 364.509 304.312 290.762 293.403 283.62C282.367 276.479 264.735 272.69 250.527 276.479C235.813 280.268 232.007 283.766 223.762 290.762C216.912 296.592 206.891 305.482 197.378 306.794C187.864 308.106 175.94 307.377 166.553 302.567C158.054 298.195 146.765 284.786 141.31 278.082C135.856 271.378 124.186 262.487 107.568 262.05C93.9954 261.613 64.1858 265.402 47.0611 288.721C39.9575 298.341 34.7567 305.774 34.7567 324.283C34.7567 337.983 45.6658 356.347 56.1943 356.493C77.6318 356.93 72.431 353.287 88.7945 352.704C108.964 351.975 117.462 354.453 128.752 359.408C140.042 364.363 171.247 373.108 187.864 373.254C209.936 373.545 342.747 370.339 351.5 370.339C373.318 370.193 391.077 375.44 404.269 382.144C417.461 388.849 444.607 403.569 455.643 407.358C466.679 411.148 486.467 420.038 516.531 419.601C546.594 419.164 600.505 415.374 630.949 402.694C661.393 390.014 757.164 352.558 784.309 339.004C811.455 325.449 866.888 294.114 878.178 285.515C885.282 280.123 889.594 277.062 889.975 269.483C890.356 261.904 879.7 253.451 874.246 250.536C868.791 247.621 864.859 245.727 858.136 239.168C850.779 232.027 847.354 223.865 847.354 214.974C847.354 198.505 856.867 186.408 868.411 185.971C875.768 185.68 898.22 186.408 904.436 185.097C910.651 183.785 919.785 179.995 924.605 171.251C929.425 162.506 935.007 149.535 936.782 146.328C939.827 140.936 938.939 137.875 933.484 134.96C928.03 132.045 924.985 127.381 927.649 118.491C930.313 109.6 935.514 85.261 936.529 78.8482C937.417 72.8727 936.148 65.0024 928.41 65.0024C918.516 65.0024 679.025 54.5088 649.342 53.6343C619.152 53.0513 208.033 34.6874 159.703 31.481C144.481 30.4608 140.93 40.9544 141.944 46.347C143.847 56.4034 165.412 72.8727 178.604 81.7631C191.796 90.6536 196.616 92.694 212.346 93.5685C228.075 94.443 237.335 89.3419 246.088 83.0748C254.84 76.8078 272.853 65.0024 294.164 59.4641C309.259 55.529 337.039 56.2577 347.694 58.1524C362.789 60.9216 377.757 68.2088 391.33 77.0993C404.903 85.9898 493.317 145.745 493.317 145.745Z" stroke="black" stroke-width="8.24" stroke-miterlimit="10"/>
</svg>
