<?xml version="1.0" encoding="utf-8"?>
<!-- Generator: Adobe Illustrator 26.5.0, SVG Export Plug-In . SVG Version: 6.00 Build 0)  -->
<svg version="1.1" xmlns="http://www.w3.org/2000/svg" xmlns:xlink="http://www.w3.org/1999/xlink" x="0px" y="0px"
	 viewBox="0 0 779.9 453.8" style="enable-background:new 0 0 779.9 453.8;" xml:space="preserve">
<style type="text/css">
	.st0{fill:none;stroke:#646464;stroke-width:14.1732;stroke-linecap:round;stroke-linejoin:round;stroke-miterlimit:10;}
	.st1{fill:none;stroke:#FFD449;stroke-width:2.8346;stroke-miterlimit:10;}
	.st2{fill:none;stroke:#54C6EB;stroke-width:2.8346;stroke-miterlimit:10;}
	.st3{fill:none;stroke:#F4442E;stroke-width:2.8346;stroke-miterlimit:10;}
	.st4{fill:none;stroke:#FFFFFF;stroke-width:2.126;}
	.st5{fill:#646464;}
	.st6{fill:#FFFFFF;}
	.st7{fill:none;stroke:#646464;stroke-width:2.8346;stroke-miterlimit:10;}
	.st8{fill:#FF3380;}
	.st9{fill:none;stroke:#FF3380;stroke-width:1.9843;stroke-miterlimit:10;}
	.st10{fill:#09BC8A;}
	.st11{fill:none;stroke:#09BC8A;stroke-width:2.8346;stroke-miterlimit:10;}
	.st12{fill:none;stroke:#09BC8A;stroke-width:1.9843;stroke-miterlimit:10;}
	.st13{clip-path:url(#SVGID_00000143601421425968450250000013188824974950788758_);}
	.st14{fill:#F4442E;}
	.st15{fill:#54C6EB;}
	.st16{fill:#FFD449;}
	.st17{fill:none;stroke:#646464;stroke-width:0.7087;stroke-miterlimit:10;}
	.st18{fill:none;stroke:#F4442E;stroke-width:5.6693;stroke-miterlimit:10;}
	.st19{fill:none;stroke:#54C6EB;stroke-width:5.6693;stroke-miterlimit:10;}
	.st20{fill:none;stroke:#FFD449;stroke-width:5.6693;stroke-miterlimit:10;}
</style>
<g id="コース">
	<path class="st0" d="M576.1,84.5c-21.8,0.8-83,1.9-97.6,2.4C464,87.4,447,83.1,431,80.6c-16-2.4-48.5-10.2-73.8-10.2
		s-83.5,7.8-97.1,10.2c-13.6,2.4-35,9.7-41.7,12.1c-6.8,2.4-6.3,7.3-7.8,14.6c-1.5,7.3-2.9,14.1-14.1,19.4
		c-11.2,5.3-21.8,9.7-26.7,13.1c-4.9,3.4-10.7,8.7-15,21.8c-4.4,13.1-47.1,131.1-50,137.9c-2.9,6.8-0.5,16,1.5,20.4
		c1.9,4.4,9.2,17.5-0.5,25.7s-58.5,54.8-65.5,59.7c-8.5,5.9-6.2,26.3,8.3,24.8c12.2-1.3,94.7-15.5,104.4-17
		c9.7-1.5,31.1-5.3,52.4-2.9s39.3,5.8,48.5,7.3c9.2,1.5,21.4,3.4,28.6-11.2s9.7-19.9,12.1-29.1c2.4-9.2,6.3-22.8,1.9-41.3
		c-4.4-18.4-14.1-52.9-15.5-59.2c-1.5-6.3-1-14.6,2.9-19.9c3.9-5.3,12.9-19.4,14.5-22c1.5-2.6,4.8-8.1,14-3.5
		c3.1,1.5,8.3,5.5,13.6,5.7s163.5-6.4,166.4-6.4c2.9,0,6.6-1.1,8.8,4.4c2.2,5.5,4.4,7.9,9,6.1c4.6-1.8,38.6-17.8,49.4-22.4
		c10.8-4.6,32.3-16,45.9-28.8c13.6-12.7,62.1-64.1,65.9-67.8c3.7-3.7,14.3-11.6,27.7-17.8c13.4-6.1,34.9-15.8,38.6-17.8
		c3.7-2,9.9-5.7,6.4-14s-10.8-24.4-14-29.6c-3.3-5.3-9.9-11.4-22.6-5.7s-78.1,33.6-86.9,37.5c-8.8,4-20.4,7.2-26.3,8.1
		C588.1,83.8,581,84.3,576.1,84.5z"/>
</g>
<g id="セクター">
	<path class="st1" d="M422,233.5c36.2-1.5,69.2-2.8,70.4-2.8c2.9,0,6.6-1.1,8.8,4.4c2.2,5.5,4.4,7.9,9,6.1
		c4.6-1.8,38.6-17.8,49.4-22.4c10.8-4.6,32.3-16,45.9-28.8c13.6-12.7,62.1-64.1,65.9-67.8c3.7-3.7,14.3-11.6,27.7-17.8
		c13.4-6.1,34.9-15.8,38.6-17.8c3.7-2,9.9-5.7,6.4-14s-10.8-24.4-14-29.6c-3.3-5.3-9.9-11.4-22.6-5.7s-78.1,33.6-86.9,37.5
		c-8.8,4-20.4,7.2-26.3,8.1c-5.9,0.9-13,1.4-17.9,1.6c-2.8,0.1-6.4,0.2-10.4,0.3"/>
	<path class="st2" d="M71,377.7c-14,13-27.4,25.3-30.9,27.7c-8.5,5.9-6.2,26.3,8.3,24.8c12.2-1.3,94.7-15.5,104.4-17
		c9.7-1.5,31.1-5.3,52.4-2.9s39.3,5.8,48.5,7.3c9.2,1.5,21.4,3.4,28.6-11.2s9.7-19.9,12.1-29.1c2.4-9.2,6.3-22.8,1.9-41.3
		c-4.4-18.4-14.1-52.9-15.5-59.2c-1.5-6.3-1-14.6,2.9-19.9c3.9-5.3,12.9-19.4,14.5-22c1.5-2.6,4.8-8.1,14-3.5
		c3.1,1.5,8.3,5.5,13.6,5.7c2.9,0.1,51.9-1.8,95.9-3.6"/>
	<path class="st3" d="M565.8,84.9c-26.6,0.8-74.6,1.7-87.2,2.1C464,87.4,447,83.1,431,80.6c-16-2.4-48.5-10.2-73.8-10.2
		s-83.5,7.8-97.1,10.2c-13.6,2.4-35,9.7-41.7,12.1c-6.8,2.4-6.3,7.3-7.8,14.6c-1.5,7.3-2.9,14.1-14.1,19.4
		c-11.2,5.3-21.8,9.7-26.7,13.1c-4.9,3.4-10.7,8.7-15,21.8c-4.4,13.1-47.1,131.1-50,137.9c-2.9,6.8-0.5,16,1.5,20.4
		c1.9,4.4,9.2,17.5-0.5,25.7c-5,4.2-20.1,18.4-34.7,32"/>
</g>
<g id="コーナー番号">
	<g>
		<g>
			<circle class="st4" cx="467" cy="106.1" r="8.5"/>
			<circle class="st5" cx="467" cy="106.1" r="8.5"/>
		</g>
		<g>
			<path class="st6" d="M465.3,110v-1.6h1V104h-0.9v-1.6h2.6v6.1h0.9v1.6H465.3z"/>
		</g>
	</g>
	<g>
		<g>
			<circle class="st4" cx="195" cy="84.3" r="8.5"/>
			<circle class="st5" cx="195" cy="84.3" r="8.5"/>
		</g>
		<g>
			<path class="st6" d="M192.9,88.2v-2.6c0-0.6,0.1-1,0.6-1.2l1.9-0.8v-1.6l-0.1-0.1h-0.5l-0.1,0.1v1.1h-1.7v-1.3
				c0-0.8,0.4-1.1,0.8-1.3h2.5c0.5,0.2,0.8,0.5,0.8,1.3v1.9c0,0.6-0.1,0.9-0.6,1.2l-1.9,0.8v0.9h2.4v1.6H192.9z"/>
		</g>
	</g>
	<g>
		<g>
			<circle class="st4" cx="219.5" cy="136.2" r="8.5"/>
			<circle class="st5" cx="219.5" cy="136.2" r="8.5"/>
		</g>
		<g>
			<path class="st6" d="M218.2,140c-0.5-0.2-0.8-0.5-0.8-1.3v-1h1.7v0.8l0.1,0.1h0.5l0.1-0.1v-1.6l-0.1-0.1h-1v-1.3h1l0.1-0.1v-1.5
				l-0.1-0.1h-0.5l-0.1,0.1v0.8h-1.7v-1c0-0.8,0.4-1.1,0.8-1.3h2.5c0.5,0.2,0.8,0.5,0.8,1.3v1.3c0,0.6-0.2,0.9-0.6,1.2
				c0.4,0.3,0.6,0.6,0.6,1.2v1.4c0,0.8-0.4,1.1-0.8,1.3H218.2z"/>
		</g>
	</g>
	<g>
		<g>
			<circle class="st4" cx="144.6" cy="135" r="8.5"/>
			<circle class="st5" cx="144.6" cy="135" r="8.5"/>
		</g>
		<g>
			<path class="st6" d="M146.2,137.3v1.5h-1.7v-1.5h-2.2v-1.5l1.6-4.7h1.7l-1.6,4.6h0.5v-0.4l0.4-1h1.3v1.4h0.5v1.6H146.2z"/>
		</g>
	</g>
	<g>
		<g>
			<circle class="st4" cx="84.5" cy="305.5" r="8.5"/>
			<circle class="st5" cx="84.5" cy="305.5" r="8.5"/>
		</g>
		<g>
			<path class="st6" d="M83.2,309.3c-0.5-0.2-0.8-0.5-0.8-1.3v-1H84v0.8l0.1,0.1h0.6l0.1-0.1v-2.1l-0.1-0.1h-0.6l-0.1,0.1v0.4h-1.6
				v-4.5h4v1.5H84v1.6l0.4-0.4h1.3c0.5,0.2,0.8,0.5,0.8,1.3v2.4c0,0.8-0.4,1.1-0.8,1.3H83.2z"/>
		</g>
	</g>
	<g>
		<g>
			<circle class="st4" cx="129.9" cy="346" r="8.5"/>
			<circle class="st5" cx="129.9" cy="346" r="8.5"/>
		</g>
		<g>
			<path class="st6" d="M131.2,349.9h-2.5c-0.5-0.2-0.8-0.5-0.8-1.3v-5.1c0-0.8,0.4-1.1,0.8-1.3h2.5c0.5,0.2,0.8,0.5,0.8,1.3v1h-1.7
				v-0.8l-0.1-0.1h-0.5l-0.1,0.1v1.8l0.3-0.3h1.3c0.5,0.2,0.8,0.5,0.8,1.3v2.2C132,349.4,131.6,349.7,131.2,349.9z M130.2,348.5
				l0.1-0.1v-1.8l-0.1-0.1h-0.5l-0.1,0.1v1.8l0.1,0.1H130.2z"/>
		</g>
	</g>
	<g>
		<g>
			<circle class="st4" cx="16.7" cy="432.1" r="8.5"/>
			<circle class="st5" cx="16.7" cy="432.1" r="8.5"/>
		</g>
		<g>
			<path class="st6" d="M14.8,436l2.1-6.2h-2.4v-1.5h4.1v1.2l-2.1,6.5H14.8z"/>
		</g>
	</g>
	<g>
		<g>
			<circle class="st4" cx="185.5" cy="389.2" r="8.5"/>
			<circle class="st5" cx="185.5" cy="389.2" r="8.5"/>
		</g>
		<g>
			<path class="st6" d="M184.2,393c-0.5-0.2-0.8-0.5-0.8-1.3v-1.4c0-0.6,0.2-0.9,0.6-1.2c-0.4-0.3-0.6-0.6-0.6-1.2v-1.3
				c0-0.8,0.4-1.1,0.8-1.3h2.5c0.5,0.2,0.8,0.5,0.8,1.3v1.3c0,0.6-0.2,0.9-0.6,1.2c0.4,0.3,0.6,0.6,0.6,1.2v1.4
				c0,0.8-0.4,1.1-0.8,1.3H184.2z M185.1,388.4l0.1,0.1h0.5l0.1-0.1v-1.5l-0.1-0.1h-0.5l-0.1,0.1V388.4z M185.8,391.6v-1.6l-0.1-0.1
				h-0.5l-0.1,0.1v1.6l0.1,0.1h0.5L185.8,391.6z"/>
		</g>
	</g>
	<g>
		<g>
			<circle class="st4" cx="282" cy="437.2" r="8.5"/>
			<circle class="st5" cx="282" cy="437.2" r="8.5"/>
		</g>
		<g>
			<path class="st6" d="M280.8,441c-0.5-0.2-0.8-0.5-0.8-1.3v-1h1.7v0.8l0.1,0.1h0.5l0.1-0.1v-1.8l-0.3,0.3h-1.3
				c-0.5-0.2-0.8-0.5-0.8-1.3v-2.2c0-0.8,0.4-1.1,0.8-1.3h2.5c0.5,0.2,0.8,0.5,0.8,1.3v5.1c0,0.8-0.4,1.1-0.8,1.3H280.8z
				 M282.4,436.7v-1.8l-0.1-0.1h-0.5l-0.1,0.1v1.8l0.1,0.1h0.5L282.4,436.7z"/>
		</g>
	</g>
	<g>
		<g>
			<circle class="st4" cx="319.5" cy="352.3" r="8.5"/>
			<circle class="st5" cx="319.5" cy="352.3" r="8.5"/>
		</g>
		<g>
			<path class="st6" d="M315.5,356.2v-1.6h1v-4.5h-0.9v-1.6h2.6v6.1h0.9v1.6H315.5z"/>
			<path class="st6" d="M323.1,356.2h-2.5c-0.5-0.2-0.8-0.5-0.8-1.3v-5.1c0-0.8,0.4-1.1,0.8-1.3h2.5c0.5,0.2,0.8,0.5,0.8,1.3v5.1
				C323.9,355.7,323.6,356,323.1,356.2z M322.2,350l-0.1-0.1h-0.5l-0.1,0.1v4.7l0.1,0.1h0.5l0.1-0.1V350z"/>
		</g>
	</g>
	<g>
		<g>
			<circle class="st4" cx="257.8" cy="266.9" r="8.5"/>
			<circle class="st5" cx="257.8" cy="266.9" r="8.5"/>
		</g>
		<g>
			<path class="st6" d="M253.7,270.8v-1.6h1v-4.5h-0.9v-1.6h2.6v6.1h0.9v1.6H253.7z"/>
			<path class="st6" d="M258.4,270.8v-1.6h1v-4.5h-0.9v-1.6h2.6v6.1h0.9v1.6H258.4z"/>
		</g>
	</g>
	<g>
		<g>
			<circle class="st4" cx="298.1" cy="210.4" r="8.5"/>
			<circle class="st5" cx="298.1" cy="210.4" r="8.5"/>
		</g>
		<g>
			<path class="st6" d="M294,214.2v-1.6h1v-4.5h-0.9v-1.6h2.6v6.1h0.9v1.6H294z"/>
			<path class="st6" d="M298.3,214.2v-2.6c0-0.6,0.1-1,0.6-1.2l1.9-0.8v-1.6l-0.1-0.1h-0.5l-0.1,0.1v1.1h-1.7v-1.3
				c0-0.8,0.4-1.1,0.8-1.3h2.5c0.5,0.2,0.8,0.5,0.8,1.3v1.9c0,0.6-0.1,0.9-0.6,1.2l-1.9,0.8v0.9h2.4v1.6H298.3z"/>
		</g>
	</g>
	<g>
		<g>
			<circle class="st4" cx="324.8" cy="256.6" r="8.5"/>
			<circle class="st5" cx="324.8" cy="256.6" r="8.5"/>
		</g>
		<g>
			<path class="st6" d="M320.8,260.5v-1.6h1v-4.5h-0.9v-1.6h2.6v6.1h0.9v1.6H320.8z"/>
			<path class="st6" d="M325.9,260.5c-0.5-0.2-0.8-0.5-0.8-1.3v-1h1.7v0.8l0.1,0.1h0.5l0.1-0.1v-1.6l-0.1-0.1h-1V256h1l0.1-0.1v-1.5
				l-0.1-0.1h-0.5l-0.1,0.1v0.8h-1.7v-1c0-0.8,0.4-1.1,0.8-1.3h2.5c0.5,0.2,0.8,0.5,0.8,1.3v1.3c0,0.6-0.2,0.9-0.6,1.2
				c0.4,0.3,0.6,0.6,0.6,1.2v1.4c0,0.8-0.4,1.1-0.8,1.3H325.9z"/>
		</g>
	</g>
	<g>
		<g>
			<circle class="st4" cx="497.3" cy="209.4" r="8.5"/>
			<circle class="st5" cx="497.3" cy="209.4" r="8.5"/>
		</g>
		<g>
			<path class="st6" d="M493.3,213.3v-1.6h1v-4.5h-0.9v-1.6h2.6v6.1h0.9v1.6H493.3z"/>
			<path class="st6" d="M501.3,211.8v1.5h-1.7v-1.5h-2.2v-1.5l1.6-4.7h1.7l-1.6,4.6h0.5v-0.4l0.4-1h1.3v1.4h0.5v1.6H501.3z"/>
		</g>
	</g>
	<g>
		<g>
			<circle class="st4" cx="505.9" cy="263" r="8.5"/>
			<circle class="st5" cx="505.9" cy="263" r="8.5"/>
		</g>
		<g>
			<path class="st6" d="M501.9,266.9v-1.6h1v-4.5H502v-1.6h2.6v6.1h0.9v1.6H501.9z"/>
			<path class="st6" d="M507,266.9c-0.5-0.2-0.8-0.5-0.8-1.3v-1h1.6v0.8l0.1,0.1h0.6l0.1-0.1v-2.1l-0.1-0.1h-0.6l-0.1,0.1v0.4h-1.6
				v-4.5h4v1.5h-2.4v1.6l0.4-0.4h1.3c0.5,0.2,0.8,0.5,0.8,1.3v2.4c0,0.8-0.4,1.1-0.8,1.3H507z"/>
		</g>
	</g>
	<g>
		<g>
			<circle class="st4" cx="668.6" cy="98.5" r="8.5"/>
			<circle class="st5" cx="668.6" cy="98.5" r="8.5"/>
		</g>
		<g>
			<path class="st6" d="M664.6,102.4v-1.6h1v-4.5h-0.9v-1.6h2.6v6.1h0.9v1.6H664.6z"/>
			<path class="st6" d="M672.2,102.4h-2.5c-0.5-0.2-0.8-0.5-0.8-1.3V96c0-0.8,0.4-1.1,0.8-1.3h2.5c0.5,0.2,0.8,0.5,0.8,1.3v1h-1.7
				v-0.8l-0.1-0.1h-0.5l-0.1,0.1V98l0.3-0.3h1.3c0.5,0.2,0.8,0.5,0.8,1.3v2.2C673,101.9,672.7,102.2,672.2,102.4z M671.2,101
				l0.1-0.1V99l-0.1-0.1h-0.5l-0.1,0.1v1.8l0.1,0.1H671.2z"/>
		</g>
	</g>
	<g>
		<g>
			<circle class="st4" cx="763.2" cy="84.8" r="8.5"/>
			<circle class="st5" cx="763.2" cy="84.8" r="8.5"/>
		</g>
		<g>
			<path class="st6" d="M759.2,88.7v-1.6h1v-4.5h-0.9V81h2.6v6.1h0.9v1.6H759.2z"/>
			<path class="st6" d="M763.7,88.7l2.1-6.2h-2.4V81h4.1v1.2l-2.1,6.5H763.7z"/>
		</g>
	</g>
	<g>
		<g>
			<circle class="st4" cx="723.4" cy="16.7" r="8.5"/>
			<circle class="st5" cx="723.4" cy="16.7" r="8.5"/>
		</g>
		<g>
			<path class="st6" d="M719.4,20.5v-1.6h1v-4.5h-0.9v-1.6h2.6v6.1h0.9v1.6H719.4z"/>
			<path class="st6" d="M724.5,20.5c-0.5-0.2-0.8-0.5-0.8-1.3v-1.4c0-0.6,0.2-0.9,0.6-1.2c-0.4-0.3-0.6-0.6-0.6-1.2v-1.3
				c0-0.8,0.4-1.1,0.8-1.3h2.5c0.5,0.2,0.8,0.5,0.8,1.3v1.3c0,0.6-0.2,0.9-0.6,1.2c0.4,0.3,0.6,0.6,0.6,1.2v1.4
				c0,0.8-0.4,1.1-0.8,1.3H724.5z M725.4,15.9l0.1,0.1h0.5l0.1-0.1v-1.5l-0.1-0.1h-0.5l-0.1,0.1V15.9z M726.1,19v-1.6l-0.1-0.1h-0.5
				l-0.1,0.1V19l0.1,0.1h0.5L726.1,19z"/>
		</g>
	</g>
	<g>
		<g>
			<circle class="st4" cx="599.3" cy="101.2" r="8.5"/>
			<circle class="st5" cx="599.3" cy="101.2" r="8.5"/>
		</g>
		<g>
			<path class="st6" d="M595.3,105.1v-1.6h1v-4.5h-0.9v-1.6h2.6v6.1h0.9v1.6H595.3z"/>
			<path class="st6" d="M600.4,105.1c-0.5-0.2-0.8-0.5-0.8-1.3v-1h1.7v0.8l0.1,0.1h0.5l0.1-0.1v-1.8l-0.3,0.3h-1.3
				c-0.5-0.2-0.8-0.5-0.8-1.3v-2.2c0-0.8,0.4-1.1,0.8-1.3h2.5c0.5,0.2,0.8,0.5,0.8,1.3v5.1c0,0.8-0.4,1.1-0.8,1.3H600.4z
				 M602.1,100.8v-1.8l-0.1-0.1h-0.5l-0.1,0.1v1.8l0.1,0.1h0.5L602.1,100.8z"/>
		</g>
	</g>
</g>
<g id="SPEED_x5F_TRAP">
	<g>
		<circle class="st7" cx="703.2" cy="102.4" r="4.7"/>
		<circle class="st8" cx="703.2" cy="102.4" r="4.7"/>
	</g>
	<g>
		<g>
			<path class="st8" d="M691.6,216.8c0,0.8-0.6,1.4-1.4,1.4H648c-0.8,0-1.4-0.6-1.4-1.4v-34.7c0-0.8,0.6-1.4,1.4-1.4h42.2
				c0.8,0,1.4,0.6,1.4,1.4V216.8z"/>
		</g>
		<g>
			<path class="st6" d="M658.7,193.7v2.7c0,1.3-0.6,1.7-1.3,2h-3.9c-0.7-0.3-1.3-0.7-1.3-2V194h2.7v2l0.2,0.2h0.8l0.2-0.2v-1.8
				l-0.2-0.2l-2.7-1.2c-0.8-0.4-0.9-0.9-0.9-1.8v-2.5c0-1.3,0.6-1.7,1.3-2h3.9c0.7,0.3,1.3,0.7,1.3,2v2.2h-2.7v-1.9l-0.2-0.2h-0.8
				l-0.2,0.2v1.7l0.2,0.3l2.7,1.1C658.6,192.2,658.7,192.8,658.7,193.7z"/>
			<path class="st6" d="M662.2,194.2v4.2h-2.7v-12h5.2c0.7,0.3,1.3,0.7,1.3,2v3.8c0,1.3-0.6,1.7-1.3,2H662.2z M662.2,188.6v3.5h1
				l0.2-0.2v-3.2l-0.2-0.2H662.2z"/>
			<path class="st6" d="M666.6,186.4h5.5v2.5h-2.8v2.2h2.7v2.5h-2.7v2.3h2.9v2.5h-5.6V186.4z"/>
			<path class="st6" d="M673.1,186.4h5.5v2.5h-2.8v2.2h2.7v2.5h-2.7v2.3h2.9v2.5h-5.6V186.4z"/>
			<path class="st6" d="M685.9,196.4c0,1.3-0.6,1.7-1.3,2h-5.2v-12h5.2c0.7,0.3,1.3,0.7,1.3,2V196.4z M682.1,188.6v7.7h1l0.2-0.2
				v-7.3l-0.2-0.2H682.1z"/>
			<path class="st6" d="M659.7,203.1v9.5H657v-9.5h-1.9v-2.5h6.5v2.5H659.7z"/>
			<path class="st6" d="M662.1,212.6v-12h5.2c0.7,0.3,1.3,0.7,1.3,2v2.5c0,1.1-0.5,1.6-1.1,1.9l1.4,3.8v1.7h-2.3l-1.5-4.7h-0.3v4.7
				H662.1z M664.7,202.8v3h1l0.2-0.2v-2.7l-0.2-0.2H664.7z"/>
			<path class="st6" d="M673.2,210.2h-1.3l-0.2,2.3h-2.5v-2l1.5-10h3.6l1.5,10v2h-2.5L673.2,210.2z M672.1,207.7h0.8l-0.3-3.8h-0.2
				L672.1,207.7z"/>
			<path class="st6" d="M679.2,208.4v4.2h-2.7v-12h5.2c0.7,0.3,1.3,0.7,1.3,2v3.8c0,1.3-0.6,1.7-1.3,2H679.2z M679.2,202.8v3.5h1
				l0.2-0.2v-3.2l-0.2-0.2H679.2z"/>
		</g>
	</g>
	<g>
		<path class="st9" d="M691.6,200.6c0,0,2.6,0,5.8,0s5.8-3.8,5.8-8.5v-89.7"/>
	</g>
</g>
<g id="DRS">
	<g>
		<g>
			<path class="st10" d="M654.5,282.9c0,0.8-0.6,1.4-1.4,1.4h-67.6c-0.8,0-1.4-0.6-1.4-1.4v-48.8c0-0.8,0.6-1.4,1.4-1.4h67.6
				c0.8,0,1.4,0.6,1.4,1.4V282.9z"/>
		</g>
		<g>
			<path class="st6" d="M615.3,248.3c0,1.3-0.6,1.7-1.3,2h-5.2v-12h5.2c0.7,0.3,1.3,0.7,1.3,2V248.3z M611.5,240.5v7.7h1l0.2-0.2
				v-7.3l-0.2-0.2H611.5z"/>
			<path class="st6" d="M616.2,250.3v-12h5.2c0.7,0.3,1.3,0.7,1.3,2v2.5c0,1.1-0.5,1.6-1.1,1.9l1.4,3.8v1.7h-2.3l-1.5-4.7h-0.3v4.7
				H616.2z M618.8,240.5v3h1l0.2-0.2v-2.7l-0.2-0.2H618.8z"/>
			<path class="st6" d="M629.8,245.6v2.7c0,1.3-0.6,1.7-1.3,2h-3.9c-0.7-0.3-1.3-0.7-1.3-2v-2.4h2.7v2l0.2,0.2h0.8l0.2-0.2v-1.8
				l-0.2-0.2l-2.7-1.2c-0.8-0.4-0.9-0.9-0.9-1.8v-2.5c0-1.3,0.6-1.7,1.3-2h3.9c0.7,0.3,1.3,0.7,1.3,2v2.2h-2.7v-1.9l-0.2-0.2h-0.8
				l-0.2,0.2v1.7l0.2,0.3l2.7,1.1C629.7,244.1,629.8,244.7,629.8,245.6z"/>
			<path class="st6" d="M596.3,262.5c0,1.3-0.6,1.7-1.3,2h-5.2v-12h5.2c0.7,0.3,1.3,0.7,1.3,2V262.5z M592.4,254.7v7.7h1l0.2-0.2
				v-7.3l-0.2-0.2H592.4z"/>
			<path class="st6" d="M597.1,252.5h5.5v2.5h-2.8v2.2h2.7v2.5h-2.7v2.3h2.9v2.5h-5.6V252.5z"/>
			<path class="st6" d="M607.7,255v9.5h-2.7V255h-1.9v-2.5h6.5v2.5H607.7z"/>
			<path class="st6" d="M610.1,252.5h5.5v2.5h-2.8v2.2h2.7v2.5h-2.7v2.3h2.9v2.5h-5.6V252.5z"/>
			<path class="st6" d="M623,262.5c0,1.3-0.6,1.7-1.3,2h-3.9c-0.7-0.3-1.3-0.7-1.3-2v-8c0-1.3,0.6-1.7,1.3-2h3.9
				c0.7,0.3,1.3,0.7,1.3,2v2.9h-2.7v-2.6l-0.2-0.2h-0.8l-0.2,0.2v7.3l0.2,0.2h0.8l0.2-0.2v-2.5h2.7V262.5z"/>
			<path class="st6" d="M628.1,255v9.5h-2.7V255h-1.9v-2.5h6.5v2.5H628.1z"/>
			<path class="st6" d="M630.5,264.5V262h0.5v-7h-0.5v-2.5h3.7v2.5h-0.5v7h0.5v2.5H630.5z"/>
			<path class="st6" d="M641.5,262.5c0,1.3-0.6,1.7-1.3,2h-3.9c-0.7-0.3-1.3-0.7-1.3-2v-8c0-1.3,0.6-1.7,1.3-2h3.9
				c0.7,0.3,1.3,0.7,1.3,2V262.5z M638.8,254.8l-0.2-0.2h-0.8l-0.2,0.2v7.3l0.2,0.2h0.8l0.2-0.2V254.8z"/>
			<path class="st6" d="M646.5,252.5h2.3v12h-2.3l-1.7-5.2h-0.2v5.2h-2.3v-12h2.3l1.7,5.2h0.2V252.5z"/>
			<path class="st6" d="M604.1,269.2h-3.5v-2.5h6.5v2.2l-3.5,7.3h3.5v2.5h-6.5v-2.2L604.1,269.2z"/>
			<path class="st6" d="M614.4,276.6c0,1.3-0.6,1.7-1.3,2h-3.9c-0.7-0.3-1.3-0.7-1.3-2v-8c0-1.3,0.6-1.7,1.3-2h3.9
				c0.7,0.3,1.3,0.7,1.3,2V276.6z M611.8,269l-0.2-0.2h-0.8l-0.2,0.2v7.3l0.2,0.2h0.8l0.2-0.2V269z"/>
			<path class="st6" d="M619.4,266.7h2.3v12h-2.3l-1.7-5.2h-0.2v5.2h-2.3v-12h2.3l1.7,5.2h0.2V266.7z"/>
			<path class="st6" d="M622.6,266.7h5.5v2.5h-2.8v2.2h2.7v2.5h-2.7v2.3h2.9v2.5h-5.6V266.7z"/>
			<path class="st6" d="M632.1,278.6v-2.5h1.5v-7h-1.3v-2.5h4v9.5h1.3v2.5H632.1z"/>
		</g>
	</g>
	<g>
		<g>
			<g>
				<g>
					<line class="st11" x1="618.3" y1="63" x2="611.1" y2="50"/>
				</g>
				<g>
					<path class="st10" d="M608.3,59.7c-0.3-0.7,0-1.5,0.7-1.9c0.7-0.3,1.5,0,1.9,0.7c0.4,0.7,0.1,1.6-0.7,1.9
						C609.5,60.7,608.7,60.4,608.3,59.7z"/>
				</g>
				<g>
					<path class="st10" d="M603.1,61.8c-0.3-0.7,0.1-1.5,0.8-1.8c0.7-0.3,1.5,0.1,1.8,0.8s-0.1,1.5-0.8,1.8
						C604.1,62.9,603.3,62.5,603.1,61.8z"/>
				</g>
				<g>
					<path class="st10" d="M597.6,63.4c-0.2-0.8,0.3-1.5,1-1.7c0.7-0.2,1.5,0.2,1.7,1c0.2,0.8-0.2,1.5-1,1.8
						C598.6,64.7,597.8,64.2,597.6,63.4z"/>
				</g>
				<g>
					<path class="st10" d="M592,64.6c-0.1-0.8,0.4-1.5,1.1-1.6c0.8-0.1,1.5,0.4,1.7,1.1c0.2,0.8-0.3,1.5-1.1,1.7
						C592.9,65.9,592.2,65.4,592,64.6z"/>
				</g>
				<g>
					<path class="st10" d="M586.4,65.3c-0.1-0.8,0.5-1.5,1.3-1.5c0.8-0.1,1.5,0.5,1.6,1.2c0.1,0.8-0.5,1.5-1.3,1.6
						C587.1,66.6,586.4,66.1,586.4,65.3z"/>
				</g>
				<g>
					<path class="st10" d="M580.7,65.6c0-0.8,0.6-1.4,1.3-1.5c0.8,0,1.4,0.6,1.5,1.3c0,0.8-0.6,1.4-1.3,1.5
						C581.4,67,580.7,66.4,580.7,65.6z"/>
				</g>
				<g>
					<path class="st10" d="M575,65.9c0-0.8,0.6-1.4,1.4-1.5c0.8,0,1.4,0.6,1.5,1.4c0,0.8-0.6,1.4-1.4,1.5
						C575.7,67.2,575,66.6,575,65.9z"/>
				</g>
				<g>
					<path class="st10" d="M569.3,66.1c0-0.8,0.6-1.4,1.4-1.5c0.8,0,1.4,0.6,1.5,1.4c0,0.8-0.6,1.4-1.4,1.5
						C570,67.5,569.4,66.8,569.3,66.1z"/>
				</g>
				<g>
					<path class="st10" d="M563.6,66.3c0-0.8,0.6-1.4,1.4-1.5c0.8,0,1.4,0.6,1.5,1.4c0,0.8-0.6,1.4-1.4,1.5
						C564.3,67.7,563.7,67,563.6,66.3z"/>
				</g>
				<g>
					<path class="st10" d="M557.9,66.4c0-0.8,0.6-1.4,1.4-1.5s1.4,0.6,1.5,1.4c0,0.8-0.6,1.4-1.4,1.5
						C558.6,67.8,558,67.2,557.9,66.4z"/>
				</g>
				<g>
					<path class="st10" d="M552.3,66.6c0-0.8,0.6-1.4,1.4-1.5c0.8,0,1.4,0.6,1.5,1.4c0,0.8-0.6,1.4-1.4,1.5
						C552.9,68,552.3,67.4,552.3,66.6z"/>
				</g>
				<g>
					<path class="st10" d="M546.6,66.8c0-0.8,0.6-1.4,1.4-1.5c0.8,0,1.4,0.6,1.5,1.4c0,0.8-0.6,1.4-1.4,1.5
						C547.2,68.2,546.6,67.6,546.6,66.8z"/>
				</g>
				<g>
					<path class="st10" d="M540.9,67c0-0.8,0.6-1.4,1.4-1.5c0.8,0,1.4,0.6,1.5,1.4c0,0.8-0.6,1.4-1.4,1.5
						C541.6,68.4,540.9,67.8,540.9,67z"/>
				</g>
				<g>
					<path class="st10" d="M535.2,67.1c0-0.8,0.6-1.4,1.4-1.5c0.8,0,1.4,0.6,1.5,1.4c0,0.8-0.6,1.4-1.4,1.5
						C535.9,68.5,535.2,67.9,535.2,67.1z"/>
				</g>
				<g>
					<path class="st10" d="M529.5,67.3c0-0.8,0.6-1.4,1.4-1.5s1.4,0.6,1.5,1.4c0,0.8-0.6,1.4-1.4,1.5
						C530.2,68.7,529.5,68.1,529.5,67.3z"/>
				</g>
				<g>
					<path class="st10" d="M523.8,67.5c0-0.8,0.6-1.4,1.4-1.5c0.8,0,1.4,0.6,1.5,1.4c0,0.8-0.6,1.4-1.4,1.5
						C524.5,68.9,523.8,68.2,523.8,67.5z"/>
				</g>
				<g>
					<path class="st10" d="M518.1,67.6c0-0.8,0.6-1.4,1.4-1.5s1.4,0.6,1.5,1.4c0,0.8-0.6,1.4-1.4,1.5
						C518.8,69,518.1,68.4,518.1,67.6z"/>
				</g>
				<g>
					<path class="st10" d="M512.4,67.8c0-0.8,0.6-1.4,1.4-1.5c0.8,0,1.4,0.6,1.5,1.4c0,0.8-0.6,1.4-1.4,1.5
						C513.1,69.2,512.4,68.6,512.4,67.8z"/>
				</g>
				<g>
					<path class="st10" d="M506.7,67.9c0-0.8,0.6-1.4,1.4-1.5c0.8,0,1.4,0.6,1.5,1.4c0,0.8-0.6,1.4-1.4,1.5S506.8,68.7,506.7,67.9z"
						/>
				</g>
				<g>
					<path class="st10" d="M501,68.1c0-0.8,0.6-1.4,1.4-1.5c0.8,0,1.4,0.6,1.5,1.4s-0.6,1.4-1.4,1.5C501.7,69.5,501.1,68.9,501,68.1
						z"/>
				</g>
				<g>
					<path class="st10" d="M495.4,68.3c0-0.8,0.6-1.4,1.4-1.5c0.8,0,1.4,0.6,1.5,1.4s-0.6,1.4-1.4,1.5C496,69.7,495.4,69,495.4,68.3
						z"/>
				</g>
				<g>
					<path class="st10" d="M489.7,68.4c0-0.8,0.6-1.4,1.4-1.5c0.8,0,1.4,0.6,1.5,1.4c0,0.8-0.6,1.4-1.4,1.5
						C490.3,69.8,489.7,69.2,489.7,68.4z"/>
				</g>
				<g>
					<path class="st10" d="M484,68.6c0-0.8,0.6-1.4,1.4-1.5s1.4,0.6,1.5,1.4s-0.6,1.4-1.4,1.5S484,69.4,484,68.6z"/>
				</g>
				<g>
					<path class="st10" d="M478.3,68.7c0-0.8,0.6-1.4,1.4-1.5c0.8,0,1.4,0.6,1.5,1.4c0,0.8-0.6,1.4-1.4,1.5
						C479,70.1,478.3,69.5,478.3,68.7z"/>
				</g>
				<g>
					<path class="st10" d="M472.6,68.7c0.1-0.8,0.7-1.4,1.5-1.3c0.8,0,1.4,0.7,1.4,1.5c0,0.8-0.7,1.4-1.5,1.4
						C473.1,70.1,472.5,69.4,472.6,68.7z"/>
				</g>
				<g>
					<path class="st10" d="M466.9,68.1c0.1-0.8,0.8-1.3,1.6-1.2c0.8,0.1,1.3,0.8,1.3,1.6c-0.1,0.8-0.8,1.4-1.6,1.3
						C467.4,69.6,466.8,68.9,466.9,68.1z"/>
				</g>
				<g>
					<path class="st10" d="M461.3,67.3c0.1-0.8,0.8-1.3,1.6-1.2c0.8,0.1,1.3,0.8,1.2,1.6c-0.1,0.8-0.8,1.3-1.6,1.2
						C461.7,68.8,461.2,68.1,461.3,67.3z"/>
				</g>
				<g>
					<path class="st10" d="M455.7,66.4c0.1-0.8,0.9-1.3,1.6-1.2c0.8,0.1,1.3,0.9,1.2,1.6c-0.1,0.8-0.9,1.3-1.6,1.2
						C456.1,67.9,455.5,67.2,455.7,66.4z"/>
				</g>
				<g>
					<path class="st10" d="M450.1,65.4c0.2-0.8,0.9-1.3,1.7-1.1c0.8,0.1,1.3,0.9,1.1,1.7c-0.1,0.8-0.9,1.3-1.7,1.1
						C450.4,66.9,449.9,66.2,450.1,65.4z"/>
				</g>
				<g>
					<path class="st10" d="M444.5,64.3c0.1-0.8,0.9-1.3,1.7-1.1c0.8,0.1,1.3,0.9,1.1,1.7c-0.1,0.8-0.9,1.3-1.7,1.1
						C444.8,65.8,444.3,65.1,444.5,64.3z"/>
				</g>
				<g>
					<path class="st10" d="M438.9,63.3c0.1-0.8,0.9-1.3,1.7-1.1c0.8,0.1,1.3,0.9,1.1,1.7c-0.1,0.8-0.9,1.3-1.7,1.1
						C439.3,64.8,438.7,64.1,438.9,63.3z"/>
				</g>
				<g>
					<path class="st10" d="M433.3,62.3c0.1-0.8,0.9-1.3,1.7-1.1c0.8,0.1,1.3,0.9,1.1,1.6c-0.1,0.8-0.9,1.3-1.7,1.1
						C433.7,63.8,433.1,63.1,433.3,62.3z"/>
				</g>
				<g>
					<path class="st10" d="M427.7,61.3c0.1-0.8,0.9-1.3,1.7-1.1c0.8,0.1,1.3,0.9,1.2,1.6c-0.1,0.8-0.9,1.3-1.7,1.1
						C428.1,62.8,427.5,62,427.7,61.3z"/>
				</g>
				<g>
					<path class="st10" d="M422.1,60.3c0.1-0.8,0.9-1.3,1.6-1.1s1.3,0.9,1.2,1.6c-0.1,0.8-0.9,1.3-1.6,1.1S421.9,61,422.1,60.3z"/>
				</g>
				<g>
					<path class="st10" d="M416.5,59.3c0.1-0.8,0.9-1.3,1.6-1.1c0.8,0.1,1.3,0.9,1.2,1.6c-0.1,0.8-0.9,1.3-1.6,1.1
						S416.3,60.1,416.5,59.3z"/>
				</g>
				<g>
					<path class="st10" d="M410.9,58.3c0.1-0.8,0.9-1.3,1.6-1.1c0.8,0.1,1.3,0.9,1.2,1.6c-0.1,0.8-0.9,1.3-1.6,1.1
						C411.2,59.8,410.7,59.1,410.9,58.3z"/>
				</g>
				<g>
					<path class="st10" d="M405.3,57.3c0.1-0.8,0.9-1.3,1.6-1.1c0.8,0.1,1.3,0.9,1.2,1.6s-0.9,1.3-1.6,1.1
						C405.6,58.8,405.1,58.1,405.3,57.3z"/>
				</g>
				<g>
					<path class="st10" d="M399.6,56.3c0.1-0.8,0.9-1.3,1.6-1.2c0.8,0.1,1.3,0.9,1.2,1.6c-0.1,0.8-0.9,1.3-1.6,1.2
						C400,57.8,399.5,57.1,399.6,56.3z"/>
				</g>
				<g>
					<path class="st10" d="M394,55.3c0.1-0.8,0.9-1.3,1.6-1.2c0.8,0.1,1.3,0.9,1.2,1.6c-0.1,0.8-0.9,1.3-1.6,1.2
						C394.4,56.8,393.9,56.1,394,55.3z"/>
				</g>
				<g>
					<path class="st10" d="M388.4,54.4c0.1-0.8,0.9-1.3,1.6-1.2c0.8,0.1,1.3,0.9,1.2,1.6c-0.1,0.8-0.9,1.3-1.6,1.2
						C388.8,55.9,388.3,55.1,388.4,54.4z"/>
				</g>
				<g>
					<path class="st10" d="M382.8,53.4c0.1-0.8,0.9-1.3,1.6-1.2c0.8,0.1,1.3,0.9,1.2,1.6c-0.1,0.8-0.9,1.3-1.6,1.2
						C383.2,54.9,382.7,54.2,382.8,53.4z"/>
				</g>
				<g>
					<path class="st10" d="M377.2,52.6c0.1-0.8,0.8-1.3,1.6-1.2c0.8,0.1,1.3,0.8,1.2,1.6c-0.1,0.8-0.8,1.3-1.6,1.2
						C377.6,54,377.1,53.4,377.2,52.6z"/>
				</g>
				<g>
					<path class="st10" d="M371.5,52.1c0-0.8,0.7-1.4,1.5-1.3c0.8,0.1,1.4,0.7,1.3,1.5c-0.1,0.8-0.7,1.4-1.5,1.3
						C372.1,53.5,371.5,52.9,371.5,52.1z"/>
				</g>
				<g>
					<path class="st10" d="M365.8,51.8c0-0.8,0.7-1.4,1.5-1.4c0.8,0,1.4,0.7,1.4,1.5c0,0.8-0.7,1.4-1.5,1.3
						C366.4,53.3,365.8,52.6,365.8,51.8z"/>
				</g>
				<g>
					<path class="st10" d="M360.1,51.6c0-0.8,0.7-1.4,1.5-1.4c0.8,0,1.4,0.7,1.4,1.5c0,0.8-0.7,1.4-1.5,1.4
						C360.7,53.1,360.1,52.4,360.1,51.6z"/>
				</g>
				<g>
					<path class="st10" d="M354.5,51.6c0-0.8,0.6-1.4,1.4-1.4c0.8,0,1.4,0.6,1.4,1.4c0,0.8-0.7,1.4-1.4,1.4
						C355.1,53,354.5,52.4,354.5,51.6z"/>
				</g>
				<g>
					<path class="st10" d="M348.8,51.6c0-0.8,0.6-1.4,1.4-1.4c0.8,0,1.4,0.6,1.4,1.4c0,0.8-0.6,1.4-1.4,1.4
						C349.4,53,348.8,52.4,348.8,51.6z"/>
				</g>
				<g>
					<path class="st10" d="M343.1,51.8c0-0.8,0.6-1.4,1.4-1.5c0.8,0,1.5,0.6,1.5,1.4c0,0.8-0.6,1.4-1.4,1.5
						C343.8,53.2,343.1,52.6,343.1,51.8z"/>
				</g>
				<g>
					<path class="st10" d="M337.4,52.2c-0.1-0.8,0.5-1.5,1.3-1.5c0.8-0.1,1.5,0.5,1.5,1.3c0.1,0.8-0.5,1.5-1.3,1.5
						C338.2,53.6,337.5,53,337.4,52.2z"/>
				</g>
				<g>
					<path class="st10" d="M331.7,52.8c-0.1-0.8,0.5-1.5,1.3-1.6c0.8-0.1,1.5,0.5,1.6,1.3c0.1,0.8-0.5,1.5-1.3,1.6
						C332.5,54.2,331.8,53.6,331.7,52.8z"/>
				</g>
				<g>
					<path class="st10" d="M326.1,53.5c-0.1-0.8,0.5-1.5,1.2-1.6c0.8-0.1,1.5,0.5,1.6,1.2c0.1,0.8-0.5,1.5-1.2,1.6
						C326.9,54.8,326.2,54.3,326.1,53.5z"/>
				</g>
				<g>
					<path class="st10" d="M320.4,54.2c-0.1-0.8,0.5-1.5,1.2-1.6c0.8-0.1,1.5,0.5,1.6,1.2c0.1,0.8-0.5,1.5-1.2,1.6
						C321.2,55.5,320.5,54.9,320.4,54.2z"/>
				</g>
				<g>
					<path class="st10" d="M314.8,54.8c-0.1-0.8,0.5-1.5,1.2-1.6c0.8-0.1,1.5,0.5,1.6,1.2c0.1,0.8-0.5,1.5-1.2,1.6
						C315.6,56.2,314.9,55.6,314.8,54.8z"/>
				</g>
				<g>
					<path class="st10" d="M309.1,55.5c-0.1-0.8,0.5-1.5,1.2-1.6c0.8-0.1,1.5,0.5,1.6,1.2c0.1,0.8-0.5,1.5-1.2,1.6
						C309.9,56.9,309.2,56.3,309.1,55.5z"/>
				</g>
				<g>
					<path class="st10" d="M303.5,56.3c-0.1-0.8,0.5-1.5,1.2-1.6c0.8-0.1,1.5,0.5,1.6,1.2c0.1,0.8-0.5,1.5-1.2,1.6
						C304.3,57.6,303.6,57,303.5,56.3z"/>
				</g>
				<g>
					<path class="st10" d="M297.8,57c-0.1-0.8,0.5-1.5,1.2-1.6c0.8-0.1,1.5,0.4,1.6,1.2c0.1,0.8-0.5,1.5-1.2,1.6
						C298.6,58.3,297.9,57.8,297.8,57z"/>
				</g>
				<g>
					<path class="st10" d="M292.2,57.7c-0.1-0.8,0.4-1.5,1.2-1.6c0.8-0.1,1.5,0.4,1.6,1.2c0.1,0.8-0.5,1.5-1.2,1.6
						C293,59,292.3,58.5,292.2,57.7z"/>
				</g>
				<g>
					<path class="st10" d="M286.5,58.4c-0.1-0.8,0.4-1.5,1.2-1.6c0.8-0.1,1.5,0.4,1.6,1.2c0.1,0.8-0.4,1.5-1.2,1.6
						C287.4,59.8,286.6,59.2,286.5,58.4z"/>
				</g>
				<g>
					<path class="st10" d="M280.9,59.2c-0.1-0.8,0.4-1.5,1.2-1.6c0.8-0.1,1.5,0.4,1.6,1.2c0.1,0.8-0.4,1.5-1.2,1.6
						C281.7,60.5,281,60,280.9,59.2z"/>
				</g>
				<g>
					<path class="st10" d="M275.3,60c-0.1-0.8,0.4-1.5,1.2-1.6c0.8-0.1,1.5,0.4,1.6,1.2s-0.4,1.5-1.2,1.6
						C276.1,61.3,275.4,60.7,275.3,60z"/>
				</g>
				<g>
					<path class="st10" d="M269.6,60.8c-0.1-0.8,0.4-1.5,1.2-1.6c0.8-0.1,1.5,0.4,1.6,1.2c0.1,0.8-0.4,1.5-1.2,1.6
						C270.5,62.1,269.7,61.5,269.6,60.8z"/>
				</g>
				<g>
					<path class="st10" d="M264,61.7c-0.1-0.8,0.4-1.5,1.2-1.6c0.8-0.1,1.5,0.4,1.6,1.2c0.1,0.8-0.4,1.5-1.2,1.6
						C264.9,62.9,264.1,62.4,264,61.7z"/>
				</g>
				<g>
					<path class="st10" d="M258.4,62.9c-0.2-0.8,0.3-1.5,1.1-1.7c0.8-0.2,1.5,0.3,1.7,1.1c0.2,0.8-0.3,1.5-1.1,1.7
						C259.4,64.1,258.6,63.6,258.4,62.9z"/>
				</g>
				<g>
					<path class="st10" d="M252.9,64.2c-0.2-0.8,0.3-1.5,1-1.7c0.8-0.2,1.5,0.3,1.7,1c0.2,0.8-0.3,1.5-1,1.7
						C253.9,65.4,253.1,65,252.9,64.2z"/>
				</g>
				<g>
					<path class="st10" d="M247.4,65.6c-0.2-0.8,0.3-1.5,1-1.7c0.8-0.2,1.5,0.3,1.7,1s-0.3,1.5-1,1.7
						C248.4,66.8,247.6,66.4,247.4,65.6z"/>
				</g>
				<g>
					<path class="st10" d="M241.9,67.1c-0.2-0.8,0.2-1.5,1-1.7c0.8-0.2,1.5,0.2,1.7,1c0.2,0.8-0.2,1.5-1,1.7
						C242.9,68.3,242.1,67.9,241.9,67.1z"/>
				</g>
				<g>
					<path class="st10" d="M236.4,68.6c-0.2-0.8,0.2-1.5,1-1.7c0.8-0.2,1.5,0.2,1.8,1c0.2,0.8-0.2,1.5-1,1.7
						C237.4,69.8,236.6,69.4,236.4,68.6z"/>
				</g>
				<g>
					<path class="st10" d="M230.9,70.2c-0.2-0.8,0.2-1.5,1-1.8c0.8-0.2,1.5,0.2,1.8,1c0.2,0.8-0.2,1.5-1,1.8
						C231.9,71.3,231.1,70.9,230.9,70.2z"/>
				</g>
				<g>
					<path class="st10" d="M225.5,71.8c-0.2-0.7,0.2-1.5,1-1.8c0.8-0.2,1.6,0.2,1.8,0.9c0.2,0.8-0.2,1.5-1,1.8
						C226.5,73,225.7,72.5,225.5,71.8z"/>
				</g>
				<g>
					<line class="st11" x1="223.8" y1="80.1" x2="219" y2="66.1"/>
				</g>
			</g>
		</g>
	</g>
	<g>
		<circle class="st7" cx="619.3" cy="176.5" r="4.7"/>
		<circle class="st10" cx="619.3" cy="176.5" r="4.7"/>
	</g>
	<g>
		<line class="st12" x1="619.3" y1="176.5" x2="619.3" y2="232.6"/>
	</g>
</g>
<g id="アイコン">
	<g>
		<rect x="558.9" y="97.1" class="st5" width="2.8" height="2.8"/>
		<rect x="564.6" y="97.1" class="st5" width="2.8" height="2.8"/>
		<rect x="561.7" y="99.9" class="st5" width="2.8" height="2.8"/>
		<rect x="567.4" y="99.9" class="st5" width="2.8" height="2.8"/>
		<rect x="561.7" y="105.6" class="st5" width="2.8" height="2.8"/>
		<rect x="567.4" y="105.6" class="st5" width="2.8" height="2.8"/>
		<rect x="570.2" y="97.1" class="st5" width="2.8" height="2.8"/>
		<rect x="567.4" y="97.1" class="st6" width="2.8" height="2.8"/>
		<rect x="561.7" y="97.1" class="st6" width="2.8" height="2.8"/>
		<rect x="558.9" y="99.9" class="st6" width="2.8" height="2.8"/>
		<rect x="564.6" y="99.9" class="st6" width="2.8" height="2.8"/>
		<rect x="570.2" y="99.9" class="st6" width="2.8" height="2.8"/>
		<rect x="567.4" y="102.7" class="st6" width="2.8" height="2.8"/>
		<rect x="561.7" y="102.7" class="st6" width="2.8" height="2.8"/>
		<rect x="567.4" y="108.4" class="st6" width="2.8" height="2.8"/>
		<rect x="561.7" y="108.4" class="st6" width="2.8" height="2.8"/>
		<rect x="558.9" y="105.6" class="st6" width="2.8" height="2.8"/>
		<rect x="564.6" y="105.6" class="st6" width="2.8" height="2.8"/>
		<rect x="570.2" y="105.6" class="st6" width="2.8" height="2.8"/>
		<rect x="558.9" y="102.7" class="st5" width="2.8" height="2.8"/>
		<rect x="564.6" y="102.7" class="st5" width="2.8" height="2.8"/>
		<rect x="564.6" y="108.4" class="st5" width="2.8" height="2.8"/>
		<rect x="570.2" y="102.7" class="st5" width="2.8" height="2.8"/>
		<rect x="558.9" y="108.4" class="st5" width="2.8" height="2.8"/>
		<rect x="570.2" y="108.4" class="st5" width="2.8" height="2.8"/>
	</g>
	<g>
		<defs>
			
				<rect id="SVGID_1_" x="488.3" y="99.2" transform="matrix(1 -2.438543e-03 2.438543e-03 1 -0.2507 1.2182)" width="22.3" height="8.5"/>
		</defs>
		<clipPath id="SVGID_00000106862446244492694280000009687910073906979241_">
			<use xlink:href="#SVGID_1_"  style="overflow:visible;"/>
		</clipPath>
		<g style="clip-path:url(#SVGID_00000106862446244492694280000009687910073906979241_);">
			<polygon class="st14" points="509.4,110.5 506.6,110.5 500.9,103.4 506.5,96.3 509.4,96.3 503.7,103.4 			"/>
			<polygon class="st15" points="503.7,110.5 500.9,110.5 495.2,103.4 500.9,96.3 503.7,96.3 498,103.4 			"/>
			<polygon class="st16" points="498.1,110.5 495.2,110.5 489.5,103.4 495.2,96.3 498,96.3 492.4,103.4 			"/>
		</g>
	</g>
	<g>
		<g>
			<path class="st6" d="M765.7,436.8c0,1.6-1.3,2.8-2.8,2.8H394.1c-1.6,0-2.8-1.3-2.8-2.8v-24.9c0-1.6,1.3-2.8,2.8-2.8h368.8
				c1.6,0,2.8,1.3,2.8,2.8V436.8z"/>
			<path class="st17" d="M765.7,436.8c0,1.6-1.3,2.8-2.8,2.8H394.1c-1.6,0-2.8-1.3-2.8-2.8v-24.9c0-1.6,1.3-2.8,2.8-2.8h368.8
				c1.6,0,2.8,1.3,2.8,2.8V436.8z"/>
		</g>
		<g>
			<path class="st5" d="M436.7,425.8v2.6c0,1.3-0.6,1.7-1.3,2h-3.3c-0.7-0.3-1.3-0.7-1.3-2v-2h1.8v2.1l0.4,0.4h1.6l0.4-0.4v-2.8
				l-0.3-0.4l-2.6-0.8c-0.8-0.3-1.1-0.8-1.1-1.9v-2.2c0-1.3,0.6-1.7,1.3-2h3.3c0.7,0.3,1.3,0.7,1.3,2v1.9h-1.8v-2.1l-0.4-0.4H433
				l-0.4,0.4v2.4l0.4,0.4l2.6,0.7C436.4,424.1,436.7,424.6,436.7,425.8z"/>
			<path class="st5" d="M438.1,418.4h5.1v1.6h-3.3v3.4h3.1v1.6h-3.1v3.7h3.4v1.6h-5.2V418.4z"/>
			<path class="st5" d="M450.4,428.4c0,1.3-0.6,1.7-1.3,2h-3.3c-0.7-0.3-1.3-0.7-1.3-2v-8c0-1.3,0.6-1.7,1.3-2h3.3
				c0.7,0.3,1.3,0.7,1.3,2v2.7h-1.8v-2.8l-0.4-0.4h-1.6l-0.4,0.4v8.3l0.4,0.4h1.6l0.4-0.4v-2.7h1.8V428.4z"/>
			<path class="st5" d="M455.1,420v10.3h-1.8V420h-2.1v-1.6h6.1v1.6H455.1z"/>
			<path class="st5" d="M464,428.4c0,1.3-0.6,1.7-1.3,2h-3.3c-0.7-0.3-1.3-0.7-1.3-2v-8c0-1.3,0.6-1.7,1.3-2h3.3
				c0.7,0.3,1.3,0.7,1.3,2V428.4z M462.2,420.2l-0.4-0.4h-1.6l-0.4,0.4v8.3l0.4,0.4h1.6l0.4-0.4V420.2z"/>
			<path class="st5" d="M465.4,430.4v-12h4.6c0.7,0.3,1.3,0.7,1.3,2v2.6c0,1.3-0.6,1.6-1.3,1.9l-0.3,0.1l2.1,4.3v1.1h-1.6l-2.2-5.1
				h-0.8v5.1H465.4z M467.2,419.9v3.9h2l0.4-0.4v-3.1l-0.4-0.4H467.2z"/>
			<path class="st5" d="M475.5,430.4v-1.6h1.8V420h-1.7v-1.6h3.5v10.4h1.7v1.6H475.5z"/>
		</g>
		<line class="st18" x1="405.4" y1="424.5" x2="426.7" y2="424.5"/>
		<g>
			<path class="st5" d="M526.8,425.8v2.6c0,1.3-0.6,1.7-1.3,2h-3.3c-0.7-0.3-1.3-0.7-1.3-2v-2h1.8v2.1l0.4,0.4h1.6l0.4-0.4v-2.8
				l-0.3-0.4l-2.6-0.8c-0.8-0.3-1.1-0.8-1.1-1.9v-2.2c0-1.3,0.6-1.7,1.3-2h3.3c0.7,0.3,1.3,0.7,1.3,2v1.9h-1.8v-2.1l-0.4-0.4h-1.6
				l-0.4,0.4v2.4l0.4,0.4l2.6,0.7C526.5,424.1,526.8,424.6,526.8,425.8z"/>
			<path class="st5" d="M528.2,418.4h5.1v1.6H530v3.4h3.1v1.6H530v3.7h3.4v1.6h-5.2V418.4z"/>
			<path class="st5" d="M540.5,428.4c0,1.3-0.6,1.7-1.3,2h-3.3c-0.7-0.3-1.3-0.7-1.3-2v-8c0-1.3,0.6-1.7,1.3-2h3.3
				c0.7,0.3,1.3,0.7,1.3,2v2.7h-1.8v-2.8l-0.4-0.4h-1.6l-0.4,0.4v8.3l0.4,0.4h1.6l0.4-0.4v-2.7h1.8V428.4z"/>
			<path class="st5" d="M545.3,420v10.3h-1.8V420h-2.1v-1.6h6.1v1.6H545.3z"/>
			<path class="st5" d="M554.1,428.4c0,1.3-0.6,1.7-1.3,2h-3.3c-0.7-0.3-1.3-0.7-1.3-2v-8c0-1.3,0.6-1.7,1.3-2h3.3
				c0.7,0.3,1.3,0.7,1.3,2V428.4z M552.3,420.2l-0.4-0.4h-1.6l-0.4,0.4v8.3l0.4,0.4h1.6l0.4-0.4V420.2z"/>
			<path class="st5" d="M555.5,430.4v-12h4.6c0.7,0.3,1.3,0.7,1.3,2v2.6c0,1.3-0.6,1.6-1.3,1.9l-0.3,0.1l2.1,4.3v1.1h-1.6l-2.2-5.1
				h-0.8v5.1H555.5z M557.3,419.9v3.9h2l0.4-0.4v-3.1l-0.4-0.4H557.3z"/>
			<path class="st5" d="M565.2,430.4v-3.6c0-1.1,0.4-1.7,1.2-2.1l3-1.2v-3.2l-0.4-0.4h-1.7l-0.4,0.4v2h-1.8v-1.9
				c0-1.3,0.6-1.7,1.3-2h3.3c0.7,0.3,1.3,0.7,1.3,2v2.5c0,1.1-0.3,1.7-1.1,2.1l-3,1.2v2.5h4.1v1.6H565.2z"/>
		</g>
		<line class="st19" x1="495.5" y1="424.5" x2="516.8" y2="424.5"/>
		<g>
			<path class="st5" d="M616.7,425.8v2.6c0,1.3-0.6,1.7-1.3,2H612c-0.7-0.3-1.3-0.7-1.3-2v-2h1.8v2.1l0.4,0.4h1.6l0.4-0.4v-2.8
				l-0.3-0.4l-2.6-0.8c-0.8-0.3-1.1-0.8-1.1-1.9v-2.2c0-1.3,0.6-1.7,1.3-2h3.3c0.7,0.3,1.3,0.7,1.3,2v1.9h-1.8v-2.1l-0.4-0.4h-1.6
				l-0.4,0.4v2.4l0.4,0.4l2.6,0.7C616.3,424.1,616.7,424.6,616.7,425.8z"/>
			<path class="st5" d="M618,418.4h5.1v1.6h-3.3v3.4h3.1v1.6h-3.1v3.7h3.4v1.6H618V418.4z"/>
			<path class="st5" d="M630.3,428.4c0,1.3-0.6,1.7-1.3,2h-3.3c-0.7-0.3-1.3-0.7-1.3-2v-8c0-1.3,0.6-1.7,1.3-2h3.3
				c0.7,0.3,1.3,0.7,1.3,2v2.7h-1.8v-2.8l-0.4-0.4h-1.6l-0.4,0.4v8.3l0.4,0.4h1.6l0.4-0.4v-2.7h1.8V428.4z"/>
			<path class="st5" d="M635.1,420v10.3h-1.8V420h-2.1v-1.6h6.1v1.6H635.1z"/>
			<path class="st5" d="M644,428.4c0,1.3-0.6,1.7-1.3,2h-3.3c-0.7-0.3-1.3-0.7-1.3-2v-8c0-1.3,0.6-1.7,1.3-2h3.3
				c0.7,0.3,1.3,0.7,1.3,2V428.4z M642.2,420.2l-0.4-0.4h-1.6l-0.4,0.4v8.3l0.4,0.4h1.6l0.4-0.4V420.2z"/>
			<path class="st5" d="M645.4,430.4v-12h4.6c0.7,0.3,1.3,0.7,1.3,2v2.6c0,1.3-0.6,1.6-1.3,1.9l-0.3,0.1l2.1,4.3v1.1h-1.6l-2.2-5.1
				h-0.8v5.1H645.4z M647.2,419.9v3.9h2l0.4-0.4v-3.1l-0.4-0.4H647.2z"/>
			<path class="st5" d="M656.4,430.4c-0.7-0.3-1.3-0.7-1.3-2v-1.7h1.8v1.8l0.4,0.4h1.7l0.4-0.4v-3.2l-0.4-0.3H657v-1.4h1.8l0.4-0.4
				v-3l-0.4-0.4h-1.7l-0.4,0.4v1.8h-1.8v-1.7c0-1.3,0.6-1.7,1.3-2h3.3c0.7,0.3,1.3,0.7,1.3,2v1.9c0,1-0.2,1.5-0.9,1.9
				c0.6,0.4,0.9,0.9,0.9,1.9v2.2c0,1.3-0.6,1.7-1.3,2H656.4z"/>
		</g>
		<line class="st20" x1="585.3" y1="424.5" x2="606.6" y2="424.5"/>
		<g>
			<path class="st5" d="M706.6,428.4c0,1.3-0.6,1.7-1.3,2h-4.6v-12h4.6c0.7,0.3,1.3,0.7,1.3,2V428.4z M702.5,419.9v9h2l0.4-0.4v-8.3
				l-0.4-0.4H702.5z"/>
			<path class="st5" d="M708,430.4v-12h4.6c0.7,0.3,1.3,0.7,1.3,2v2.6c0,1.3-0.6,1.6-1.3,1.9l-0.3,0.1l2.1,4.3v1.1h-1.6l-2.2-5.1
				h-0.8v5.1H708z M709.8,419.9v3.9h2l0.4-0.4v-3.1l-0.4-0.4H709.8z"/>
			<path class="st5" d="M721,425.8v2.6c0,1.3-0.6,1.7-1.3,2h-3.3c-0.7-0.3-1.3-0.7-1.3-2v-2h1.8v2.1l0.4,0.4h1.6l0.4-0.4v-2.8
				l-0.3-0.4l-2.6-0.8c-0.8-0.3-1.1-0.8-1.1-1.9v-2.2c0-1.3,0.6-1.7,1.3-2h3.3c0.7,0.3,1.3,0.7,1.3,2v1.9h-1.8v-2.1l-0.4-0.4h-1.6
				l-0.4,0.4v2.4l0.4,0.4l2.6,0.7C720.6,424.1,721,424.6,721,425.8z"/>
			<path class="st5" d="M728.6,420h-3.9v-1.6h5.8v1.5l-4,8.9h4v1.6h-5.9v-1.5L728.6,420z"/>
			<path class="st5" d="M737.7,428.4c0,1.3-0.6,1.7-1.3,2h-3.3c-0.7-0.3-1.3-0.7-1.3-2v-8c0-1.3,0.6-1.7,1.3-2h3.3
				c0.7,0.3,1.3,0.7,1.3,2V428.4z M735.9,420.2l-0.4-0.4h-1.6l-0.4,0.4v8.3l0.4,0.4h1.6l0.4-0.4V420.2z"/>
			<path class="st5" d="M743.4,418.4h1.6v12h-1.6l-2.6-7.1h-0.2v7.1h-1.6v-12h1.6l2.6,7.1h0.2V418.4z"/>
			<path class="st5" d="M746.4,418.4h5.1v1.6h-3.3v3.4h3.1v1.6h-3.1v3.7h3.4v1.6h-5.2V418.4z"/>
		</g>
		<g>
			<g>
				<g>
					<g>
						<line class="st11" x1="676.7" y1="417" x2="676.7" y2="431.9"/>
					</g>
					<g>
						<ellipse class="st10" cx="682.8" cy="424.5" rx="1.5" ry="1.4"/>
					</g>
					<g>
						<path class="st10" d="M690.3,424.5c0,0.8-0.7,1.4-1.5,1.4c-0.8,0-1.5-0.6-1.5-1.4s0.7-1.4,1.5-1.4
							C689.7,423,690.3,423.7,690.3,424.5z"/>
					</g>
					<g>
						<line class="st11" x1="694.9" y1="417" x2="694.9" y2="431.9"/>
					</g>
				</g>
			</g>
		</g>
	</g>
</g>
</svg>
