<svg width="901" height="498" viewBox="0 0 901 498" fill="none" xmlns="http://www.w3.org/2000/svg">
<g clip-path="url(#clip0_21_372)">
<path fill-rule="evenodd" clip-rule="evenodd" d="M330.64 414.133C373.899 423.713 414.462 432.581 457.995 442.17C471.404 445.124 492.632 444.429 506.29 443.046C557.255 437.887 597.428 434.141 647.395 425.873C653.574 424.851 660.576 417.559 662.003 413.607C663.784 408.68 661.805 402.097 664.066 397.486C666.617 392.284 671.353 387.212 676.44 384.168C688.54 376.931 703.854 374.226 715.627 366.645C721.27 363.012 725.949 356.88 728.689 350.524C755.052 289.358 780.955 226.617 802.936 164.078C805.016 158.161 801.88 151.41 800.874 145.153C799.588 137.158 796.365 129.211 796.061 121.322C795.907 117.295 796.422 112.01 799.499 109.406C828.281 85.0483 858.27 60.0447 888.183 35.8094C892.625 32.2107 892.943 25.256 893.339 19.8634C893.63 15.9104 891.179 11.6673 888.699 8.47339C886.825 6.05991 879.964 3.86036 876.84 4.26785C823.144 11.2726 773.883 18.2539 719.752 23.8937C711.093 24.7958 702.238 23.8057 693.627 22.4919C668.551 18.6656 643.686 11.2233 618.692 8.47339C611.833 7.71869 602.495 7.15967 598.068 11.978C585.537 25.6173 575.581 45.4816 569.198 63.8464C565.269 75.154 564.937 88.8739 567.132 100.995C573.002 133.416 587.765 187.64 586.381 197.723C584.934 208.268 569.41 230.699 560.944 243.808C558.856 247.043 552.184 249.655 546.48 247.224C540.777 244.793 535.655 238.567 530.008 238.376C457.3 235.925 382.017 241.799 310.015 239.778C307.082 239.696 307.185 234.234 305.203 232.068C303.977 230.729 302.141 228.788 300.391 229.264C274.642 236.265 246.989 242.77 222.706 254.498C203.449 263.798 186.09 278.086 169.77 292.347C141.175 317.337 117.964 349.544 87.9605 372.253C65.4869 389.263 36.5983 399.323 12.3381 411.504C7.75379 413.806 3.13527 420.916 4.77581 425.523C10.1539 440.625 18.8501 458.397 26.7751 471.083C29.2826 475.097 37.0877 474.713 41.8996 473.186C89.3359 458.125 135.978 436.646 183.52 421.317C189.601 419.357 196.365 420.96 202.769 421.317C225.697 422.596 249.635 427.408 271.517 426.224C275.53 426.007 278.972 421.857 279.766 417.813C281.375 409.622 283.959 403.261 292.829 405.192C305.443 407.937 317.984 411.33 330.64 414.133Z" stroke="black" stroke-width="10" stroke-linejoin="round"/>
</g>
<defs>
<clipPath id="clip0_21_372">
<rect width="901" height="498" fill="white"/>
</clipPath>
</defs>
</svg>
