<svg width="951" height="527" viewBox="0 0 951 527" fill="none" xmlns="http://www.w3.org/2000/svg">
<path d="M876.857 51.1998C860.441 60.6355 827.609 79.5072 808.022 90.7489C788.437 101.992 782.096 105.605 774.737 110.323C767.378 115.041 759 120.863 730.017 142.144C701.034 163.424 651.447 200.162 625.97 219.127C600.494 238.091 599.128 239.281 598.123 240.311C597.119 241.34 596.48 242.21 596.099 243.044C595.719 243.878 595.599 244.676 595.629 245.422C595.659 246.167 595.839 246.859 596.22 247.551C596.6 248.243 597.181 248.935 598.101 249.787C599.022 250.639 600.283 251.65 601.304 252.573C602.324 253.496 603.105 254.33 603.635 255.031C604.165 255.731 604.445 256.299 604.595 256.858C604.745 257.417 604.765 257.967 604.641 258.693C604.517 259.418 604.25 260.319 603.84 261.159C603.43 261.998 602.878 262.776 602.281 263.408C601.685 264.04 601.044 264.526 600.113 265.026C599.182 265.526 597.961 266.04 596.4 266.493C594.839 266.946 592.938 267.336 590.946 267.646C588.955 267.957 586.874 268.188 585.083 268.358C583.292 268.528 581.792 268.639 579.627 268.681C577.462 268.724 574.632 268.699 571.575 268.749C568.518 268.799 565.235 268.924 562.871 269.138C560.508 269.351 559.064 269.652 557.607 270.003C556.149 270.355 554.677 270.756 552.767 271.384C550.856 272.011 548.507 272.864 546.059 273.856C543.611 274.847 541.063 275.976 538.431 277.231C535.799 278.485 533.082 279.866 530.11 281.484C527.138 283.103 523.911 284.96 520.812 286.654C517.713 288.348 514.741 289.879 511.84 291.397C508.939 292.915 506.108 294.421 503.462 295.826C500.816 297.232 498.353 298.537 496.018 299.746C493.683 300.955 491.475 302.068 489.21 303.21C486.946 304.352 484.624 305.523 482.343 306.712C480.061 307.901 477.82 309.108 475.558 310.226C473.297 311.344 471.015 312.373 468.794 313.349C466.572 314.325 464.411 315.247 462.709 315.922C461.008 316.596 459.768 317.022 458.837 317.417C457.906 317.812 457.286 318.175 456.69 318.539C456.095 318.903 455.524 319.267 454.994 319.697C454.464 320.128 453.973 320.624 453.703 321.099C453.433 321.574 453.383 322.027 453.403 322.967C453.423 323.908 453.513 325.336 453.548 326.796C453.583 328.255 453.562 329.746 453.493 331.334C453.423 332.922 453.303 334.608 453.108 336.113C452.913 337.619 452.644 338.945 452.332 340.003C452.021 341.061 451.667 341.851 451.2 342.78C450.733 343.708 450.153 344.775 449.388 345.904C448.624 347.033 447.676 348.225 446.983 349.091C446.289 349.957 445.851 350.496 445.125 351.219C444.4 351.942 443.388 352.848 442.251 353.78C441.115 354.712 439.854 355.67 438.523 356.575C437.192 357.48 435.791 358.332 434.39 359.113C432.989 359.894 431.589 360.604 430.057 361.233C428.526 361.863 426.865 362.413 425.034 362.875C423.203 363.336 421.201 363.709 419.185 363.904C417.168 364.1 415.136 364.118 413.328 364.076C411.519 364.035 409.934 363.935 408.406 363.709C406.877 363.483 405.406 363.132 403.891 362.755C402.377 362.379 400.82 361.977 399.306 361.626C397.792 361.275 396.32 360.974 394.749 360.735C393.178 360.497 391.509 360.321 389.952 360.258C388.395 360.196 386.952 360.246 385.437 360.421C383.923 360.597 382.338 360.898 380.881 361.262C379.423 361.626 378.093 362.053 376.72 362.554C375.347 363.056 373.932 363.634 372.573 364.273C371.215 364.913 369.913 365.616 368.537 366.446C367.161 367.276 365.712 368.234 364.107 369.246C362.502 370.257 360.74 371.322 359.199 372.351C357.658 373.38 356.337 374.374 355.117 375.474C353.896 376.574 352.775 377.781 351.754 379.094C350.734 380.407 349.813 381.827 349.132 383.122C348.452 384.418 348.012 385.589 347.631 386.866C347.251 388.144 346.931 389.528 346.631 390.965C346.33 392.403 346.05 393.893 345.77 395.118C345.49 396.342 345.21 397.3 344.909 398.152C344.609 399.004 344.289 399.749 343.869 400.405C343.449 401.062 342.928 401.63 342.248 402.322C341.567 403.014 340.727 403.83 339.666 404.593C338.605 405.356 337.325 406.066 335.764 406.776C334.203 407.485 332.361 408.195 330.44 408.905C328.519 409.615 326.517 410.325 322.479 411.684C318.44 413.043 312.363 415.052 308.674 416.257C304.985 417.462 303.683 417.864 302.48 418.115C301.277 418.366 300.173 418.466 298.772 418.504C297.371 418.541 295.673 418.517 294.116 418.466C292.56 418.416 291.145 418.341 290.083 418.215C289.022 418.09 288.314 417.914 287.493 417.651C286.673 417.387 285.739 417.036 284.805 416.634C283.871 416.233 282.937 415.781 281.861 415.166C280.786 414.552 279.568 413.774 278.5 412.927C277.431 412.08 276.512 411.164 275.592 410.21C274.672 409.257 273.752 408.265 272.846 407.312C271.941 406.358 271.049 405.442 270.165 404.627C269.28 403.811 268.403 403.096 267.582 402.475C266.761 401.853 265.997 401.326 265.105 400.781C264.214 400.235 263.195 399.67 262.212 399.212C261.228 398.754 260.28 398.403 259.353 398.114C258.426 397.825 257.52 397.6 256.473 397.443C255.426 397.286 254.237 397.198 253.147 397.167C252.058 397.135 251.067 397.16 249.892 397.311C248.718 397.461 247.359 397.737 245.902 398.07C244.444 398.402 242.887 398.791 241.5 399.143C240.113 399.494 238.896 399.808 237.566 400.128C236.236 400.448 234.793 400.774 232.925 401.113C231.057 401.452 228.764 401.803 226.471 402.054C224.179 402.305 221.886 402.455 218.985 402.506C216.084 402.556 212.575 402.505 208.952 402.493C205.329 402.48 201.593 402.506 199.13 402.581C196.668 402.656 195.479 402.781 193.874 402.974C192.269 403.167 190.247 403.428 188.055 403.806C185.863 404.185 183.501 404.682 181.06 405.249C178.618 405.817 176.096 406.456 173.294 407.237C170.492 408.017 167.41 408.94 164.348 409.916C161.286 410.892 158.244 411.921 155.142 412.968C152.04 414.015 148.878 415.08 145.635 416.233C142.393 417.387 139.071 418.629 127.468 423.136C115.865 427.642 95.9801 435.413 79.8111 441.709C63.6421 448.004 51.1896 452.822 44.7361 455.356C38.2828 457.891 37.83 458.142 37.2214 458.531C36.6129 458.92 35.8487 459.447 35.0562 460.087C34.2637 460.727 33.4429 461.48 32.6362 462.283C31.8294 463.086 31.037 463.939 30.3153 464.83C29.5936 465.721 28.9426 466.649 28.3906 467.679C27.8387 468.707 27.3858 469.837 27.1028 470.728C26.8198 471.619 26.7066 472.271 26.65 473.551C26.5934 474.831 26.5934 476.738 26.8766 478.457C27.1597 480.176 27.7258 481.707 28.3202 482.999C28.9146 484.292 29.5373 485.346 30.3016 486.362C31.0658 487.379 31.9715 488.357 32.9905 489.273C34.0094 490.189 35.1417 491.042 36.4153 491.82C37.689 492.598 39.1042 493.301 40.2646 493.815C41.425 494.33 42.3308 494.656 43.8309 494.856C45.331 495.057 47.4254 495.132 49.3924 495.132C51.3595 495.132 53.1991 495.057 55.0388 494.856C56.8786 494.656 58.7182 494.329 60.4731 493.94C62.228 493.551 63.8977 493.1 65.6243 492.485C67.3507 491.87 69.1337 491.092 70.9311 490.176C72.7282 489.26 74.5398 488.206 76.0188 487.219C77.498 486.232 78.6448 485.313 79.8187 484.303C80.9926 483.293 82.1933 482.192 83.4943 480.879C84.7952 479.566 86.1961 478.04 87.457 476.55C88.7178 475.059 89.8386 473.604 90.8392 472.291C91.8399 470.978 92.7205 469.807 93.6611 468.618C94.6018 467.429 95.6024 466.222 96.7432 465.033C97.884 463.844 99.1649 462.673 100.29 461.607C101.415 460.541 102.383 459.58 103.646 458.447C104.909 457.314 106.466 456.009 108.192 454.679C109.919 453.349 111.815 451.994 113.796 450.676C115.778 449.359 117.844 448.079 120.165 446.824C122.486 445.57 125.061 444.34 128.019 443.085C130.977 441.831 134.317 440.551 137.43 439.547C140.543 438.543 143.43 437.815 146.204 437.225C148.978 436.636 151.638 436.184 154.115 435.82C156.592 435.456 158.884 435.18 160.766 435.03C162.648 434.879 164.12 434.854 166.3 434.842C168.479 434.829 171.366 434.829 173.446 434.867C175.527 434.904 176.8 434.98 178.23 435.13C179.659 435.281 181.244 435.507 183.041 435.745C184.838 435.983 186.848 436.234 188.617 436.448C190.386 436.661 191.914 436.837 193.613 436.925C195.311 437.012 197.179 437.012 199.089 436.975C201 436.937 202.953 436.862 205.174 436.699C207.396 436.535 209.887 436.285 212.01 435.983C214.132 435.682 215.887 435.331 217.557 434.892C219.227 434.453 220.812 433.926 222.822 433.286C224.831 432.646 227.265 431.893 229.246 431.353C231.228 430.814 232.756 430.487 234.03 430.312C235.303 430.136 236.322 430.111 237.497 430.199C238.672 430.287 240.002 430.488 240.992 430.739C241.983 430.99 242.634 431.291 243.61 431.83C244.587 432.37 245.889 433.148 247.049 434.087C248.21 435.026 249.228 436.127 250.168 437.2C251.108 438.274 251.969 439.321 252.789 440.279C253.61 441.238 254.39 442.107 255.251 442.95C256.111 443.793 257.052 444.609 258.113 445.372C259.174 446.135 260.354 446.845 261.615 447.51C262.876 448.176 264.217 448.797 265.358 449.294C266.499 449.791 267.439 450.163 268.44 450.412C269.441 450.66 270.501 450.784 271.932 450.891C273.363 450.997 275.165 451.086 276.846 451.13C278.527 451.174 280.088 451.174 281.829 451.05C283.57 450.926 285.491 450.678 287.653 450.269C289.814 449.861 292.216 449.293 294.858 448.584C297.499 447.874 300.381 447.022 303.183 446.099C305.985 445.177 308.707 444.183 311.289 443.189C313.87 442.195 316.312 441.202 318.634 440.172C320.955 439.143 323.157 438.079 325.358 436.925C327.56 435.772 329.761 434.53 331.722 433.323C333.684 432.116 335.405 430.945 337.14 429.659C338.876 428.372 340.625 426.971 342.774 425.166C344.922 423.361 347.47 421.152 349.819 419.069C352.168 416.987 354.319 415.029 356.781 412.796C359.244 410.562 362.018 408.053 364.791 405.694C367.565 403.335 370.339 401.126 372.914 399.094C375.49 397.061 377.867 395.204 379.934 393.723C382 392.243 383.755 391.138 385.849 389.884C387.944 388.629 390.378 387.224 392.331 386.22C394.284 385.216 395.756 384.614 397.397 383.961C399.039 383.309 400.85 382.606 402.917 381.853C404.983 381.1 407.304 380.297 409.992 379.444C412.681 378.591 415.738 377.687 418.823 376.834C421.908 375.981 425.022 375.178 428.078 374.199C431.135 373.221 434.135 372.066 436.994 370.811C439.852 369.557 442.569 368.202 445.034 366.921C447.499 365.641 449.712 364.436 452.159 362.928C454.606 361.421 457.288 359.611 459.769 357.854C462.251 356.097 464.532 354.394 466.634 352.708C468.735 351.022 470.657 349.354 472.718 347.331C474.779 345.308 476.981 342.931 478.829 340.754C480.677 338.577 482.171 336.601 483.654 334.659C485.138 332.718 486.609 330.81 488.166 328.978C489.723 327.146 491.364 325.39 493.317 323.382C495.27 321.375 497.534 319.116 499.77 317.083C502.006 315.051 504.214 313.244 506.195 311.738C508.177 310.232 509.931 309.028 512.026 307.647C514.12 306.267 516.554 304.711 519.186 303.155C521.819 301.599 524.649 300.044 528.074 298.337C531.499 296.631 535.517 294.774 539.476 293.089C543.435 291.405 547.333 289.894 550.983 288.624C554.634 287.354 558.036 286.325 561.558 285.384C565.081 284.443 568.723 283.592 572.746 282.775C576.769 281.959 581.172 281.178 585.134 280.575C589.097 279.972 592.619 279.546 595.401 279.28C598.183 279.014 600.224 278.907 601.825 278.783C603.426 278.659 604.587 278.517 605.708 278.215C606.829 277.913 607.909 277.452 608.87 277.026C609.831 276.6 610.671 276.21 611.532 275.606C612.392 275.003 613.273 274.187 614.254 273.158C615.234 272.128 616.315 270.886 617.195 269.698C618.076 268.509 618.757 267.373 619.257 266.344C619.757 265.315 620.077 264.392 620.378 263.327C620.678 262.263 620.958 261.056 621.298 259.867C621.638 258.678 622.039 257.507 622.559 256.141C623.079 254.774 623.72 253.213 624.48 251.757C625.241 250.302 626.121 248.954 627.162 247.641C628.203 246.327 629.404 245.05 630.565 243.967C631.725 242.885 632.846 241.998 634.287 241.039C635.728 240.081 637.489 239.052 640.972 236.993C644.454 234.935 649.658 231.847 652.82 229.984C655.982 228.121 657.102 227.482 658.644 226.826C660.185 226.169 662.146 225.495 663.747 224.945C665.348 224.395 666.589 223.969 668.371 223.72C670.152 223.472 672.473 223.401 675.055 223.454C677.637 223.508 680.479 223.685 684.796 224.141C689.113 224.596 694.905 225.33 700.433 225.973C705.961 226.616 711.226 227.168 716.575 227.72C721.925 228.272 727.359 228.824 732.227 229.125C737.095 229.426 741.397 229.476 745.077 229.451C748.756 229.426 751.813 229.326 755.153 228.975C758.492 228.623 762.115 228.021 765.568 227.293C769.021 226.565 772.304 225.712 775.488 224.771C778.673 223.83 781.758 222.801 784.829 221.672C787.9 220.542 790.956 219.313 794.155 217.82C797.353 216.326 800.693 214.57 804.429 212.412C808.165 210.253 812.297 207.694 816.5 205.059C820.703 202.424 824.977 199.714 828.812 197.229C832.647 194.745 836.044 192.486 839.27 190.228C842.497 187.969 845.553 185.711 848.412 183.502C851.271 181.294 853.931 179.136 856.563 176.902C859.196 174.669 861.8 172.36 864.658 169.574C867.517 166.789 870.63 163.527 873.517 160.314C876.404 157.102 879.065 153.94 881.753 150.502C884.442 147.064 887.159 143.35 889.356 140.217C891.552 137.084 893.228 134.532 895.066 131.446C896.905 128.359 898.906 124.74 900.748 121.084C902.589 117.429 904.27 113.738 905.711 110.366C907.152 106.995 908.353 103.943 909.674 100.145C910.995 96.3478 912.436 91.8052 913.877 87.1916C915.318 82.5779 916.758 77.8932 917.995 73.8488C919.231 69.8043 920.262 66.4001 921.287 63.0166C922.312 59.6331 923.331 56.2704 924.01 53.8111C924.69 51.3518 925.029 49.796 925.114 48.2903C925.199 46.7847 925.03 45.3292 924.379 43.7231C923.728 42.117 922.596 40.3604 921.492 39.0052C920.388 37.65 919.313 36.6965 918.096 35.9184C916.879 35.1403 915.52 34.5381 913.822 34.1866C912.124 33.8352 910.086 33.7348 908.246 33.9355C906.406 34.1362 904.765 34.6381 902.302 35.9933C899.84 37.3485 896.556 39.5569 894.915 40.661C893.273 41.7652 893.273 41.764 876.857 51.1998Z" stroke="black" stroke-width="15.0001"/>
<path d="M778.728 133.298L748.284 104.526L735.992 114.751L766.436 143.522L778.728 133.298Z" fill="white"/>
<path d="M778.728 133.298L748.284 104.526L735.992 114.751L766.436 143.522L778.728 133.298Z" stroke="black" stroke-width="1.20347"/>
</svg>
