<svg width="1000" height="600" viewBox="0 0 1000 600" fill="none" xmlns="http://www.w3.org/2000/svg">
<rect width="1000" height="600" fill="white"/>
<g clip-path="url(#clip0_2_2)">
<path d="M873.899 544.687C869.06 544.804 843.767 543.127 839.565 542.943C836.627 542.815 799.106 537.935 799.106 537.935C769.936 538.591 740.775 539.768 711.598 539.902C623.961 540.305 536.272 538.642 448.665 539.545C426.356 539.774 404.163 542.971 381.85 543.301C346.076 543.829 322.208 546.334 292.284 546.274" stroke="white" stroke-width="4" stroke-linejoin="round"/>
<path fill-rule="evenodd" clip-rule="evenodd" d="M473.064 549.919C378.9 550.113 288.367 548.174 199.011 547.951C146.267 547.82 140.001 497.114 169.156 483.379C201.91 467.95 232.718 454.849 264.693 438.662C288.706 426.506 290.599 393.252 260.987 380.172C229.655 366.332 210.294 357.301 180.069 342.43C172.695 338.802 162.963 329.19 160.096 322.218C135.68 262.835 115.476 208.341 92.3555 148.178C85.3079 129.839 95.2461 112.941 118.711 105.964C136.77 100.595 144.796 97.9871 164.214 92.5492C181.617 87.6758 203.67 100.367 210.954 116.697C226.182 150.84 237.02 184.754 249.663 218.473C252.548 226.168 264.718 235.782 272.106 235.645C277.955 235.536 289.168 230.969 290.225 224.734C299.447 170.313 308.438 115.922 316.374 61.6048C317.991 50.5373 331.239 41.8039 340.464 38.3517C349.084 35.1261 361.879 36.6829 370.114 40.1404C378.351 43.5992 386.366 51.1227 389.88 59.1006C394.876 70.4406 394.506 83.456 399.763 94.8745C406.585 109.69 414.858 124.957 427.56 136.73C436.289 144.821 451.591 153.326 461.295 163.115C467.214 169.087 479.116 180.156 474.505 193.968C469.056 210.293 456.159 242.344 447.944 276.248C445.9 284.685 451.538 295.501 459.063 299.859C468.01 305.041 485.087 304.728 496.536 301.827C518.031 296.38 540.129 289.108 559.542 278.037C576.093 268.598 589.851 256.762 603.192 244.052C613.472 234.258 622.625 222.946 629.135 210.782C648.156 175.247 663.29 138.751 680.199 102.029C685.253 91.0521 693.946 77.1023 704.906 71.4426C711.556 68.0088 724.595 62.8879 732.085 62.8569C762.5 62.731 779.522 62.5498 810.327 63.0358C818.265 63.1618 832.8 70.9149 836.476 76.9876C852.751 103.875 867.014 125.332 884.245 151.04C888.891 157.972 889.312 173.824 881.98 181.269C845.447 218.365 818.505 247.466 780.677 284.119C769.891 294.57 763.085 313.195 771.618 324.543C815.612 383.049 851.937 437.752 902.158 497.152C919.018 517.094 902.077 546.927 873.95 547.057C738.057 547.687 610.605 549.636 473.064 549.919Z" stroke="white" stroke-width="12" stroke-linejoin="round"/>
<path fill-rule="evenodd" clip-rule="evenodd" d="M473.064 549.919C378.9 550.113 288.367 548.174 199.011 547.951C146.267 547.82 140.001 497.114 169.156 483.379C201.91 467.95 232.718 454.849 264.693 438.662C288.706 426.506 290.599 393.252 260.987 380.172C229.655 366.332 210.294 357.301 180.069 342.43C172.695 338.802 162.963 329.19 160.096 322.218C135.68 262.835 115.476 208.341 92.3555 148.178C85.3079 129.839 95.2461 112.941 118.711 105.964C136.77 100.595 144.796 97.9871 164.214 92.5492C181.617 87.6758 203.67 100.367 210.954 116.697C226.182 150.84 237.02 184.754 249.663 218.473C252.548 226.168 264.718 235.782 272.106 235.645C277.955 235.536 289.168 230.969 290.225 224.734C299.447 170.313 308.438 115.922 316.374 61.6048C317.991 50.5373 331.239 41.8039 340.464 38.3517C349.084 35.1261 361.879 36.6829 370.114 40.1404C378.351 43.5992 386.366 51.1227 389.88 59.1006C394.876 70.4406 394.506 83.456 399.763 94.8745C406.585 109.69 414.858 124.957 427.56 136.73C436.289 144.821 451.591 153.326 461.295 163.115C467.214 169.087 479.116 180.156 474.505 193.968C469.056 210.293 456.159 242.344 447.944 276.248C445.9 284.685 451.538 295.501 459.063 299.859C468.01 305.041 485.087 304.728 496.536 301.827C518.031 296.38 540.129 289.108 559.542 278.037C576.093 268.598 589.851 256.762 603.192 244.052C613.472 234.258 622.625 222.946 629.135 210.782C648.156 175.247 663.29 138.751 680.199 102.029C685.253 91.0521 693.946 77.1023 704.906 71.4426C711.556 68.0088 724.595 62.8879 732.085 62.8569C762.5 62.731 779.522 62.5498 810.327 63.0358C818.265 63.1618 832.8 70.9149 836.476 76.9876C852.751 103.875 867.014 125.332 884.245 151.04C888.891 157.972 889.312 173.824 881.98 181.269C845.447 218.365 818.505 247.466 780.677 284.119C769.891 294.57 763.085 313.195 771.618 324.543C815.612 383.049 851.937 437.752 902.158 497.152C919.018 517.094 902.077 546.927 873.95 547.057C738.057 547.687 610.605 549.636 473.064 549.919Z" stroke="black" stroke-width="10" stroke-linejoin="round"/>
<path d="M873.899 544.687C869.06 544.804 843.767 543.127 839.565 542.943C836.627 542.815 799.106 537.935 799.106 537.935C769.936 538.591 740.775 539.768 711.598 539.902C623.961 540.305 536.272 538.642 448.665 539.545C426.356 539.774 404.163 542.971 381.85 543.301C346.076 543.829 322.208 546.334 292.284 546.274" stroke="black" stroke-width="2" stroke-linejoin="round"/>
</g>
<defs>
<clipPath id="clip0_2_2">
<rect width="827" height="534" fill="white" transform="translate(86 33)"/>
</clipPath>
</defs>
</svg>
