<?xml version="1.0" encoding="UTF-8" standalone="no"?>
<!-- Created with Inkscape (http://www.inkscape.org/) -->
<svg
   xmlns:dc="http://purl.org/dc/elements/1.1/"
   xmlns:cc="http://web.resource.org/cc/"
   xmlns:rdf="http://www.w3.org/1999/02/22-rdf-syntax-ns#"
   xmlns:svg="http://www.w3.org/2000/svg"
   xmlns="http://www.w3.org/2000/svg"
   xmlns:xlink="http://www.w3.org/1999/xlink"
   xmlns:sodipodi="http://inkscape.sourceforge.net/DTD/sodipodi-0.dtd"
   xmlns:inkscape="http://www.inkscape.org/namespaces/inkscape"
   width="525"
   height="440"
   id="svg1557"
   sodipodi:version="0.32"
   inkscape:version="0.43"
   version="1.0"
   sodipodi:docbase="C:\Documents and Settings\Milind_Joshi01.ITLINFOSYS\Desktop"
   sodipodi:docname="GrandPrix_Circuit_Monaco_2006.svg">
  <defs
     id="defs1559">
    <linearGradient
       id="linearGradient1356">
      <stop
         style="stop-color:#ff0000;stop-opacity:1;"
         offset="0"
         id="stop1358" />
      <stop
         id="stop1364"
         offset="1"
         style="stop-color:#ffffd0;stop-opacity:1;" />
      <stop
         style="stop-color:#a08070;stop-opacity:0;"
         offset="1"
         id="stop1360" />
    </linearGradient>
    <linearGradient
       inkscape:collect="always"
       xlink:href="#linearGradient1356"
       id="linearGradient1362"
       x1="86.666664"
       y1="176"
       x2="79.907043"
       y2="185.66667"
       gradientUnits="userSpaceOnUse" />
    <linearGradient
       inkscape:collect="always"
       xlink:href="#linearGradient1356"
       id="linearGradient1368"
       gradientUnits="userSpaceOnUse"
       x1="86.666664"
       y1="176"
       x2="79.907043"
       y2="185.66667"
       gradientTransform="translate(-33.24038,56.54)" />
  </defs>
  <sodipodi:namedview
     id="base"
     pagecolor="#ffffff"
     bordercolor="#666666"
     borderopacity="1.0"
     inkscape:pageopacity="0.0"
     inkscape:pageshadow="2"
     inkscape:zoom="1"
     inkscape:cx="10.887097"
     inkscape:cy="245.48631"
     inkscape:document-units="px"
     inkscape:current-layer="layer1"
     inkscape:window-width="1024"
     inkscape:window-height="719"
     inkscape:window-x="-4"
     inkscape:window-y="-4" />
  <metadata
     id="metadata1562">
    <rdf:RDF>
      <cc:Work
         rdf:about="">
        <dc:format>image/svg+xml</dc:format>
        <dc:type
           rdf:resource="http://purl.org/dc/dcmitype/StillImage" />
        <dc:title>Monaco - Grand Prix - Racing Track</dc:title>
        <dc:date>18-JAN-2006</dc:date>
        <dc:creator>
          <cc:Agent>
            <dc:title>Milind Joshi</dc:title>
          </cc:Agent>
        </dc:creator>
        <dc:rights>
          <cc:Agent>
            <dc:title>Milind Joshi</dc:title>
          </cc:Agent>
        </dc:rights>
        <dc:publisher>
          <cc:Agent>
            <dc:title>Milind Joshi</dc:title>
          </cc:Agent>
        </dc:publisher>
        <dc:identifier>Monaco, Grand Prix, Formula 1,Racing Track</dc:identifier>
        <dc:subject>
          <rdf:Bag>
            <rdf:li>Monaco</rdf:li>
            <rdf:li>Grand Prix</rdf:li>
            <rdf:li>Formula 1</rdf:li>
            <rdf:li>Racing Track</rdf:li>
          </rdf:Bag>
        </dc:subject>
        <cc:license
           rdf:resource="http://creativecommons.org/licenses/by-nc-sa/2.0/" />
      </cc:Work>
      <cc:License
         rdf:about="http://creativecommons.org/licenses/by-nc-sa/2.0/">
        <cc:permits
           rdf:resource="http://web.resource.org/cc/Reproduction" />
        <cc:permits
           rdf:resource="http://web.resource.org/cc/Distribution" />
        <cc:requires
           rdf:resource="http://web.resource.org/cc/Notice" />
        <cc:requires
           rdf:resource="http://web.resource.org/cc/Attribution" />
        <cc:prohibits
           rdf:resource="http://web.resource.org/cc/CommercialUse" />
        <cc:permits
           rdf:resource="http://web.resource.org/cc/DerivativeWorks" />
        <cc:requires
           rdf:resource="http://web.resource.org/cc/ShareAlike" />
      </cc:License>
    </rdf:RDF>
  </metadata>
  <g
     inkscape:label="Layer 1"
     inkscape:groupmode="layer"
     id="layer1">
    <path
       style="fill:#ffffff;fill-opacity:1;fill-rule:nonzero;stroke:none;stroke-width:2.97906947;stroke-linejoin:miter;stroke-miterlimit:4;stroke-dasharray:2.97906946, 5.95813892;stroke-dashoffset:0;stroke-opacity:1;display:inline"
       d="M 1.2174894e-016,0 L 524.74487,0 L 524.74487,440 L 1.2174894e-016,440 L 1.2174894e-016,0 z "
       id="rect1309" />
    <path
       style="fill:#4682b4;fill-opacity:1;fill-rule:nonzero;stroke:#ffffff;stroke-width:2.99922895;stroke-linecap:round;stroke-linejoin:round;stroke-miterlimit:4;stroke-dashoffset:0;stroke-opacity:1;display:inline"
       d="M 30.580843,11.067226 L 496.99554,11.067226 C 511.5323,11.067226 523.23519,22.770106 523.23519,37.30687 L 523.23519,406.20536 C 523.23519,420.74212 511.5323,432.445 496.99554,432.445 L 30.580843,432.445 C 16.044082,432.445 4.341202,420.74212 4.341202,406.20536 L 4.341202,37.30687 C 4.341202,22.770106 16.044082,11.067226 30.580843,11.067226 z "
       id="rect1365" />
    <g
       id="g1554"
       style="fill:none;stroke:#1e90ff;stroke-opacity:1;display:inline"
       transform="translate(5e-6,-10)">
      <path
         id="path8926"
         d="M 74.96355,21.511998 L 74.96355,442.00023"
         style="fill:none;fill-opacity:0.75;fill-rule:evenodd;stroke:#1e90ff;stroke-width:1.49961448;stroke-linecap:butt;stroke-linejoin:miter;stroke-miterlimit:4;stroke-dasharray:none;stroke-opacity:1" />
      <path
         id="path8928"
         d="M 149.9271,22.261974 L 149.9271,442.75021"
         style="fill:none;fill-opacity:0.75;fill-rule:evenodd;stroke:#1e90ff;stroke-width:1.49961448;stroke-linecap:butt;stroke-linejoin:miter;stroke-miterlimit:4;stroke-dasharray:none;stroke-opacity:1;display:inline" />
      <path
         id="path8930"
         d="M 224.89065,22.261974 L 224.89065,442.75021"
         style="fill:none;fill-opacity:0.75;fill-rule:evenodd;stroke:#1e90ff;stroke-width:1.49961448;stroke-linecap:butt;stroke-linejoin:miter;stroke-miterlimit:4;stroke-dasharray:none;stroke-opacity:1;display:inline" />
      <path
         id="path8932"
         d="M 299.8542,21.262003 L 299.8542,441.75025"
         style="fill:none;fill-opacity:0.75;fill-rule:evenodd;stroke:#1e90ff;stroke-width:1.49961448;stroke-linecap:butt;stroke-linejoin:miter;stroke-miterlimit:4;stroke-dasharray:none;stroke-opacity:1;display:inline" />
      <path
         id="path8934"
         d="M 374.81775,21.761991 L 374.81775,442.25023"
         style="fill:none;fill-opacity:0.75;fill-rule:evenodd;stroke:#1e90ff;stroke-width:1.49961448;stroke-linecap:butt;stroke-linejoin:miter;stroke-miterlimit:4;stroke-dasharray:none;stroke-opacity:1;display:inline" />
      <path
         id="path8936"
         d="M 449.7813,21.761981 L 449.7813,442.25023"
         style="fill:none;fill-opacity:0.75;fill-rule:evenodd;stroke:#1e90ff;stroke-width:1.49961448;stroke-linecap:butt;stroke-linejoin:miter;stroke-miterlimit:4;stroke-dasharray:none;stroke-opacity:1;display:inline" />
      <path
         id="path8938"
         d="M 4.99757,75.510481 L 522.74583,75.510481"
         style="fill:none;fill-opacity:0.75;fill-rule:evenodd;stroke:#1e90ff;stroke-width:1.49961448px;stroke-linecap:round;stroke-linejoin:miter;stroke-opacity:1" />
      <path
         id="path8940"
         d="M 4.4978081,150.50838 L 522.24607,150.50838"
         style="fill:none;fill-opacity:0.75;fill-rule:evenodd;stroke:#1e90ff;stroke-width:1.49961448px;stroke-linecap:round;stroke-linejoin:miter;stroke-opacity:1;display:inline" />
      <path
         id="path8942"
         d="M 4.997568,225.35629 L 522.74583,225.35629"
         style="fill:none;fill-opacity:0.75;fill-rule:evenodd;stroke:#1e90ff;stroke-width:1.49961448px;stroke-linecap:round;stroke-linejoin:miter;stroke-opacity:1;display:inline" />
      <path
         id="path8944"
         d="M 4.6977138,300.65418 L 522.44597,300.65418"
         style="fill:none;fill-opacity:0.75;fill-rule:evenodd;stroke:#1e90ff;stroke-width:1.49961448px;stroke-linecap:round;stroke-linejoin:miter;stroke-opacity:1;display:inline" />
      <path
         id="path8946"
         d="M 4.997565,375.50208 L 522.74583,375.50208"
         style="fill:none;fill-opacity:0.75;fill-rule:evenodd;stroke:#1e90ff;stroke-width:1.49961448px;stroke-linecap:round;stroke-linejoin:miter;stroke-opacity:1;display:inline" />
    </g>
    <path
       style="fill:none;fill-opacity:1;fill-rule:nonzero;stroke:#1e90ff;stroke-width:2.99922895;stroke-linecap:round;stroke-linejoin:round;stroke-miterlimit:4;stroke-dashoffset:0;stroke-opacity:1;display:inline"
       d="M 30.580843,11.067226 L 496.99554,11.067226 C 511.5323,11.067226 523.23519,22.770106 523.23519,37.30687 L 523.23519,406.20536 C 523.23519,420.74212 511.5323,432.445 496.99554,432.445 L 30.580843,432.445 C 16.044082,432.445 4.341202,420.74212 4.341202,406.20536 L 4.341202,37.30687 C 4.341202,22.770106 16.044082,11.067226 30.580843,11.067226 z "
       id="rect8948" />
    <path
       style="fill:#ffffd0;fill-opacity:1;fill-rule:evenodd;stroke:#a08070;stroke-width:10.49729919;stroke-linecap:round;stroke-linejoin:round;stroke-miterlimit:4;stroke-dasharray:none;stroke-opacity:1;display:inline"
       d="M 187.17997,191.68837 C 204.87409,195.27042 222.14189,199.87211 238.14421,208.18516 C 254.70335,212.89083 268.01858,205.27596 284.98458,212.90332 C 304.56435,220.43129 326.87667,230.73917 348.49052,225.58467 C 370.66172,219.90397 374.09263,191.44533 365.50682,174.92374 C 358.16021,154.52106 373.01475,150.82623 376.34337,148.07392 C 392.5648,138.79793 437.67212,122.17219 452.85915,111.92433 C 473.07653,115.53592 456.94691,133.58894 458.23715,149.98681 C 459.71497,168.76875 463.63254,180.45486 472.03044,167.9863 C 473.32194,155.00284 456.84353,127.16219 483.42489,133.78727 C 505.8039,131.44439 514.79998,153.95022 496.74758,165.76471 C 483.33569,186.03917 488.24988,180.6192 482.92707,187.40173 C 473.3979,203.32647 451.35564,231.8804 422.02835,244.85449 C 395.11026,256.76277 352.01284,245.65112 336.00088,247.7849 C 315.33513,248.02855 313.61802,244.99529 293.54728,241.08619 C 280.59778,238.74962 259.9701,219.48919 251.25333,231.63542 C 254.15137,244.85182 229.25207,238.00592 233.34654,226.18465 C 218.11678,221.90793 153.02166,194.1555 133.93337,190.34356 C 114.39944,191.76046 106.19599,212.10989 94.813935,224.98469 C 79.733105,245.4326 95.610295,241.57948 95.623995,262.59805 C 86.067175,281.39384 90.532275,283.05471 80.420935,309.58229 C 71.921045,313.78725 72.470405,305.28492 59.032052,315.17266 C 55.75793,324.56595 42.739658,391.93323 77.842485,393.21697 C 80.051655,393.29917 80.681095,401.99388 77.053965,402.75578 C 67.694388,404.72184 50.101639,399.18231 39.640771,389.98002 C 38.471122,339.12301 36.789711,251.68974 106.83833,180.46458 C 109.24453,171.02032 110.34705,160.34074 127.8973,172.16761 C 139.53936,180.01303 167.95511,186.00079 187.17997,191.68837 z "
       id="path3270"
       sodipodi:nodetypes="ccccccczccccscccccccccssccsc" />
    <path
       style="fill:none;fill-opacity:0.75;fill-rule:evenodd;stroke:#ff0000;stroke-width:8.0979166;stroke-linecap:round;stroke-linejoin:round;stroke-miterlimit:4;stroke-dasharray:none;stroke-opacity:1;display:inline"
       d="M 336.00088,247.7849 C 315.33513,248.02855 313.61802,244.99529 293.54728,241.08619 C 280.59778,238.74962 259.9701,219.48919 251.25333,231.63542 C 254.15137,244.85182 229.25207,238.00592 233.34654,226.18465 C 218.11678,221.90793 153.02166,194.1555 133.93337,190.34356 C 114.39944,191.76046 106.19599,212.10989 94.813935,224.98469 C 79.733105,245.4326 95.610295,241.57948 95.623995,262.59805 C 86.067175,281.39384 90.532275,283.05471 80.420935,309.58229 C 71.921045,313.78725 72.470405,305.28492 59.032052,315.17266 C 55.75793,324.56595 42.739658,391.93323 77.842485,393.21697 C 80.051655,393.29917 80.681095,401.99388 77.053965,402.75578 C 67.694388,404.72184 50.101639,399.18231 39.640771,389.98002 C 38.471122,339.12301 36.789711,251.68974 106.83833,180.46458 C 109.24453,171.02032 110.34705,160.34074 127.8973,172.16761 C 139.53936,180.01303 167.95511,186.00079 187.17997,191.68837 C 204.87409,195.27042 222.14189,199.87211 238.14421,208.18516 C 254.70335,212.89083 268.01858,205.27596 284.98458,212.90332 C 304.56435,220.43129 326.87667,230.73917 348.49052,225.58467 C 370.66172,219.90397 374.09263,191.44533 365.50682,174.92374 C 358.16021,154.52106 373.01475,150.82623 376.34337,148.07392 C 392.5648,138.79793 437.67212,122.17219 452.85915,111.92433 C 473.07653,115.53592 456.94691,133.58894 458.23715,149.98681 C 459.71497,168.76875 463.63254,180.45486 472.03044,167.9863 C 473.32194,155.00284 456.84353,127.16219 483.42489,133.78727 C 505.8039,131.44439 514.79998,153.95022 496.74758,165.76471 C 483.33569,186.03917 488.24988,180.6192 482.92707,187.40173"
       id="path3273" />
    <path
       style="fill:none;fill-opacity:0.75;fill-rule:evenodd;stroke:#ffffd0;stroke-width:7.49807024;stroke-linecap:round;stroke-linejoin:round;stroke-miterlimit:4;stroke-dasharray:none;stroke-opacity:1;display:inline"
       d="M 482.92707,187.40173 C 473.3979,203.32647 451.35564,231.8804 422.02835,244.85449 C 395.11026,256.76277 352.01284,245.65112 336.00088,247.7849"
       id="path3275" />
    <path
       transform="matrix(1.499271,0,0,1.499958,0.659735,-1.2089)"
       style="fill:#ffffff;fill-opacity:1;stroke:none;display:inline"
       d="M 28.697266,34.641357 C 27.90429,34.95581 27.170567,35.113037 26.496094,35.113037 C 25.320308,35.113037 24.267575,34.737061 23.337891,33.985107 C 22.152994,33.023521 21.560546,31.770267 21.560547,30.225342 C 21.560546,28.675869 22.152994,27.420336 23.337891,26.45874 C 24.267575,25.706796 25.327144,25.33082 26.516602,25.330811 C 27.163731,25.33082 27.890618,25.488046 28.697266,25.80249 L 28.697266,28.707764 C 28.469394,28.429775 28.236972,28.22014 28,28.078857 C 27.567051,27.819099 27.102207,27.689216 26.605469,27.689209 C 25.976558,27.689216 25.429683,27.878344 24.964844,28.256592 C 24.37695,28.735114 24.083005,29.391363 24.083008,30.225342 C 24.083005,31.054773 24.37695,31.708743 24.964844,32.187256 C 25.429683,32.565513 25.976558,32.754641 26.605469,32.754639 C 27.102207,32.754641 27.567051,32.624758 28,32.36499 C 28.232415,32.228274 28.464836,32.018639 28.697266,31.736084 L 28.697266,34.641357 M 32.402344,26.075928 C 32.402341,26.431405 32.279294,26.732186 32.033203,26.978271 C 31.791664,27.219816 31.493162,27.340584 31.137695,27.340576 C 30.786782,27.340584 30.48828,27.217537 30.242188,26.971436 C 30.00065,26.72535 29.879882,26.426848 29.879883,26.075928 C 29.879882,25.725025 30.00065,25.428802 30.242188,25.187256 C 30.48828,24.941172 30.786782,24.818125 31.137695,24.818115 C 31.488605,24.818125 31.787107,24.941172 32.033203,25.187256 C 32.279294,25.428802 32.402341,25.725025 32.402344,26.075928 M 32.258789,34.860107 L 30.016602,34.860107 L 30.016602,28.516357 L 32.258789,28.516357 L 32.258789,34.860107 M 38.554688,30.587646 C 38.240229,30.43726 37.921219,30.362065 37.597656,30.362061 C 36.859371,30.362065 36.380856,30.662846 36.162109,31.264404 C 36.080075,31.483158 36.039059,31.777103 36.039063,32.14624 L 36.039063,34.860107 L 33.796875,34.860107 L 33.796875,28.516357 L 36.039063,28.516357 L 36.039063,29.55542 C 36.276038,29.186285 36.531247,28.919684 36.804688,28.755615 C 37.173824,28.536872 37.611324,28.427497 38.117188,28.42749 C 38.235672,28.427497 38.381505,28.434333 38.554688,28.447998 L 38.554688,30.587646 M 44.351563,34.723389 C 43.886714,34.95581 43.399084,35.072021 42.888672,35.072021 C 41.731117,35.072021 40.812824,34.680095 40.133789,33.89624 C 39.586913,33.262778 39.313476,32.529055 39.313477,31.695068 C 39.313476,30.856531 39.586913,30.122807 40.133789,29.493896 C 40.812824,28.710048 41.731117,28.318122 42.888672,28.318115 C 43.408199,28.318122 43.895828,28.436611 44.351563,28.673584 L 44.351563,30.580811 C 43.955073,30.30282 43.567704,30.163823 43.189453,30.163818 C 42.742835,30.163823 42.373694,30.307378 42.082031,30.594482 C 41.790362,30.881596 41.644528,31.248457 41.644531,31.695068 C 41.644528,32.141686 41.790362,32.508547 42.082031,32.795654 C 42.373694,33.082765 42.742835,33.22632 43.189453,33.226318 C 43.563146,33.22632 43.950516,33.089601 44.351563,32.816162 L 44.351563,34.723389 M 52.397461,32.542725 C 52.397453,33.723064 51.839186,34.506918 50.722656,34.894287 C 50.257807,35.053792 49.690425,35.133545 49.020508,35.133545 C 47.703448,35.133545 46.757811,34.809977 46.183594,34.162842 C 45.819009,33.752687 45.636718,33.212648 45.636719,32.542725 L 45.636719,28.516357 L 47.878906,28.516357 L 47.878906,32.112061 C 47.878903,32.508547 47.974606,32.800214 48.166016,32.987061 C 48.37109,33.187583 48.655921,33.287843 49.020508,33.287842 C 49.380529,33.287843 49.663081,33.187583 49.868164,32.987061 C 50.059565,32.800214 50.155268,32.508547 50.155273,32.112061 L 50.155273,28.516357 L 52.397461,28.516357 L 52.397461,32.542725 M 56.300781,26.075928 C 56.300778,26.431405 56.177731,26.732186 55.931641,26.978271 C 55.690102,27.219816 55.391599,27.340584 55.036133,27.340576 C 54.68522,27.340584 54.386718,27.217537 54.140625,26.971436 C 53.899088,26.72535 53.77832,26.426848 53.77832,26.075928 C 53.77832,25.725025 53.899088,25.428802 54.140625,25.187256 C 54.386718,24.941172 54.68522,24.818125 55.036133,24.818115 C 55.387042,24.818125 55.685544,24.941172 55.931641,25.187256 C 56.177731,25.428802 56.300778,25.725025 56.300781,26.075928 M 56.157227,34.860107 L 53.915039,34.860107 L 53.915039,28.516357 L 56.157227,28.516357 L 56.157227,34.860107 M 61.475586,30.362061 L 60.197266,30.362061 L 60.197266,34.860107 L 57.955078,34.860107 L 57.955078,30.362061 L 57.216797,30.362061 L 57.216797,28.516357 L 57.955078,28.516357 L 57.955078,26.609131 L 60.197266,26.609131 L 60.197266,28.516357 L 61.475586,28.516357 L 61.475586,30.362061 M 73.349609,34.860107 L 71.107422,34.860107 L 71.107422,34.156006 C 70.893224,34.424887 70.676753,34.62085 70.458008,34.743896 C 70.075191,34.958089 69.63997,35.065185 69.152344,35.065186 C 68.363929,35.065185 67.662107,34.794027 67.046875,34.251709 C 66.31315,33.604575 65.946289,32.747805 65.946289,31.681396 C 65.946289,30.596765 66.322265,29.730881 67.074219,29.08374 C 67.671222,28.568773 68.357093,28.311286 69.131836,28.311279 C 69.583004,28.311286 70.006831,28.406989 70.40332,28.598389 C 70.63118,28.70777 70.86588,28.887783 71.107422,29.138428 L 71.107422,24.592529 L 73.349609,24.592529 L 73.349609,34.860107 M 71.175781,31.688232 C 71.175776,31.287194 71.0345,30.947676 70.751953,30.669678 C 70.469396,30.38713 70.127599,30.245854 69.726563,30.24585 C 69.279944,30.245854 68.913082,30.414474 68.625977,30.751709 C 68.393552,31.02515 68.277341,31.337324 68.277344,31.688232 C 68.277341,32.039147 68.393552,32.351321 68.625977,32.624756 C 68.908525,32.961997 69.275387,33.130617 69.726563,33.130615 C 70.132157,33.130617 70.473953,32.99162 70.751953,32.713623 C 71.0345,32.435631 71.175776,32.093834 71.175781,31.688232 M 81.62793,32.098389 L 76.911133,32.098389 C 76.91113,33.050864 77.371416,33.527101 78.291992,33.5271 C 78.761389,33.527101 79.121414,33.32658 79.37207,32.925537 L 81.539063,32.925537 C 81.365878,33.499757 81.11067,33.944093 80.773438,34.258545 C 80.162754,34.828206 79.344721,35.113037 78.319336,35.113037 C 77.015948,35.113037 76.036131,34.716553 75.379883,33.923584 C 74.887695,33.331138 74.641601,32.608808 74.641602,31.756592 C 74.641601,30.744877 74.949218,29.922287 75.564453,29.288818 C 76.179685,28.655361 77.047849,28.33863 78.168945,28.338623 C 79.549799,28.33863 80.536452,28.839931 81.128906,29.842529 C 81.461581,30.407638 81.627922,31.063887 81.62793,31.811279 L 81.62793,32.098389 M 79.536133,30.813232 C 79.376622,30.111414 78.950516,29.760503 78.257813,29.760498 C 77.874996,29.760503 77.565101,29.872157 77.328125,30.095459 C 77.141273,30.273198 77.022784,30.512456 76.972656,30.813232 L 79.536133,30.813232 M 98.280273,34.860107 L 95.853516,34.860107 L 95.163086,29.487061 L 92.907227,34.860107 L 91.943359,34.860107 L 89.790039,29.487061 L 88.99707,34.860107 L 86.583984,34.860107 L 88.169922,25.529053 L 90.5625,25.529053 L 92.456055,30.505615 L 94.458984,25.529053 L 96.87207,25.529053 L 98.280273,34.860107 M 106.99609,31.688232 C 106.99609,32.567792 106.7067,33.322023 106.12793,33.950928 C 105.4261,34.716553 104.444,35.099365 103.18164,35.099365 C 101.91471,35.099365 100.93034,34.716553 100.22852,33.950928 C 99.649739,33.322023 99.360351,32.549563 99.360352,31.633545 C 99.360351,30.808679 99.652017,30.077235 100.23535,29.439209 C 100.94173,28.669033 101.94661,28.283942 103.25,28.283936 C 104.44856,28.283942 105.40559,28.669033 106.12109,29.439209 C 106.70442,30.06812 106.99609,30.817794 106.99609,31.688232 M 104.66504,31.688232 C 104.66503,31.27808 104.5192,30.931726 104.22754,30.64917 C 103.94042,30.362065 103.59179,30.218511 103.18164,30.218506 C 102.71679,30.218511 102.33854,30.391687 102.04688,30.738037 C 101.80989,31.016036 101.6914,31.332767 101.69141,31.688232 C 101.6914,32.048261 101.80989,32.367271 102.04688,32.645264 C 102.33854,32.99162 102.71679,33.164797 103.18164,33.164795 C 103.59635,33.164797 103.94726,33.023521 104.23438,32.740967 C 104.52148,32.45386 104.66503,32.102949 104.66504,31.688232 M 114.97363,34.860107 L 112.73145,34.860107 L 112.73145,31.647217 C 112.73144,31.086674 112.66764,30.715255 112.54004,30.532959 C 112.35319,30.264083 112.07291,30.129643 111.69922,30.129639 C 111.35742,30.129643 111.07031,30.245854 110.83789,30.478271 C 110.62825,30.687911 110.52343,31.016036 110.52344,31.462646 L 110.52344,34.860107 L 108.28125,34.860107 L 108.28125,28.516357 L 110.52344,28.516357 L 110.52344,29.316162 C 110.7832,29.015387 111.02246,28.803473 111.24121,28.68042 C 111.59668,28.479905 112.04101,28.379645 112.57422,28.379639 C 113.25781,28.379645 113.8138,28.564215 114.24219,28.93335 C 114.72981,29.352626 114.97363,29.981532 114.97363,30.820068 L 114.97363,34.860107 M 123.66211,34.860107 L 121.41992,34.860107 L 121.41992,34.156006 C 121.20572,34.424887 120.98925,34.62085 120.77051,34.743896 C 120.38769,34.958089 119.95247,35.065185 119.46484,35.065186 C 118.67643,35.065185 117.97461,34.794027 117.35938,34.251709 C 116.62565,33.604575 116.25879,32.747805 116.25879,31.681396 C 116.25879,30.596765 116.63476,29.730881 117.38672,29.08374 C 117.98372,28.568773 118.66959,28.311286 119.44434,28.311279 C 119.8955,28.311286 120.31933,28.406989 120.71582,28.598389 C 120.94368,28.70777 121.17838,28.887783 121.41992,29.138428 L 121.41992,28.516357 L 123.66211,28.516357 L 123.66211,34.860107 M 121.48828,31.688232 C 121.48828,31.287194 121.347,30.947676 121.06445,30.669678 C 120.7819,30.38713 120.4401,30.245854 120.03906,30.24585 C 119.59244,30.245854 119.22558,30.414474 118.93848,30.751709 C 118.70605,31.02515 118.58984,31.337324 118.58984,31.688232 C 118.58984,32.039147 118.70605,32.351321 118.93848,32.624756 C 119.22103,32.961997 119.58789,33.130617 120.03906,33.130615 C 120.44466,33.130617 120.78645,32.99162 121.06445,32.713623 C 121.347,32.435631 121.48828,32.093834 121.48828,31.688232 M 129.99219,34.723389 C 129.52734,34.95581 129.03971,35.072021 128.5293,35.072021 C 127.37174,35.072021 126.45345,34.680095 125.77441,33.89624 C 125.22754,33.262778 124.9541,32.529055 124.9541,31.695068 C 124.9541,30.856531 125.22754,30.122807 125.77441,29.493896 C 126.45345,28.710048 127.37174,28.318122 128.5293,28.318115 C 129.04882,28.318122 129.53645,28.436611 129.99219,28.673584 L 129.99219,30.580811 C 129.5957,30.30282 129.20833,30.163823 128.83008,30.163818 C 128.38346,30.163823 128.01432,30.307378 127.72266,30.594482 C 127.43099,30.881596 127.28515,31.248457 127.28516,31.695068 C 127.28515,32.141686 127.43099,32.508547 127.72266,32.795654 C 128.01432,33.082765 128.38346,33.22632 128.83008,33.226318 C 129.20377,33.22632 129.59114,33.089601 129.99219,32.816162 L 129.99219,34.723389 M 138.66016,31.688232 C 138.66015,32.567792 138.37076,33.322023 137.79199,33.950928 C 137.09016,34.716553 136.10807,35.099365 134.8457,35.099365 C 133.57877,35.099365 132.5944,34.716553 131.89258,33.950928 C 131.3138,33.322023 131.02441,32.549563 131.02441,31.633545 C 131.02441,30.808679 131.31608,30.077235 131.89941,29.439209 C 132.60579,28.669033 133.61067,28.283942 134.91406,28.283936 C 136.11262,28.283942 137.06965,28.669033 137.78516,29.439209 C 138.36848,30.06812 138.66015,30.817794 138.66016,31.688232 M 136.3291,31.688232 C 136.3291,31.27808 136.18326,30.931726 135.8916,30.64917 C 135.60449,30.362065 135.25585,30.218511 134.8457,30.218506 C 134.38086,30.218511 134.0026,30.391687 133.71094,30.738037 C 133.47396,31.016036 133.35547,31.332767 133.35547,31.688232 C 133.35547,32.048261 133.47396,32.367271 133.71094,32.645264 C 134.0026,32.99162 134.38086,33.164797 134.8457,33.164795 C 135.26041,33.164797 135.61132,33.023521 135.89844,32.740967 C 136.18554,32.45386 136.3291,32.102949 136.3291,31.688232 M 141.72949,33.5271 L 140.80664,35.741943 L 139.69922,35.741943 L 140.28711,33.5271 L 141.72949,33.5271 M 158.40918,34.860107 L 155.98242,34.860107 L 155.29199,29.487061 L 153.03613,34.860107 L 152.07227,34.860107 L 149.91895,29.487061 L 149.12598,34.860107 L 146.71289,34.860107 L 148.29883,25.529053 L 150.69141,25.529053 L 152.58496,30.505615 L 154.58789,25.529053 L 157.00098,25.529053 L 158.40918,34.860107 M 167.125,31.688232 C 167.12499,32.567792 166.8356,33.322023 166.25684,33.950928 C 165.55501,34.716553 164.57291,35.099365 163.31055,35.099365 C 162.04362,35.099365 161.05924,34.716553 160.35742,33.950928 C 159.77865,33.322023 159.48926,32.549563 159.48926,31.633545 C 159.48926,30.808679 159.78092,30.077235 160.36426,29.439209 C 161.07064,28.669033 162.07552,28.283942 163.37891,28.283936 C 164.57747,28.283942 165.5345,28.669033 166.25,29.439209 C 166.83333,30.06812 167.12499,30.817794 167.125,31.688232 M 164.79395,31.688232 C 164.79394,31.27808 164.64811,30.931726 164.35645,30.64917 C 164.06933,30.362065 163.7207,30.218511 163.31055,30.218506 C 162.8457,30.218511 162.46744,30.391687 162.17578,30.738037 C 161.9388,31.016036 161.82031,31.332767 161.82031,31.688232 C 161.82031,32.048261 161.9388,32.367271 162.17578,32.645264 C 162.46744,32.99162 162.8457,33.164797 163.31055,33.164795 C 163.72526,33.164797 164.07617,33.023521 164.36328,32.740967 C 164.65038,32.45386 164.79394,32.102949 164.79395,31.688232 M 175.10254,34.860107 L 172.86035,34.860107 L 172.86035,31.647217 C 172.86035,31.086674 172.79654,30.715255 172.66895,30.532959 C 172.48209,30.264083 172.20182,30.129643 171.82813,30.129639 C 171.48632,30.129643 171.19922,30.245854 170.9668,30.478271 C 170.75716,30.687911 170.65234,31.016036 170.65234,31.462646 L 170.65234,34.860107 L 168.41016,34.860107 L 168.41016,28.516357 L 170.65234,28.516357 L 170.65234,29.316162 C 170.91211,29.015387 171.15136,28.803473 171.37012,28.68042 C 171.72558,28.479905 172.16992,28.379645 172.70313,28.379639 C 173.38671,28.379645 173.9427,28.564215 174.37109,28.93335 C 174.85872,29.352626 175.10253,29.981532 175.10254,30.820068 L 175.10254,34.860107 M 183.79102,34.860107 L 181.54883,34.860107 L 181.54883,34.156006 C 181.33463,34.424887 181.11816,34.62085 180.89941,34.743896 C 180.5166,34.958089 180.08138,35.065185 179.59375,35.065186 C 178.80534,35.065185 178.10351,34.794027 177.48828,34.251709 C 176.75456,33.604575 176.38769,32.747805 176.3877,31.681396 C 176.38769,30.596765 176.76367,29.730881 177.51563,29.08374 C 178.11263,28.568773 178.7985,28.311286 179.57324,28.311279 C 180.02441,28.311286 180.44824,28.406989 180.84473,28.598389 C 181.07259,28.70777 181.30729,28.887783 181.54883,29.138428 L 181.54883,28.516357 L 183.79102,28.516357 L 183.79102,34.860107 M 181.61719,31.688232 C 181.61718,31.287194 181.47591,30.947676 181.19336,30.669678 C 180.9108,30.38713 180.56901,30.245854 180.16797,30.24585 C 179.72135,30.245854 179.35449,30.414474 179.06738,30.751709 C 178.83496,31.02515 178.71875,31.337324 178.71875,31.688232 C 178.71875,32.039147 178.83496,32.351321 179.06738,32.624756 C 179.34993,32.961997 179.71679,33.130617 180.16797,33.130615 C 180.57356,33.130617 180.91536,32.99162 181.19336,32.713623 C 181.47591,32.435631 181.61718,32.093834 181.61719,31.688232 M 190.12109,34.723389 C 189.65624,34.95581 189.16862,35.072021 188.6582,35.072021 C 187.50065,35.072021 186.58235,34.680095 185.90332,33.89624 C 185.35644,33.262778 185.08301,32.529055 185.08301,31.695068 C 185.08301,30.856531 185.35644,30.122807 185.90332,29.493896 C 186.58235,28.710048 187.50065,28.318122 188.6582,28.318115 C 189.17773,28.318122 189.66536,28.436611 190.12109,28.673584 L 190.12109,30.580811 C 189.7246,30.30282 189.33723,30.163823 188.95898,30.163818 C 188.51237,30.163823 188.14323,30.307378 187.85156,30.594482 C 187.55989,30.881596 187.41406,31.248457 187.41406,31.695068 C 187.41406,32.141686 187.55989,32.508547 187.85156,32.795654 C 188.14323,33.082765 188.51237,33.22632 188.95898,33.226318 C 189.33268,33.22632 189.72005,33.089601 190.12109,32.816162 L 190.12109,34.723389 M 198.78906,31.688232 C 198.78905,32.567792 198.49967,33.322023 197.9209,33.950928 C 197.21907,34.716553 196.23697,35.099365 194.97461,35.099365 C 193.70768,35.099365 192.72331,34.716553 192.02148,33.950928 C 191.44271,33.322023 191.15332,32.549563 191.15332,31.633545 C 191.15332,30.808679 191.44499,30.077235 192.02832,29.439209 C 192.7347,28.669033 193.73958,28.283942 195.04297,28.283936 C 196.24153,28.283942 197.19856,28.669033 197.91406,29.439209 C 198.49739,30.06812 198.78905,30.817794 198.78906,31.688232 M 196.45801,31.688232 C 196.458,31.27808 196.31217,30.931726 196.02051,30.64917 C 195.73339,30.362065 195.38476,30.218511 194.97461,30.218506 C 194.50976,30.218511 194.13151,30.391687 193.83984,30.738037 C 193.60286,31.016036 193.48437,31.332767 193.48438,31.688232 C 193.48437,32.048261 193.60286,32.367271 193.83984,32.645264 C 194.13151,32.99162 194.50976,33.164797 194.97461,33.164795 C 195.38932,33.164797 195.74023,33.023521 196.02734,32.740967 C 196.31445,32.45386 196.458,32.102949 196.45801,31.688232"
       id="flowRoot2292" />
    <path
       transform="matrix(0.818988,-0.428751,0.421013,0.836101,-13.68028,197.1903)"
       style="display:inline;fill:#a08070;fill-opacity:1"
       d="M 393.50781,245.21558 L 391.49805,245.21558 L 391.49805,252.51636 L 389.07129,252.51636 L 389.07129,245.21558 L 387.0957,245.21558 L 387.0957,243.1853 L 393.50781,243.1853 L 393.50781,245.21558 M 401.11621,250.19897 C 401.1162,251.37931 400.55794,252.16317 399.44141,252.55054 C 398.97656,252.71004 398.40917,252.78979 397.73926,252.78979 C 396.4222,252.78979 395.47656,252.46623 394.90234,251.81909 C 394.53776,251.40894 394.35547,250.8689 394.35547,250.19897 L 394.35547,246.17261 L 396.59766,246.17261 L 396.59766,249.76831 C 396.59765,250.1648 396.69336,250.45646 396.88477,250.64331 C 397.08984,250.84383 397.37467,250.94409 397.73926,250.94409 C 398.09928,250.94409 398.38183,250.84383 398.58691,250.64331 C 398.77832,250.45646 398.87402,250.1648 398.87402,249.76831 L 398.87402,246.17261 L 401.11621,246.17261 L 401.11621,250.19897 M 409.33301,252.51636 L 407.09082,252.51636 L 407.09082,249.30347 C 407.09082,248.74292 407.02701,248.3715 406.89941,248.18921 C 406.71256,247.92033 406.43229,247.78589 406.05859,247.78589 C 405.71679,247.78589 405.42968,247.9021 405.19727,248.13452 C 404.98763,248.34416 404.88281,248.67229 404.88281,249.1189 L 404.88281,252.51636 L 402.64063,252.51636 L 402.64063,246.17261 L 404.88281,246.17261 L 404.88281,246.97241 C 405.14257,246.67164 405.38183,246.45972 405.60059,246.33667 C 405.95605,246.13616 406.40039,246.0359 406.93359,246.03589 C 407.61718,246.0359 408.17317,246.22047 408.60156,246.5896 C 409.08919,247.00888 409.333,247.63778 409.33301,248.47632 L 409.33301,252.51636 M 417.56348,252.51636 L 415.32129,252.51636 L 415.32129,249.30347 C 415.32128,248.74292 415.25748,248.3715 415.12988,248.18921 C 414.94303,247.92033 414.66276,247.78589 414.28906,247.78589 C 413.94726,247.78589 413.66015,247.9021 413.42773,248.13452 C 413.2181,248.34416 413.11328,248.67229 413.11328,249.1189 L 413.11328,252.51636 L 410.87109,252.51636 L 410.87109,246.17261 L 413.11328,246.17261 L 413.11328,246.97241 C 413.37304,246.67164 413.6123,246.45972 413.83105,246.33667 C 414.18652,246.13616 414.63085,246.0359 415.16406,246.03589 C 415.84765,246.0359 416.40364,246.22047 416.83203,246.5896 C 417.31965,247.00888 417.56347,247.63778 417.56348,248.47632 L 417.56348,252.51636 M 425.83496,249.75464 L 421.11816,249.75464 C 421.11816,250.70711 421.57845,251.18335 422.49902,251.18335 C 422.96842,251.18335 423.32845,250.98283 423.5791,250.58179 L 425.74609,250.58179 C 425.57291,251.15601 425.3177,251.60034 424.98047,251.91479 C 424.36979,252.48446 423.55175,252.76929 422.52637,252.76929 C 421.22298,252.76929 420.24316,252.3728 419.58691,251.57983 C 419.09473,250.98739 418.84863,250.26506 418.84863,249.41284 C 418.84863,248.40113 419.15625,247.57854 419.77148,246.94507 C 420.38672,246.31161 421.25488,245.99488 422.37598,245.99487 C 423.75683,245.99488 424.74348,246.49618 425.33594,247.49878 C 425.66861,248.06389 425.83495,248.72014 425.83496,249.46753 L 425.83496,249.75464 M 423.74316,248.46948 C 423.58365,247.76766 423.15755,247.41675 422.46484,247.41675 C 422.08203,247.41675 421.77213,247.52841 421.53516,247.75171 C 421.3483,247.92945 421.22981,248.16871 421.17969,248.46948 L 423.74316,248.46948 M 429.35547,252.51636 L 427.11328,252.51636 L 427.11328,242.24878 L 429.35547,242.24878 L 429.35547,252.51636"
       id="flowRoot3047" />
    <g
       style="display:inline"
       id="g2464"
       transform="translate(-264,114)">
      <path
         transform="matrix(1.409388,0,0,1.602522,-136.3907,-67.70169)"
         d="M 339.00001 111.7 A 3.4000001 1.5 0 1 1  332.20001,111.7 A 3.4000001 1.5 0 1 1  339.00001 111.7 z"
         sodipodi:ry="1.5"
         sodipodi:rx="3.4000001"
         sodipodi:cy="111.7"
         sodipodi:cx="335.60001"
         id="path2460"
         style="fill:#000000;fill-opacity:1;fill-rule:nonzero;stroke:#000000;stroke-width:1;stroke-linecap:round;stroke-linejoin:round;stroke-miterlimit:4;stroke-dasharray:none;stroke-dashoffset:0;stroke-opacity:1"
         sodipodi:type="arc" />
      <path
         sodipodi:type="arc"
         style="fill:#ffffff;fill-opacity:1;fill-rule:nonzero;stroke:#ffffff;stroke-width:1;stroke-linecap:round;stroke-linejoin:round;stroke-miterlimit:4;stroke-dasharray:none;stroke-dashoffset:0;stroke-opacity:1"
         id="path2462"
         sodipodi:cx="335.60001"
         sodipodi:cy="111.7"
         sodipodi:rx="3.4000001"
         sodipodi:ry="1.5"
         d="M 339.00001 111.7 A 3.4000001 1.5 0 1 1  332.20001,111.7 A 3.4000001 1.5 0 1 1  339.00001 111.7 z"
         transform="translate(1,-0.6)" />
      <g
         transform="matrix(5.321843e-2,3.004908e-3,-3.024851e-3,5.323252e-2,337.8144,81.163)"
         inkscape:label="Layer 1"
         id="g4210"
         style="display:inline">
        <g
           id="g3226"
           transform="matrix(1,-5e-2,-8.25688e-2,1,50.38532,19.99167)">
          <rect
             y="1.4482422"
             x="0.89543915"
             height="298.05176"
             width="398.10831"
             id="rect1430"
             style="fill:#ffffff;fill-opacity:1;fill-rule:nonzero;stroke:#000000;stroke-width:1;stroke-linecap:round;stroke-linejoin:round;stroke-miterlimit:4;stroke-dasharray:none;stroke-dashoffset:0;stroke-opacity:1" />
          <rect
             y="200"
             x="0"
             height="50"
             width="50"
             id="rect1432"
             style="fill:#000000;fill-opacity:1;fill-rule:nonzero;stroke:none;stroke-width:2;stroke-linecap:round;stroke-linejoin:round;stroke-miterlimit:4;stroke-dasharray:none;stroke-dashoffset:0;stroke-opacity:1" />
          <rect
             y="250"
             x="50"
             height="50"
             width="50"
             id="rect2307"
             style="fill:#000000;fill-opacity:1;fill-rule:nonzero;stroke:none;stroke-width:2;stroke-linecap:round;stroke-linejoin:round;stroke-miterlimit:4;stroke-dasharray:none;stroke-dashoffset:0;stroke-opacity:1" />
          <rect
             y="200"
             x="99.666656"
             height="50"
             width="50"
             id="rect2309"
             style="fill:#000000;fill-opacity:1;fill-rule:nonzero;stroke:none;stroke-width:2;stroke-linecap:round;stroke-linejoin:round;stroke-miterlimit:4;stroke-dasharray:none;stroke-dashoffset:0;stroke-opacity:1" />
          <rect
             y="250"
             x="149.66667"
             height="50"
             width="50"
             id="rect2311"
             style="fill:#000000;fill-opacity:1;fill-rule:nonzero;stroke:none;stroke-width:2;stroke-linecap:round;stroke-linejoin:round;stroke-miterlimit:4;stroke-dasharray:none;stroke-dashoffset:0;stroke-opacity:1" />
          <rect
             y="199.99998"
             x="199.66666"
             height="50"
             width="50"
             id="rect2313"
             style="fill:#000000;fill-opacity:1;fill-rule:nonzero;stroke:none;stroke-width:2;stroke-linecap:round;stroke-linejoin:round;stroke-miterlimit:4;stroke-dasharray:none;stroke-dashoffset:0;stroke-opacity:1" />
          <rect
             y="250"
             x="249.66669"
             height="50"
             width="50"
             id="rect2315"
             style="fill:#000000;fill-opacity:1;fill-rule:nonzero;stroke:none;stroke-width:2;stroke-linecap:round;stroke-linejoin:round;stroke-miterlimit:4;stroke-dasharray:none;stroke-dashoffset:0;stroke-opacity:1" />
          <rect
             y="199.99998"
             x="299.33331"
             height="50"
             width="50"
             id="rect2317"
             style="fill:#000000;fill-opacity:1;fill-rule:nonzero;stroke:none;stroke-width:2;stroke-linecap:round;stroke-linejoin:round;stroke-miterlimit:4;stroke-dasharray:none;stroke-dashoffset:0;stroke-opacity:1" />
          <rect
             y="250"
             x="349.33334"
             height="50"
             width="50"
             id="rect2319"
             style="fill:#000000;fill-opacity:1;fill-rule:nonzero;stroke:none;stroke-width:2;stroke-linecap:round;stroke-linejoin:round;stroke-miterlimit:4;stroke-dasharray:none;stroke-dashoffset:0;stroke-opacity:1" />
          <rect
             y="150"
             x="49.66666"
             height="50"
             width="50"
             id="rect3194"
             style="fill:#000000;fill-opacity:1;fill-rule:nonzero;stroke:none;stroke-width:2;stroke-linecap:round;stroke-linejoin:round;stroke-miterlimit:4;stroke-dasharray:none;stroke-dashoffset:0;stroke-opacity:1" />
          <rect
             y="149.99998"
             x="149.66666"
             height="50"
             width="50"
             id="rect3196"
             style="fill:#000000;fill-opacity:1;fill-rule:nonzero;stroke:none;stroke-width:2;stroke-linecap:round;stroke-linejoin:round;stroke-miterlimit:4;stroke-dasharray:none;stroke-dashoffset:0;stroke-opacity:1" />
          <rect
             y="149.66666"
             x="249.66667"
             height="50"
             width="50"
             id="rect3198"
             style="fill:#000000;fill-opacity:1;fill-rule:nonzero;stroke:none;stroke-width:2;stroke-linecap:round;stroke-linejoin:round;stroke-miterlimit:4;stroke-dasharray:none;stroke-dashoffset:0;stroke-opacity:1" />
          <rect
             y="150.33334"
             x="349.33331"
             height="50"
             width="50"
             id="rect3200"
             style="fill:#000000;fill-opacity:1;fill-rule:nonzero;stroke:none;stroke-width:2;stroke-linecap:round;stroke-linejoin:round;stroke-miterlimit:4;stroke-dasharray:none;stroke-dashoffset:0;stroke-opacity:1" />
          <rect
             y="100.00001"
             x="299.33331"
             height="50"
             width="50"
             id="rect3202"
             style="fill:#000000;fill-opacity:1;fill-rule:nonzero;stroke:none;stroke-width:2;stroke-linecap:round;stroke-linejoin:round;stroke-miterlimit:4;stroke-dasharray:none;stroke-dashoffset:0;stroke-opacity:1" />
          <rect
             y="99.666679"
             x="199.66667"
             height="50"
             width="50"
             id="rect3204"
             style="fill:#000000;fill-opacity:1;fill-rule:nonzero;stroke:none;stroke-width:2;stroke-linecap:round;stroke-linejoin:round;stroke-miterlimit:4;stroke-dasharray:none;stroke-dashoffset:0;stroke-opacity:1" />
          <rect
             y="100"
             x="99.666672"
             height="50"
             width="50"
             id="rect3206"
             style="fill:#000000;fill-opacity:1;fill-rule:nonzero;stroke:none;stroke-width:2;stroke-linecap:round;stroke-linejoin:round;stroke-miterlimit:4;stroke-dasharray:none;stroke-dashoffset:0;stroke-opacity:1" />
          <rect
             y="100"
             x="-6.357829e-007"
             height="50"
             width="50"
             id="rect3208"
             style="fill:#000000;fill-opacity:1;fill-rule:nonzero;stroke:none;stroke-width:2;stroke-linecap:round;stroke-linejoin:round;stroke-miterlimit:4;stroke-dasharray:none;stroke-dashoffset:0;stroke-opacity:1" />
          <rect
             y="7.6293945e-006"
             x="0.33332825"
             height="50"
             width="50"
             id="rect3210"
             style="fill:#000000;fill-opacity:1;fill-rule:nonzero;stroke:none;stroke-width:2;stroke-linecap:round;stroke-linejoin:round;stroke-miterlimit:4;stroke-dasharray:none;stroke-dashoffset:0;stroke-opacity:1" />
          <rect
             y="50.000008"
             x="50.333328"
             height="50"
             width="50"
             id="rect3212"
             style="fill:#000000;fill-opacity:1;fill-rule:nonzero;stroke:none;stroke-width:2;stroke-linecap:round;stroke-linejoin:round;stroke-miterlimit:4;stroke-dasharray:none;stroke-dashoffset:0;stroke-opacity:1" />
          <rect
             y="7.6293945e-006"
             x="99.999985"
             height="50"
             width="50"
             id="rect3214"
             style="fill:#000000;fill-opacity:1;fill-rule:nonzero;stroke:none;stroke-width:2;stroke-linecap:round;stroke-linejoin:round;stroke-miterlimit:4;stroke-dasharray:none;stroke-dashoffset:0;stroke-opacity:1" />
          <rect
             y="50.000008"
             x="150"
             height="50"
             width="50"
             id="rect3216"
             style="fill:#000000;fill-opacity:1;fill-rule:nonzero;stroke:none;stroke-width:2;stroke-linecap:round;stroke-linejoin:round;stroke-miterlimit:4;stroke-dasharray:none;stroke-dashoffset:0;stroke-opacity:1" />
          <rect
             y="-7.6293945e-006"
             x="199.99998"
             height="50"
             width="50"
             id="rect3218"
             style="fill:#000000;fill-opacity:1;fill-rule:nonzero;stroke:none;stroke-width:2;stroke-linecap:round;stroke-linejoin:round;stroke-miterlimit:4;stroke-dasharray:none;stroke-dashoffset:0;stroke-opacity:1" />
          <rect
             y="50.000008"
             x="250.00002"
             height="50"
             width="50"
             id="rect3220"
             style="fill:#000000;fill-opacity:1;fill-rule:nonzero;stroke:none;stroke-width:2;stroke-linecap:round;stroke-linejoin:round;stroke-miterlimit:4;stroke-dasharray:none;stroke-dashoffset:0;stroke-opacity:1" />
          <rect
             y="-7.6293945e-006"
             x="299.66663"
             height="50"
             width="50"
             id="rect3222"
             style="fill:#000000;fill-opacity:1;fill-rule:nonzero;stroke:none;stroke-width:2;stroke-linecap:round;stroke-linejoin:round;stroke-miterlimit:4;stroke-dasharray:none;stroke-dashoffset:0;stroke-opacity:1" />
          <rect
             y="50.000008"
             x="349.66669"
             height="50"
             width="50"
             id="rect3224"
             style="fill:#000000;fill-opacity:1;fill-rule:nonzero;stroke:none;stroke-width:2;stroke-linecap:round;stroke-linejoin:round;stroke-miterlimit:4;stroke-dasharray:none;stroke-dashoffset:0;stroke-opacity:1" />
        </g>
        <path
           style="fill:none;fill-opacity:0.75;fill-rule:evenodd;stroke:#000000;stroke-width:10;stroke-linecap:round;stroke-linejoin:round;stroke-miterlimit:4;stroke-dasharray:none;stroke-opacity:1"
           d="M 50,21 L 5,555"
           id="path4238" />
      </g>
    </g>
    <path
       style="fill:url(#linearGradient1362);fill-opacity:1.0;fill-rule:nonzero;stroke:#a08070;stroke-width:0.99999928;stroke-linecap:round;stroke-linejoin:round;stroke-miterlimit:4;stroke-dashoffset:0;stroke-opacity:1;display:inline"
       d="M 73.415725,181.28768 L 79.907025,178.54369 L 86.398355,175.7997 L 85.529065,182.79333 L 84.659765,189.78697 L 79.037735,185.53734 L 73.415725,181.28768 z "
       id="path2402" />
    <path
       style="fill:url(#linearGradient1368);fill-opacity:1;fill-rule:nonzero;stroke:#a08070;stroke-width:0.99999928;stroke-linecap:round;stroke-linejoin:round;stroke-miterlimit:4;stroke-dashoffset:0;stroke-opacity:1;display:inline"
       d="M 40.175351,237.82768 L 46.666651,235.08369 L 53.157981,232.3397 L 52.288691,239.33333 L 51.419391,246.32697 L 45.797361,242.07734 L 40.175351,237.82768 z "
       id="path1366" />
  </g>
</svg>
