<?xml version="1.0" encoding="UTF-8" standalone="no"?>
<!-- Created with Inkscape (http://www.inkscape.org/) -->
<svg
   xmlns:dc="http://purl.org/dc/elements/1.1/"
   xmlns:cc="http://web.resource.org/cc/"
   xmlns:rdf="http://www.w3.org/1999/02/22-rdf-syntax-ns#"
   xmlns:svg="http://www.w3.org/2000/svg"
   xmlns="http://www.w3.org/2000/svg"
   xmlns:sodipodi="http://sodipodi.sourceforge.net/DTD/sodipodi-0.dtd"
   xmlns:inkscape="http://www.inkscape.org/namespaces/inkscape"
   id="svg2211"
   sodipodi:version="0.32"
   inkscape:version="0.45+devel"
   width="1100"
   height="660"
   version="1.0"
   sodipodi:docbase="C:\Users\sento\Desktop"
   sodipodi:docname="a1 ring.svg"
   inkscape:output_extension="org.inkscape.output.svg.inkscape"
   sodipodi:modified="true">
  <metadata
     id="metadata2216">
    <rdf:RDF>
      <cc:Work
         rdf:about="">
        <dc:format>image/svg+xml</dc:format>
        <dc:type
           rdf:resource="http://purl.org/dc/dcmitype/StillImage" />
      </cc:Work>
    </rdf:RDF>
  </metadata>
  <defs
     id="defs2214" />
  <sodipodi:namedview
     inkscape:window-height="719"
     inkscape:window-width="1195"
     inkscape:pageshadow="2"
     inkscape:pageopacity="0.0"
     guidetolerance="10.0"
     gridtolerance="10.0"
     objecttolerance="10.0"
     borderopacity="1.0"
     bordercolor="#666666"
     pagecolor="#ffffff"
     id="base"
     inkscape:zoom="0.80781593"
     inkscape:cx="614.65877"
     inkscape:cy="339.8699"
     inkscape:window-x="175"
     inkscape:window-y="31"
     inkscape:current-layer="svg2211" />
  <path
     style="fill:#000000"
     d="M 620.55657,583.94651 C 618.10139,582.76461 616.32923,576.43033 615.13987,572.18028 C 613.37433,565.87132 597.68103,542.45273 577.97259,513.10951 C 556.82801,480.45561 536.76339,448.48283 517.17145,416.2541 C 509.66474,403.07485 495.39071,378.10897 460.56261,303.45914 C 449.13542,278.96634 432.04023,240.64146 424.20915,226.06709 C 419.33558,217.41081 419.24201,214.74155 400.79319,193.41945 L 384.863,177.61881 C 370.31757,162.04819 357.2174,148.80766 355.75149,148.1954 C 351.68633,146.4975 345.78479,148.26973 342.47201,152.18321 C 339.53836,155.64881 339.49436,156.09052 339.50521,181.96468 C 339.51779,211.96989 340.21214,215.73297 349.36739,235.41363 C 352.46649,242.07564 366.39215,265.40173 380.3133,287.24937 C 392.07659,305.89663 399.45389,317.7168 406.22836,329.36261 C 412.33384,338.39086 411.40786,335.92853 442.08779,384.19375 C 480.57387,444.73946 481.19211,446.04339 481.4452,467.20128 C 481.66479,485.55852 476.41979,498.55497 465.04959,507.82749 C 456.70382,514.63354 448.12858,517.21135 433.74256,517.23869 C 419.28805,517.26618 334.97757,507.22461 322.81307,504.02676 C 310.97041,500.91351 301.30022,494.63786 293.61589,485.07873 C 277.51002,460.89732 261.94584,433.00824 247.02661,408.5046 C 240.64733,398.45011 239.23431,395.86531 230.08823,380.0855 C 212.33088,349.4486 199.11901,329.18565 182.06078,306.42618 C 177.53883,300.35335 176.34635,298.44673 171.45671,292.28841 C 166.86289,287.70234 166.45066,286.97043 162.0853,282.05134 C 153.33356,272.18941 140.44473,261.65758 136.95725,259.11134 C 133.92962,256.90081 91.251147,230.08732 82.495572,223.51429 C 78.425837,220.45904 72.773526,215.58526 69.934879,212.6837 C 63.733799,205.9392 57.5654,193.60524 53.648362,186.82777 C 50.750307,179.71535 47.541957,170.56419 44.716494,157.52996 C 33.492936,105.75411 59.926522,65.57134 115.94952,49.24572 C 125.75535,46.388222 135.96685,45.014747 167.12253,42.362809 C 228.91096,37.103439 234.74336,37.365167 335.78729,49.931463 C 365.68975,53.650276 405.72447,58.603891 424.75331,60.939484 C 450.10218,64.050801 480.73636,69.368189 539.34671,80.830232 C 583.34423,89.434532 624.213,97.160772 630.1662,97.999652 C 636.11939,98.838532 668.51458,100.24664 702.15552,101.12875 L 759.68802,103.15666 L 771.44574,105.63384 C 781.38242,111.17649 787.37527,117.8552 788.10757,127.64754 C 788.50021,132.89812 785.67013,139.85454 783.88886,142.71688 C 774.85884,160.49908 769.72342,165.67471 759.61156,177.80692 C 744.67321,192.066 730.77492,201.87517 712.49339,209.5131 C 710.81549,209.93657 699.90208,213.0496 695.3882,213.47234 C 668.9053,215.95255 669.03022,216.2865 619.3665,208.85477 C 593.88144,205.04115 572.36445,201.18901 571.33841,200.92783 C 570.02562,200.59366 565.21243,200.35733 559.79265,200.87382 C 541.84834,202.58388 528.11623,213.03342 523.48233,228.50442 C 520.74925,237.62917 521.72997,251.78363 525.9561,264.20742 C 528.77439,272.49256 565.16375,343.16158 569.50879,348.78782 C 572.1256,352.08051 574.67954,354.27548 578.69481,357.15564 C 588.90944,365.73444 597.2115,369.50408 605.89033,369.50408 C 618.12235,369.50408 623.57055,365.56758 644.78285,341.40291 C 654.92971,329.84377 666.56792,317.89625 670.64553,314.85285 C 691.27345,299.45687 711.3058,292.49732 734.99363,292.49732 C 742.09276,292.49732 799.18929,290.2897 861.87479,287.59148 C 924.56029,284.89327 981.68682,282.9697 988.82264,283.3169 C 997.27846,283.72831 1003.9149,284.84033 1007.8786,286.50995 C 1017.0488,290.37273 1026.3855,300.57534 1031.3742,312.18442 C 1036.2423,323.51313 1058.4318,398.80251 1060.5457,411.16409 C 1062.8467,424.62006 1059.733,428.97961 1034.8938,447.07965 C 1021.4757,456.85731 1017.9791,458.7023 1003.3851,463.70537 C 994.35626,466.80055 982.79889,470.8494 977.70189,472.7028 C 965.10615,477.28298 930.71268,488.49995 927.6585,489.02378 C 926.29929,489.25692 924.35316,489.8414 923.33376,490.32265 C 921.30799,491.279 841.24343,517.04845 838.13571,517.74436 C 837.08272,517.98016 835.38713,518.54884 834.36773,519.00811 C 830.13478,520.91513 681.75981,568.04823 667.55643,571.99773 C 659.06141,574.3599 648.77471,577.40717 644.69711,578.7694 C 633.14231,582.62962 624.9963,586.08375 620.55657,583.94651 z M 663.04049,562.45882 C 674.59372,559.12094 729.71263,541.36572 785.29328,523.52111 C 848.69256,505.08711 910.88131,482.62331 973.99497,463.19543 C 1004.5166,453.7927 1014.2302,449.19106 1032.9745,435.25518 C 1051.9853,421.12122 1052.4733,420.36552 1050.043,408.82393 C 1048.0801,399.50235 1044.7986,387.44364 1044.6422,389.71472 C 1044.591,390.45736 1042.9179,386.62345 1043.9906,394.73419 C 1046.4742,413.51431 1045.5133,417.62108 1036.0194,424.71681 C 1029.9972,428.63118 1022.8637,433.91491 1016.8767,437.22494 C 993.67514,451.65443 983.8293,456.17479 961.07806,464.27555 C 942.774,470.79286 905.02249,483.1829 897.93234,484.99996 C 896.61208,485.3383 883.29905,489.67009 868.34781,494.62615 C 776.04944,525.22129 657.24833,561.792 651.17351,562.94897 C 649.60989,563.24677 648.19835,563.87686 647.10214,564.10936 C 646.32116,564.275 642.90675,565.82632 638.70753,566.78812 C 632.78411,568.14485 630.61402,569.77464 628.13007,568.51961 C 625.17389,567.02596 624.42285,565.33901 625.49178,567.80334 C 626.75852,570.72371 626.94599,571.1704 627.68185,571.75595 C 628.83072,572.67017 629.77348,571.48039 663.04049,562.45882 z M 510.49585,373.22048 C 510.19028,379.11496 510.68878,381.37883 510.68878,381.37883 L 516.17055,395.60258 C 520.07241,403.32962 527.6254,415.09628 531.63304,421.75074 C 542.39524,438.76641 543.56404,442.48332 550.45808,452.51889 C 554.21696,458.33332 561.69108,470.34834 567.72823,479.21891 C 578.23622,495.26688 587.03863,508.15264 597.13171,522.7054 C 606.79554,537.01881 612.93689,545.97905 615.49041,548.72978 C 617.42434,550.81306 620.07803,553.22794 622.58101,556.4907 C 625.00481,559.65025 625.88741,560.72051 627.2307,562.07674 C 628.05736,562.91137 630.69557,564.44513 632.06988,564.36265 C 634.13549,564.2387 638.44602,562.8692 654.73189,558.30982 C 681.15889,550.91133 749.28555,530.13218 765.41452,524.41172 C 776.1412,520.60728 829.41194,503.89742 831.52121,503.15834 C 833.49662,502.46617 837.23439,501.52373 840.19915,500.34546 C 845.44202,498.83082 875.28317,488.28943 894.6273,482.39239 C 895.65062,482.11291 910.31078,477.03258 926.62123,471.75068 C 961.64908,460.40737 979.37281,453.23105 991.80821,446.86624 C 1005.445,439.88654 1033.7748,421.34057 1035.9476,417.66327 C 1038.1419,413.94969 1042.8334,415.82123 1035.5973,372.98023 C 1030.4489,342.49883 1026.4094,326.22771 1022.7038,317.61054 C 1014.9488,299.57707 1005.3363,293.85883 982.81146,293.87978 C 975.58378,293.88649 919.62684,296.03995 858.46269,298.66525 C 797.29856,301.29053 741.41676,303.45261 734.28095,303.46985 C 718.96336,303.50688 705.88549,306.71308 692.58537,313.69201 C 678.39823,321.1364 673.13708,325.75953 652.11093,349.25812 C 628.74103,375.37606 623.45099,379.05657 608.02035,379.9339 C 592.59094,380.81116 580.8784,374.8197 563.10392,356.95727 C 553.70788,347.51471 545.99512,342.64176 538.14883,341.19055 C 523.62177,338.50368 511.58577,352.19612 510.49585,373.22048 M 451.79498,503.45368 C 459.24773,500.36154 466.36383,492.77174 469.54666,484.52034 C 472.33412,477.29394 472.5004,461.13564 469.88585,451.55979 C 468.12114,445.09647 456.47749,425.96858 406.94156,348.1565 C 358.11355,271.4564 344.82794,249.65268 339.37516,237.26975 C 331.52122,219.43386 329.10097,205.58695 329.03438,186.26022 L 328.70446,173.1495 L 327.8241,163.21918 C 324.9358,158.38953 317.78575,151.26267 315.17435,148.95737 C 310.87625,145.16307 308.02552,142.54349 300.01992,142.63812 C 284.52373,142.82131 286.74808,146.21732 278.48544,150.16992 C 261.1453,158.46491 247.66581,158.18468 236.98876,151.7605 C 222.98197,143.32383 219.42853,129.33112 218.73526,118.09038 C 218.22116,109.67612 222.65982,103.01301 230.92694,88.649432 C 234.46147,82.508462 235.08269,80.197582 235.08269,73.190366 C 235.08269,50.194479 229.08626,48.178999 173.91854,52.632361 C 132.81013,55.950792 131.51868,56.12657 116.50477,60.4476 C 75.372347,72.285548 52.208076,99.187712 52.208076,135.11951 C 52.208076,160.93436 65.509572,195.31595 80.567744,208.42333 C 87.992835,214.88651 135.08515,244.93534 140.50986,248.63048 C 148.63825,254.16726 171.54258,275.41796 189.62344,299.34846 C 201.67046,315.293 220.10664,342.15125 223.53542,348.75222 C 233.1897,367.33834 297.27795,473.52284 302.35068,479.33718 C 309.05832,487.02543 316.03575,491.27686 325.90217,493.68738 C 338.08154,496.66299 416.39331,505.94897 430.57626,506.09932 C 442.36129,506.22426 446.30138,505.73298 451.79498,503.45368 z M 506.1704,356.70135 C 511.21276,341.49746 521.01774,333.29026 533.85073,333.15177 C 537.5911,333.11139 544.58216,334.97137 547.11435,335.56735 L 552.01892,338.04954 L 541.32095,318.245 C 537.51942,311.00022 536.37974,308.22551 532.81939,300.71869 C 528.73933,292.76769 519.60727,276.91955 516.0973,266.46301 C 513.16251,257.71993 511.87069,253.93322 511.80091,241.69291 C 511.73327,229.82391 512.93914,226.32004 515.08554,221.1759 C 518.15783,213.81273 524.24747,205.80288 530.74765,200.57516 L 539.14796,194.06147 L 532.96829,193.64524 C 519.68461,192.20524 512.28096,193.76082 504.37933,198.1394 C 494.17217,203.79553 481.40204,217.96028 472.97766,235.43118 C 466.03945,249.82 465.7669,253.7392 460.46593,251.98802 C 458.97079,251.49408 453.7924,246.87622 449.42574,242.24433 C 444.27775,236.78364 436.63175,230.35209 438.08091,232.94505 C 440.59694,237.44695 442.40095,242.12773 474.9753,311.50003 C 488.15473,339.56776 503.2253,369.4316 503.65232,368.87118 C 504.07935,368.31078 505.00216,360.2239 506.1704,356.70135 z M 465.68251,233.235 C 474.1106,214.66592 489.22138,196.40319 501.18151,190.33126 C 514.30916,183.6666 522.67911,183.21637 550.78852,187.66284 C 560.71605,189.2332 605.70837,195.97014 653.96439,203.1119 C 657.7022,203.66508 668.05816,205.04306 677.91239,205.00794 C 697.89241,204.93675 704.22206,204.02711 718.85735,195.89295 C 726.37582,191.1091 733.6186,186.19467 740.57584,180.19816 C 746.67712,175.42285 752.75574,170.21877 754.08392,168.63354 C 759.96593,161.61311 773.09265,142.06025 774.6172,138.04823 C 778.27524,128.42167 776.01095,121.89302 767.25265,116.81399 C 762.27098,113.92507 759.90193,113.75621 702.15433,112.17381 C 669.19366,111.27062 636.66545,109.81845 629.86943,108.94676 C 618.5623,107.49644 590.7832,102.26143 545.84597,93.112382 C 536.33154,91.175272 526.60088,89.283872 524.22228,88.909242 C 506.8305,85.271382 489.36649,82.195712 471.90857,78.823882 C 443.06575,73.097791 399.64342,71.897258 368.53172,75.96571 C 346.87364,78.797912 314.12168,84.767662 314.44545,85.824102 C 314.93683,87.427332 459.18542,243.00615 460.26241,243.09445 C 460.76356,243.13554 463.2026,238.69879 465.68251,233.235 z M 328.98852,150.74525 C 329.42044,148.49413 331.79024,143.71388 333.17418,142.03781 C 334.60837,140.02685 338.77652,135.51418 341.23187,135.51418 C 342.15015,135.51418 342.61941,133.18829 342.39287,132.49773 C 342.16634,131.80716 333.59453,122.27974 322.17597,110.15953 C 301.5572,88.273788 303.15042,89.973172 300.81641,93.000642 C 295.63872,99.71668 293.79367,103.44777 292.19353,112.8645 C 291.18985,118.77108 291.08827,126.1059 290.28149,129.55466 L 288.59578,135.16866 L 296.10146,134.70677 C 308.98871,134.70677 316.43971,137.77671 324.6084,147.13716 C 329.8452,153.13797 328.98852,154.07296 328.98852,150.74525 z M 266.06398,143.66504 C 276.6953,139.80896 279.63292,133.17404 281.9387,107.81031 C 283.35614,92.218352 289.17191,80.230696 302.80784,75.527162 C 310.61367,72.834642 316.83639,73.061934 334.68138,70.016677 C 346.30596,68.032918 357.25489,66.409853 359.01233,66.409853 C 360.76978,66.409853 373.41945,63.955677 373.7496,63.363287 C 374.39187,62.210892 298.23719,52.88253 249.40767,47.891893 L 242.85775,47.55395 L 245.68034,56.824769 C 246.74685,60.798379 247.57193,64.932914 246.37943,78.264949 L 242.67438,89.147998 L 238.41738,97.039282 C 232.85968,106.76113 230.87463,110.48385 230.41029,115.84265 C 229.55245,125.74291 233.45336,136.49507 240.17069,141.54168 C 246.75873,146.49118 255.79778,147.38871 266.06398,143.66504 z "
     id="path2220"
     sodipodi:nodetypes="csccscccssssccsssssccsccsssccssssssscccscccssssssccssssssssssssssssssccccssssccsssssssssccccccccsssscssccsssssssssssssscsssscccsssccssssssssssssccsccccssscccsssssssccssssccssssssccssscccssssscccsccsssssccccccssc" />
  <path
     style="fill:#000000;fill-opacity:1;fill-rule:evenodd;stroke:#000000;stroke-width:1px;stroke-linecap:butt;stroke-linejoin:miter;stroke-opacity:1"
     d="M 928.62349,487.85222 L 936.97935,511.06296 L 919.02973,517.56196 L 922.74344,525.91783 L 884.98731,523.13254 L 913.14968,502.08814 L 916.55391,511.06296 L 928.93297,506.73028 L 922.12449,490.01856 L 928.62349,487.85222 z "
     id="path2226"
     sodipodi:nodetypes="cccccccccc" />
  <path
     style="fill:#ff0000;fill-opacity:1;fill-rule:evenodd;stroke:#ff0000;stroke-width:1px;stroke-linecap:butt;stroke-linejoin:miter;stroke-opacity:1"
     d="M 450.35809,327.81167 L 463.48807,322.12202 L 443.35544,298.0504 L 450.35809,327.81167 z "
     id="path2158" />
  <path
     style="fill:#ff0000;fill-opacity:1;fill-rule:evenodd;stroke:#ff0000;stroke-width:1px;stroke-linecap:butt;stroke-linejoin:miter;stroke-opacity:1"
     d="M 182.9443,348.81962 L 196.07428,343.12997 L 175.94165,319.05835 L 182.9443,348.81962 z "
     id="path4101" />
  <path
     style="fill:#ff0000;fill-opacity:1;fill-rule:evenodd;stroke:#ff0000;stroke-width:1px;stroke-linecap:butt;stroke-linejoin:miter;stroke-opacity:1"
     d="M 771.60476,267.41379 L 772.04244,283.16976 L 803.1167,276.16711 L 771.60476,267.41379 z "
     id="path4103"
     sodipodi:nodetypes="cccc" />
</svg>
