<?xml version="1.0" encoding="UTF-8" standalone="no"?>
<svg id="svg4297" xmlns:rdf="http://www.w3.org/1999/02/22-rdf-syntax-ns#" xmlns="http://www.w3.org/2000/svg" height="454.43" viewBox="0 0 671.46741 454.43073" width="671.47" version="1.1" xmlns:cc="http://creativecommons.org/ns#" xmlns:dc="http://purl.org/dc/elements/1.1/">
<g id="g4141" stroke-linejoin="round" transform="translate(35.867 98.246)">
<path id="path4133" d="m4.4523 285.08c0.15814 1.6807 0.88915 2.6827 2.042 3.7235 3.7747 3.4077 4.6459 2.8653 66.156-41.145 10.816-7.7391 26.517-18.947 34.891-24.908 8.3741-5.961 20.37-14.776 26.654-19.589 13.404-10.265 14.852-10.378 15.785-1.2224 0.65872 6.4643 2.9728 10.099 6.2047 9.747 3.4068-0.37092 50.544-8.8631 55.858-10.063 9.5376-2.154 23.605-8.1634 57.661-24.632 38.646-18.688 37.908-18.555 62.207-11.121 52.156 15.957 59.578 21.498 88.894 66.348 29.875 45.707 61.639 71.803 98.306 80.765 28.363 6.9327 35.826 3.5179 52.353-23.955 17.492-29.077 16.74-34.364-6.4997-45.666-50.548-24.584-49.655-23.937-50.995-36.941-0.5702-5.5333-0.17401-7.5059 2.3335-11.604 6.1452-10.042 6.4586-18.812 0.99819-27.989-5.0403-8.4704-6.1269-8.9218-55.866-23.156-68.456-19.59-73.737-23.54-75.734-56.637-1.6083-26.662 3.0251-32.143 34.74-41.11 46.707-13.205 62.63-18.579 85.489-28.838 32.561-14.614 30.995-14.86 47.581 7.4838 18.143 24.442 33.497 28.895 40.546 11.756 3.863-9.3925 2.4869-11.756-28.185-48.379-39.981-47.738-36.589-45.735-62.637-36.98-20.191 6.7864-22.691 6.5515-30.038-2.826-4.1664-5.3177-8.4067-7.1379-15.027-6.4484-4.4765 0.46629-11.668 3.2372-87.129 33.589-135.58 54.563-132.66 53.23-154.91 70.925-36.91 29.357-54.42 41.466-63.34 43.82-21.576 5.6898-29.511 11.403-36.169 26.044-4.5672 10.042-11.597 18.297-39.404 46.272-38.855 39.088-47.964 52.529-63.813 94.131-6.8344 17.94-9.2646 24.926-8.9167 28.624z" stroke="#006400" stroke-width="80" fill="#006400"/>
<g fill="none">
<path id="path4137" d="m4.4523 285.08c0.15814 1.6807 0.88915 2.6827 2.042 3.7235 3.7747 3.4077 4.6459 2.8653 66.156-41.145 10.816-7.7391 26.517-18.947 34.891-24.908 8.3741-5.961 20.37-14.776 26.654-19.589 13.404-10.265 14.852-10.378 15.785-1.2224 0.65872 6.4643 2.9728 10.099 6.2047 9.747 3.4068-0.37092 50.544-8.8631 55.858-10.063 9.5376-2.154 23.605-8.1634 57.661-24.632 38.646-18.688 37.908-18.555 62.207-11.121 52.156 15.957 59.578 21.498 88.894 66.348 29.875 45.707 61.639 71.803 98.306 80.765 28.363 6.9327 35.826 3.5179 52.353-23.955 17.492-29.077 16.74-34.364-6.4997-45.666-50.548-24.584-49.655-23.937-50.995-36.941-0.5702-5.5333-0.17401-7.5059 2.3335-11.604 6.1452-10.042 6.4586-18.812 0.99819-27.989-5.0403-8.4704-6.1269-8.9218-55.866-23.156-68.456-19.59-73.737-23.54-75.734-56.637-1.6083-26.662 3.0251-32.143 34.74-41.11 46.707-13.205 62.63-18.579 85.489-28.838 32.561-14.614 30.995-14.86 47.581 7.4838 18.143 24.442 33.497 28.895 40.546 11.756 3.863-9.3925 2.4869-11.756-28.185-48.379-39.981-47.738-36.589-45.735-62.637-36.98-20.191 6.7864-22.691 6.5515-30.038-2.826-4.1664-5.3177-8.4067-7.1379-15.027-6.4484-4.4765 0.46629-11.668 3.2372-87.129 33.589-135.58 54.563-132.66 53.23-154.91 70.925-36.91 29.357-54.42 41.466-63.34 43.82-21.576 5.6898-29.511 11.403-36.169 26.044-4.5672 10.042-11.597 18.297-39.404 46.272-38.855 39.088-47.964 52.529-63.813 94.131-6.8344 17.94-9.2646 24.926-8.9167 28.624z" stroke="#f00" stroke-width="26"/>
<path id="path4135" d="m4.4523 285.08c0.15814 1.6807 0.88915 2.6827 2.042 3.7235 3.7747 3.4077 4.6459 2.8653 66.156-41.145 10.816-7.7391 26.517-18.947 34.891-24.908 8.3741-5.961 20.37-14.776 26.654-19.589 13.404-10.265 14.852-10.378 15.785-1.2224 0.65872 6.4643 2.9728 10.099 6.2047 9.747 3.4068-0.37092 50.544-8.8631 55.858-10.063 9.5376-2.154 23.605-8.1634 57.661-24.632 38.646-18.688 37.908-18.555 62.207-11.121 52.156 15.957 59.578 21.498 88.894 66.348 29.875 45.707 61.639 71.803 98.306 80.765 28.363 6.9327 35.826 3.5179 52.353-23.955 17.492-29.077 16.74-34.364-6.4997-45.666-50.548-24.584-49.655-23.937-50.995-36.941-0.5702-5.5333-0.17401-7.5059 2.3335-11.604 6.1452-10.042 6.4586-18.812 0.99819-27.989-5.0403-8.4704-6.1269-8.9218-55.866-23.156-68.456-19.59-73.737-23.54-75.734-56.637-1.6083-26.662 3.0251-32.143 34.74-41.11 46.707-13.205 62.63-18.579 85.489-28.838 32.561-14.614 30.995-14.86 47.581 7.4838 18.143 24.442 33.497 28.895 40.546 11.756 3.863-9.3925 2.4869-11.756-28.185-48.379-39.981-47.738-36.589-45.735-62.637-36.98-20.191 6.7864-22.691 6.5515-30.038-2.826-4.1664-5.3177-8.4067-7.1379-15.027-6.4484-4.4765 0.46629-11.668 3.2372-87.129 33.589-135.58 54.563-132.66 53.23-154.91 70.925-36.91 29.357-54.42 41.466-63.34 43.82-21.576 5.6898-29.511 11.403-36.169 26.044-4.5672 10.042-11.597 18.297-39.404 46.272-38.855 39.088-47.964 52.529-63.813 94.131-6.8344 17.94-9.2646 24.926-8.9167 28.624z" stroke="#fff" stroke-dasharray="26, 26" stroke-width="26"/>
<path id="path4307" d="m4.4523 285.08c0.15814 1.6807 0.88915 2.6827 2.042 3.7235 3.7747 3.4077 4.6459 2.8653 66.156-41.145 10.816-7.7391 26.517-18.947 34.891-24.908 8.3741-5.961 20.37-14.776 26.654-19.589 13.404-10.265 14.852-10.378 15.785-1.2224 0.65872 6.4643 2.9728 10.099 6.2047 9.747 3.4068-0.37092 50.544-8.8631 55.858-10.063 9.5376-2.154 23.605-8.1634 57.661-24.632 38.646-18.688 37.908-18.555 62.207-11.121 52.156 15.957 59.578 21.498 88.894 66.348 29.875 45.707 61.639 71.803 98.306 80.765 28.363 6.9327 35.826 3.5179 52.353-23.955 17.492-29.077 16.74-34.364-6.4997-45.666-50.548-24.584-49.655-23.937-50.995-36.941-0.5702-5.5333-0.17401-7.5059 2.3335-11.604 6.1452-10.042 6.4586-18.812 0.99819-27.989-5.0403-8.4704-6.1269-8.9218-55.866-23.156-68.456-19.59-73.737-23.54-75.734-56.637-1.6083-26.662 3.0251-32.143 34.74-41.11 46.707-13.205 62.63-18.579 85.489-28.838 32.561-14.614 30.995-14.86 47.581 7.4838 18.143 24.442 33.497 28.895 40.546 11.756 3.863-9.3925 2.4869-11.756-28.185-48.379-39.981-47.738-36.589-45.735-62.637-36.98-20.191 6.7864-22.691 6.5515-30.038-2.826-4.1664-5.3177-8.4067-7.1379-15.027-6.4484-4.4765 0.46629-11.668 3.2372-87.129 33.589-135.58 54.563-132.66 53.23-154.91 70.925-36.91 29.357-54.42 41.466-63.34 43.82-21.576 5.6898-29.511 11.403-36.169 26.044-4.5672 10.042-11.597 18.297-39.404 46.272-38.855 39.088-47.964 52.529-63.813 94.131-6.8344 17.94-9.2646 24.926-8.9167 28.624z" stroke="#141414" stroke-width="20"/>
<path id="path4139" d="m4.4523 285.08c0.15814 1.6807 0.88915 2.6827 2.042 3.7235 3.7747 3.4077 4.6459 2.8653 66.156-41.145 10.816-7.7391 26.517-18.947 34.891-24.908 8.3741-5.961 20.37-14.776 26.654-19.589 13.404-10.265 14.852-10.378 15.785-1.2224 0.65872 6.4643 2.9728 10.099 6.2047 9.747 3.4068-0.37092 50.544-8.8631 55.858-10.063 9.5376-2.154 23.605-8.1634 57.661-24.632 38.646-18.688 37.908-18.555 62.207-11.121 52.156 15.957 59.578 21.498 88.894 66.348 29.875 45.707 61.639 71.803 98.306 80.765 28.363 6.9327 35.826 3.5179 52.353-23.955 17.492-29.077 16.74-34.364-6.4997-45.666-50.548-24.584-49.655-23.937-50.995-36.941-0.5702-5.5333-0.17401-7.5059 2.3335-11.604 6.1452-10.042 6.4586-18.812 0.99819-27.989-5.0403-8.4704-6.1269-8.9218-55.866-23.156-68.456-19.59-73.737-23.54-75.734-56.637-1.6083-26.662 3.0251-32.143 34.74-41.11 46.707-13.205 62.63-18.579 85.489-28.838 32.561-14.614 30.995-14.86 47.581 7.4838 18.143 24.442 33.497 28.895 40.546 11.756 3.863-9.3925 2.4869-11.756-28.185-48.379-39.981-47.738-36.589-45.735-62.637-36.98-20.191 6.7864-22.691 6.5515-30.038-2.826-4.1664-5.3177-8.4067-7.1379-15.027-6.4484-4.4765 0.46629-11.668 3.2372-87.129 33.589-135.58 54.563-132.66 53.23-154.91 70.925-36.91 29.357-54.42 41.466-63.34 43.82-21.576 5.6898-29.511 11.403-36.169 26.044-4.5672 10.042-11.597 18.297-39.404 46.272-38.855 39.088-47.964 52.529-63.813 94.131-6.8344 17.94-9.2646 24.926-8.9167 28.624z" stroke="#fff" stroke-dasharray="8, 2" stroke-width="2"/>
</g>
</g>
</svg>
