<?xml version="1.0" encoding="UTF-8" standalone="no"?>
<svg id="svg4176" xmlns:rdf="http://www.w3.org/1999/02/22-rdf-syntax-ns#" xmlns="http://www.w3.org/2000/svg" height="290.66" viewBox="0 0 861.11277 290.65902" width="861.11" version="1.1" xmlns:cc="http://creativecommons.org/ns#" xmlns:dc="http://purl.org/dc/elements/1.1/">
<g id="g4141" stroke-linejoin="round" transform="translate(35.927 87.455)">
<path id="path4133" d="m783.57 123.46c0.2004-0.82487 0.31497-1.7586 0.37783-2.8092 0.51613-8.6268 3.5071-8.1783-60.011-8.9752-1.2403-0.0155-2.4932-0.0588-3.7512-0.11193-7.2524-0.62766-14.47-1.4787-21.626-2.6337-26.71-5.21-59.61-18.245-108.36-42.35-35.7-17.652-40.19-22.093-39.05-38.665 0.71-10.323 0.45-10.526-35.58-27.97-28.45-13.773-49.21-22.425-64.32-26.8-102.33-29.647-161.35-27.162-160.89 6.768 0.21687 16.042-0.75552 16.209-43.422 7.4845-45.194-9.2413-52.853-8.3482-72.008 8.3959-11.46 10.016-14.39 11.886-37.45 23.893-19.78 10.296-21.41 10.576-31.31 5.34-12.276-6.492-16.788-4.506-50.656 22.314-19.785 15.668-32.066 29.973-42.662 50.345-0.35486 0.57321-0.72968 1.1331-1.0783 1.7105-1.1875 2.2363-2.3532 4.7501-3.3711 7.3975-0.47578 1.0352-0.95283 2.0575-1.4255 3.1246-5.3187 12.007-2.0949 34.321 7.0774 37.031 8.0582 2.381 8.4487 2.1845 16.405-8.284 9.1531-12.044 10.429-12.452 24.297-7.7591 5.5246 1.8693 15.18 5.1286 21.457 7.2444 30.65 10.332 37.553 11.329 78.357 11.304 3.3567-0.002 15.259-0.0102 26.448-0.0186 11.189-0.007 26.774-0.12242 34.633-0.25488 7.8586-0.1324 23.431-0.18293 34.604-0.11308 11.173 0.0698 27.321 0.10533 35.883 0.0784 16.599-0.0523 18.321 0.52077 20.792 6.9252 2.1294 5.518 4.9635 7.4601 10.397 7.1221 3.9726-0.24705 36.822-0.41757 56.87-0.29454 20.01 0.12284 88.7 0.26643 111.15 0.23209 14.548-0.0222 43.834 0.009 65.077 0.0711 21.243 0.0616 42.08-0.36617 46.302-0.94987 10.233-1.4146 54.28-8.9633 60.008-10.284 2.496-0.57556 12.622-2.3319 22.502-3.9036 9.8802-1.5716 26.043-5.0423 35.915-7.712l9.4382-2.5499c4.7104-0.81694 9.4342-1.4439 14.179-1.7566l16.274 1.565c21.517 2.0724 27.127-8.3701 28.53-14.144z" stroke="#006400" stroke-width="80" fill="#006400"/>
<g fill="none">
<path id="path4137" d="m783.57 123.46c0.2004-0.82487 0.31497-1.7586 0.37783-2.8092 0.51613-8.6268 3.5071-8.1783-60.011-8.9752-1.2403-0.0155-2.4932-0.0588-3.7512-0.11193-7.2524-0.62766-14.47-1.4787-21.626-2.6337-26.71-5.21-59.61-18.245-108.36-42.35-35.7-17.652-40.19-22.093-39.05-38.665 0.71-10.323 0.45-10.526-35.58-27.97-28.45-13.773-49.21-22.425-64.32-26.8-102.33-29.647-161.35-27.162-160.89 6.768 0.21687 16.042-0.75552 16.209-43.422 7.4845-45.194-9.2413-52.853-8.3482-72.008 8.3959-11.46 10.016-14.39 11.886-37.45 23.893-19.78 10.296-21.41 10.576-31.31 5.34-12.276-6.492-16.788-4.506-50.656 22.314-19.785 15.668-32.066 29.973-42.662 50.345-0.35486 0.57321-0.72968 1.1331-1.0783 1.7105-1.1875 2.2363-2.3532 4.7501-3.3711 7.3975-0.47578 1.0352-0.95283 2.0575-1.4255 3.1246-5.3187 12.007-2.0949 34.321 7.0774 37.031 8.0582 2.381 8.4487 2.1845 16.405-8.284 9.1531-12.044 10.429-12.452 24.297-7.7591 5.5246 1.8693 15.18 5.1286 21.457 7.2444 30.65 10.332 37.553 11.329 78.357 11.304 3.3567-0.002 15.259-0.0102 26.448-0.0186 11.189-0.007 26.774-0.12242 34.633-0.25488 7.8586-0.1324 23.431-0.18293 34.604-0.11308 11.173 0.0698 27.321 0.10533 35.883 0.0784 16.599-0.0523 18.321 0.52077 20.792 6.9252 2.1294 5.518 4.9635 7.4601 10.397 7.1221 3.9726-0.24705 36.822-0.41757 56.87-0.29454 20.01 0.12284 88.7 0.26643 111.15 0.23209 14.548-0.0222 43.834 0.009 65.077 0.0711 21.243 0.0616 42.08-0.36617 46.302-0.94987 10.233-1.4146 54.28-8.9633 60.008-10.284 2.496-0.57556 12.622-2.3319 22.502-3.9036 9.8802-1.5716 26.043-5.0423 35.915-7.712l9.4382-2.5499c4.7104-0.81694 9.4342-1.4439 14.179-1.7566l16.274 1.565c21.517 2.0724 27.127-8.3701 28.53-14.144z" stroke="#f00" stroke-width="26"/>
<path id="path4135" d="m783.57 123.46c0.2004-0.82487 0.31497-1.7586 0.37783-2.8092 0.51613-8.6268 3.5071-8.1783-60.011-8.9752-1.2403-0.0155-2.4932-0.0588-3.7512-0.11193-7.2524-0.62766-14.47-1.4787-21.626-2.6337-26.71-5.21-59.61-18.245-108.36-42.35-35.7-17.652-40.19-22.093-39.05-38.665 0.71-10.323 0.45-10.526-35.58-27.97-28.45-13.773-49.21-22.425-64.32-26.8-102.33-29.647-161.35-27.162-160.89 6.768 0.21687 16.042-0.75552 16.209-43.422 7.4845-45.194-9.2413-52.853-8.3482-72.008 8.3959-11.46 10.016-14.39 11.886-37.45 23.893-19.78 10.296-21.41 10.576-31.31 5.34-12.276-6.492-16.788-4.506-50.656 22.314-19.785 15.668-32.066 29.973-42.662 50.345-0.35486 0.57321-0.72968 1.1331-1.0783 1.7105-1.1875 2.2363-2.3532 4.7501-3.3711 7.3975-0.47578 1.0352-0.95283 2.0575-1.4255 3.1246-5.3187 12.007-2.0949 34.321 7.0774 37.031 8.0582 2.381 8.4487 2.1845 16.405-8.284 9.1531-12.044 10.429-12.452 24.297-7.7591 5.5246 1.8693 15.18 5.1286 21.457 7.2444 30.65 10.332 37.553 11.329 78.357 11.304 3.3567-0.002 15.259-0.0102 26.448-0.0186 11.189-0.007 26.774-0.12242 34.633-0.25488 7.8586-0.1324 23.431-0.18293 34.604-0.11308 11.173 0.0698 27.321 0.10533 35.883 0.0784 16.599-0.0523 18.321 0.52077 20.792 6.9252 2.1294 5.518 4.9635 7.4601 10.397 7.1221 3.9726-0.24705 36.822-0.41757 56.87-0.29454 20.01 0.12284 88.7 0.26643 111.15 0.23209 14.548-0.0222 43.834 0.009 65.077 0.0711 21.243 0.0616 42.08-0.36617 46.302-0.94987 10.233-1.4146 54.28-8.9633 60.008-10.284 2.496-0.57556 12.622-2.3319 22.502-3.9036 9.8802-1.5716 26.043-5.0423 35.915-7.712l9.4382-2.5499c4.7104-0.81694 9.4342-1.4439 14.179-1.7566l16.274 1.565c21.517 2.0724 27.127-8.3701 28.53-14.144z" stroke="#fff" stroke-dasharray="26.00010348, 26.00010348" stroke-width="26"/>
<path id="path4186" d="m783.57 123.46c0.2004-0.82487 0.31497-1.7586 0.37783-2.8092 0.51613-8.6268 3.5071-8.1783-60.011-8.9752-1.2403-0.0155-2.4932-0.0588-3.7512-0.11193-7.2524-0.62766-14.47-1.4787-21.626-2.6337-26.71-5.21-59.61-18.245-108.36-42.35-35.7-17.652-40.19-22.093-39.05-38.665 0.71-10.323 0.45-10.526-35.58-27.97-28.45-13.773-49.21-22.425-64.32-26.8-102.33-29.647-161.35-27.162-160.89 6.768 0.21687 16.042-0.75552 16.209-43.422 7.4845-45.194-9.2413-52.853-8.3482-72.008 8.3959-11.46 10.016-14.39 11.886-37.45 23.893-19.78 10.296-21.41 10.576-31.31 5.34-12.276-6.492-16.788-4.506-50.656 22.314-19.785 15.668-32.066 29.973-42.662 50.345-0.35486 0.57321-0.72968 1.1331-1.0783 1.7105-1.1875 2.2363-2.3532 4.7501-3.3711 7.3975-0.47578 1.0352-0.95283 2.0575-1.4255 3.1246-5.3187 12.007-2.0949 34.321 7.0774 37.031 8.0582 2.381 8.4487 2.1845 16.405-8.284 9.1531-12.044 10.429-12.452 24.297-7.7591 5.5246 1.8693 15.18 5.1286 21.457 7.2444 30.65 10.332 37.553 11.329 78.357 11.304 3.3567-0.002 15.259-0.0102 26.448-0.0186 11.189-0.007 26.774-0.12242 34.633-0.25488 7.8586-0.1324 23.431-0.18293 34.604-0.11308 11.173 0.0698 27.321 0.10533 35.883 0.0784 16.599-0.0523 18.321 0.52077 20.792 6.9252 2.1294 5.518 4.9635 7.4601 10.397 7.1221 3.9726-0.24705 36.822-0.41757 56.87-0.29454 20.01 0.12284 88.7 0.26643 111.15 0.23209 14.548-0.0222 43.834 0.009 65.077 0.0711 21.243 0.0616 42.08-0.36617 46.302-0.94987 10.233-1.4146 54.28-8.9633 60.008-10.284 2.496-0.57556 12.622-2.3319 22.502-3.9036 9.8802-1.5716 26.043-5.0423 35.915-7.712l9.4382-2.5499c4.7104-0.81694 9.4342-1.4439 14.179-1.7566l16.274 1.565c21.517 2.0724 27.127-8.3701 28.53-14.144z" stroke="#141414" stroke-width="20"/>
<path id="path4139" d="m783.57 123.46c0.2004-0.82487 0.31497-1.7586 0.37783-2.8092 0.51613-8.6268 3.5071-8.1783-60.011-8.9752-1.2403-0.0155-2.4932-0.0588-3.7512-0.11193-7.2524-0.62766-14.47-1.4787-21.626-2.6337-26.71-5.21-59.61-18.245-108.36-42.35-35.7-17.652-40.19-22.093-39.05-38.665 0.71-10.323 0.45-10.526-35.58-27.97-28.45-13.773-49.21-22.425-64.32-26.8-102.33-29.647-161.35-27.162-160.89 6.768 0.21687 16.042-0.75552 16.209-43.422 7.4845-45.194-9.2413-52.853-8.3482-72.008 8.3959-11.46 10.016-14.39 11.886-37.45 23.893-19.78 10.296-21.41 10.576-31.31 5.34-12.276-6.492-16.788-4.506-50.656 22.314-19.785 15.668-32.066 29.973-42.662 50.345-0.35486 0.57321-0.72968 1.1331-1.0783 1.7105-1.1875 2.2363-2.3532 4.7501-3.3711 7.3975-0.47578 1.0352-0.95283 2.0575-1.4255 3.1246-5.3187 12.007-2.0949 34.321 7.0774 37.031 8.0582 2.381 8.4487 2.1845 16.405-8.284 9.1531-12.044 10.429-12.452 24.297-7.7591 5.5246 1.8693 15.18 5.1286 21.457 7.2444 30.65 10.332 37.553 11.329 78.357 11.304 3.3567-0.002 15.259-0.0102 26.448-0.0186 11.189-0.007 26.774-0.12242 34.633-0.25488 7.8586-0.1324 23.431-0.18293 34.604-0.11308 11.173 0.0698 27.321 0.10533 35.883 0.0784 16.599-0.0523 18.321 0.52077 20.792 6.9252 2.1294 5.518 4.9635 7.4601 10.397 7.1221 3.9726-0.24705 36.822-0.41757 56.87-0.29454 20.01 0.12284 88.7 0.26643 111.15 0.23209 14.548-0.0222 43.834 0.009 65.077 0.0711 21.243 0.0616 42.08-0.36617 46.302-0.94987 10.233-1.4146 54.28-8.9633 60.008-10.284 2.496-0.57556 12.622-2.3319 22.502-3.9036 9.8802-1.5716 26.043-5.0423 35.915-7.712l9.4382-2.5499c4.7104-0.81694 9.4342-1.4439 14.179-1.7566l16.274 1.565c21.517 2.0724 27.127-8.3701 28.53-14.144z" stroke="#fff" stroke-dasharray="8.00003184, 2.00000796" stroke-width="2"/>
</g>
</g>
</svg>
