<?xml version="1.0" encoding="utf-8"?>
<!-- Generator: Adobe Illustrator 27.2.0, SVG Export Plug-In . SVG Version: 6.00 Build 0)  -->
<svg version="1.1" xmlns="http://www.w3.org/2000/svg" xmlns:xlink="http://www.w3.org/1999/xlink" x="0px" y="0px"
	 viewBox="0 0 550 443.7" style="enable-background:new 0 0 550 443.7;" xml:space="preserve">
<style type="text/css">
	.st0{fill:none;stroke:#646464;stroke-width:14.1732;stroke-miterlimit:10;}
	.st1{fill:none;stroke:#FFD449;stroke-width:2.8346;stroke-miterlimit:10;}
	.st2{fill:none;stroke:#54C6EB;stroke-width:2.8346;stroke-miterlimit:10;}
	.st3{fill:none;stroke:#F4442E;stroke-width:2.8346;stroke-miterlimit:10;}
	.st4{fill:none;stroke:#FFFFFF;stroke-width:2.126;}
	.st5{fill:#646464;}
	.st6{fill:#FFFFFF;}
	.st7{fill:#09BC8A;}
	.st8{fill:none;stroke:#646464;stroke-width:2.8346;stroke-miterlimit:10;}
	.st9{fill:none;stroke:#09BC8A;stroke-width:1.9843;stroke-miterlimit:10;}
	.st10{fill:none;stroke:#09BC8A;stroke-width:2.2097;stroke-miterlimit:10;}
	.st11{fill:#FF3380;}
	.st12{fill:none;stroke:#FF3380;stroke-width:1.9843;stroke-miterlimit:10;}
	.st13{fill:none;stroke:#646464;stroke-width:0.7087;stroke-miterlimit:10;}
	.st14{fill:none;stroke:#F4442E;stroke-width:5.6693;stroke-miterlimit:10;}
	.st15{fill:none;stroke:#54C6EB;stroke-width:5.6693;stroke-miterlimit:10;}
	.st16{fill:none;stroke:#FFD449;stroke-width:5.6693;stroke-miterlimit:10;}
	.st17{fill:none;stroke:#09BC8A;stroke-width:2.8346;stroke-miterlimit:10;}
	.st18{clip-path:url(#SVGID_00000137821575107936811930000017085020792101648007_);}
	.st19{fill:#F4442E;}
	.st20{fill:#54C6EB;}
	.st21{fill:#FFD449;}
</style>
<g id="コース">
	<path class="st0" d="M235,123.9c0,0,15.7,134.9,16.5,142.3c0.9,7.4,3.4,13.1,12.8,12c9.4-1.1,44.1-8.5,50.7-10.2
		c6.5-1.7,13.1-5.7,16.5-17.6c3.4-12,8.9-31.1,24.5-36.2c8.8-2.8,15.9-4.3,26.5-0.3s30.2,10.8,52.1,8.8s61.8-5.7,74.6-7.4
		c12.8-1.7,11.7-10,11.7-12.2s-2.6-6.5-8.3-8.8c-5.7-2.3-40.1-11.7-58.1-18.5c-17.9-6.8-99.4-37-111-41.3
		c-11.7-4.3-43.3-15.7-63.2-21.6S208,86.8,205.1,85.4c-2.8-1.4-7.1-1.4-6.5,3.1c0.6,4.6,1.4,10,1.6,12.1c0.2,2.1-1.2,4.6-4.2,5
		s-20.2,3.4-33.1,8.7c-13,5.3-25.8,10.2-53.3,44.5c-13.5,16.9-35.1,42.7-43,52.4s-12.9,19.3-15.5,24.6s-24.6,49.5-26.6,53.9
		s-0.4,13.8,7,20.2c8.5,7.3,36.3,9.4,38.6-22c0.8-10.2,5-46.8,5.3-50c0.3-3.2,2.5-8,4.5-11.4c2-3.4,13-19.6,15.1-22.7
		c2-3.1,3.7-5,9.1-5.9c5.4-0.9,24.9-5,28.4-5.3c3.5-0.3,4.4,1.2,5,5.4c0.6,4.2,2.3,17.3,2.8,20.5c0.4,3.2,5.7,9.1,13.2,9.4
		c7.5,0.3,11.7,0.1,16.1-0.1c4.4-0.3,11.1-7.2,9.5-19.3s-5.6-48.7-6-53.4s0.7-14.6,10.1-19.8c9.4-5.1,24.6-13.3,27.7-15.1
		c3.1-1.8,5.6-2.8,9.5-3.4c4-0.6,6.1-0.9,8.6-0.9C231.4,116,234.1,115.8,235,123.9z"/>
</g>
<g id="セクター">
	<path class="st1" d="M31.8,274.7c-3.7,7.5-6.7,13.6-7.4,15c-2,4.4-0.4,13.8,7,20.2c8.5,7.3,36.3,9.4,38.6-22
		c0.8-10.2,5-46.8,5.3-50c0.3-3.2,2.5-8,4.5-11.4c2-3.4,13-19.6,15.1-22.7c2-3.1,3.7-5,9.1-5.9c5.4-0.9,24.9-5,28.4-5.3
		c3.5-0.3,4.4,1.2,5,5.4c0.6,4.2,2.3,17.3,2.8,20.5c0.4,3.2,5.7,9.1,13.2,9.4c7.5,0.3,11.7,0.1,16.1-0.1c4.4-0.3,11.1-7.2,9.5-19.3
		s-5.6-48.7-6-53.4s0.7-14.6,10.1-19.8c9.4-5.1,24.6-13.3,27.7-15.1c3.1-1.8,5.6-2.8,9.5-3.4c4-0.6,6.1-0.9,8.6-0.9
		c2.5,0,5.2-0.2,6.1,7.9c0,0,1.4,12.4,3.5,30"/>
	<path class="st2" d="M463,220c18.6-1.8,38-3.7,46.2-4.8c12.8-1.7,11.7-10,11.7-12.2s-2.6-6.5-8.3-8.8c-5.7-2.3-40.1-11.7-58.1-18.5
		c-17.9-6.8-99.4-37-111-41.3c-11.7-4.3-43.3-15.7-63.2-21.6S208,86.8,205.1,85.4c-2.8-1.4-7.1-1.4-6.5,3.1c0.6,4.6,1.4,10,1.6,12.1
		c0.2,2.1-1.2,4.6-4.2,5s-20.2,3.4-33.1,8.7c-13,5.3-25.8,10.2-53.3,44.5c-13.5,16.9-35.1,42.7-43,52.4s-12.9,19.3-15.5,24.6
		c-1.7,3.5-12,24.1-19.3,38.8"/>
	<path class="st3" d="M238.5,153.8c4.7,40.2,12.4,107.2,13,112.4c0.9,7.4,3.4,13.1,12.8,12c9.4-1.1,44.1-8.5,50.7-10.2
		c6.5-1.7,13.1-5.7,16.5-17.6c3.4-12,8.9-31.1,24.5-36.2c8.8-2.8,15.9-4.3,26.5-0.3s30.2,10.8,52.1,8.8c7.9-0.7,18-1.6,28.4-2.6"/>
</g>
<g id="コーナー番号">
	<g>
		<g>
			<circle class="st4" cx="246.1" cy="294" r="8.5"/>
			<circle class="st5" cx="246.1" cy="294" r="8.5"/>
		</g>
		<g>
			<path class="st6" d="M244.4,297.9v-1.6h1v-4.5h-0.9v-1.6h2.6v6.1h0.9v1.6H244.4z"/>
		</g>
	</g>
	<g>
		<g>
			<circle class="st4" cx="338.9" cy="276.9" r="8.5"/>
			<circle class="st5" cx="338.9" cy="276.9" r="8.5"/>
		</g>
		<g>
			<path class="st6" d="M336.8,280.8v-2.6c0-0.6,0.1-1,0.6-1.2l1.9-0.8v-1.6l-0.1-0.1h-0.5l-0.1,0.1v1.1h-1.7v-1.3
				c0-0.8,0.4-1.1,0.8-1.3h2.5c0.5,0.2,0.8,0.5,0.8,1.3v1.9c0,0.6-0.1,0.9-0.6,1.2l-1.9,0.8v0.9h2.4v1.6H336.8z"/>
		</g>
	</g>
	<g>
		<g>
			<circle class="st4" cx="347" cy="198" r="8.5"/>
			<circle class="st5" cx="347" cy="198" r="8.5"/>
		</g>
		<g>
			<path class="st6" d="M345.8,201.9c-0.5-0.2-0.8-0.5-0.8-1.3v-1h1.7v0.8l0.1,0.1h0.5l0.1-0.1v-1.6l-0.1-0.1h-1v-1.3h1l0.1-0.1
				v-1.5l-0.1-0.1h-0.5l-0.1,0.1v0.8h-1.7v-1c0-0.8,0.4-1.1,0.8-1.3h2.5c0.5,0.2,0.8,0.5,0.8,1.3v1.3c0,0.6-0.2,0.9-0.6,1.2
				c0.4,0.3,0.6,0.6,0.6,1.2v1.4c0,0.8-0.4,1.1-0.8,1.3H345.8z"/>
		</g>
	</g>
	<g>
		<g>
			<circle class="st4" cx="413.7" cy="242.6" r="8.5"/>
			<circle class="st5" cx="413.7" cy="242.6" r="8.5"/>
		</g>
		<g>
			<path class="st6" d="M415.4,245v1.5h-1.7V245h-2.2v-1.5l1.6-4.7h1.7l-1.6,4.6h0.5v-0.4l0.4-1h1.3v1.4h0.5v1.6H415.4z"/>
		</g>
	</g>
	<g>
		<g>
			<circle class="st4" cx="538.5" cy="209.9" r="8.5"/>
			<circle class="st5" cx="538.5" cy="209.9" r="8.5"/>
		</g>
		<g>
			<path class="st6" d="M537.2,213.8c-0.5-0.2-0.8-0.5-0.8-1.3v-1h1.6v0.8l0.1,0.1h0.6l0.1-0.1v-2.1l-0.1-0.1h-0.6l-0.1,0.1v0.4
				h-1.6v-4.5h4v1.5H538v1.6l0.4-0.4h1.3c0.5,0.2,0.8,0.5,0.8,1.3v2.4c0,0.8-0.4,1.1-0.8,1.3H537.2z"/>
		</g>
	</g>
	<g>
		<g>
			<circle class="st4" cx="192.8" cy="64.8" r="8.5"/>
			<circle class="st5" cx="192.8" cy="64.8" r="8.5"/>
		</g>
		<g>
			<path class="st6" d="M194,68.6h-2.5c-0.5-0.2-0.8-0.5-0.8-1.3v-5.1c0-0.8,0.4-1.1,0.8-1.3h2.5c0.5,0.2,0.8,0.5,0.8,1.3v1h-1.7
				v-0.8l-0.1-0.1h-0.5l-0.1,0.1v1.8l0.3-0.3h1.3c0.5,0.2,0.8,0.5,0.8,1.3v2.2C194.9,68.2,194.5,68.5,194,68.6z M193.1,67.3l0.1-0.1
				v-1.8l-0.1-0.1h-0.5l-0.1,0.1v1.8l0.1,0.1H193.1z"/>
		</g>
	</g>
	<g>
		<g>
			<circle class="st4" cx="180.1" cy="89.6" r="8.5"/>
			<circle class="st5" cx="180.1" cy="89.6" r="8.5"/>
		</g>
		<g>
			<path class="st6" d="M178.3,93.5l2.1-6.2H178v-1.5h4.1V87l-2.1,6.5H178.3z"/>
		</g>
	</g>
	<g>
		<g>
			<circle class="st4" cx="153" cy="140.6" r="8.5"/>
			<circle class="st5" cx="153" cy="140.6" r="8.5"/>
		</g>
		<g>
			<path class="st6" d="M151.8,144.4c-0.5-0.2-0.8-0.5-0.8-1.3v-1.4c0-0.6,0.2-0.9,0.6-1.2c-0.4-0.3-0.6-0.6-0.6-1.2V138
				c0-0.8,0.4-1.1,0.8-1.3h2.5c0.5,0.2,0.8,0.5,0.8,1.3v1.3c0,0.6-0.2,0.9-0.6,1.2c0.4,0.3,0.6,0.6,0.6,1.2v1.4
				c0,0.8-0.4,1.1-0.8,1.3H151.8z M152.7,139.8l0.1,0.1h0.5l0.1-0.1v-1.5l-0.1-0.1h-0.5l-0.1,0.1V139.8z M153.4,142.9v-1.6l-0.1-0.1
				h-0.5l-0.1,0.1v1.6l0.1,0.1h0.5L153.4,142.9z"/>
		</g>
	</g>
	<g>
		<g>
			<circle class="st4" cx="34.8" cy="332.6" r="8.5"/>
			<circle class="st5" cx="34.8" cy="332.6" r="8.5"/>
		</g>
		<g>
			<path class="st6" d="M33.5,336.5c-0.5-0.2-0.8-0.5-0.8-1.3v-1h1.7v0.8l0.1,0.1H35l0.1-0.1v-1.8l-0.3,0.3h-1.3
				c-0.5-0.2-0.8-0.5-0.8-1.3v-2.2c0-0.8,0.4-1.1,0.8-1.3H36c0.5,0.2,0.8,0.5,0.8,1.3v5.1c0,0.8-0.4,1.1-0.8,1.3H33.5z M35.1,332.2
				v-1.8l-0.1-0.1h-0.5l-0.1,0.1v1.8l0.1,0.1H35L35.1,332.2z"/>
		</g>
	</g>
	<g>
		<g>
			<circle class="st4" cx="144.7" cy="175.2" r="8.5"/>
			<circle class="st5" cx="144.7" cy="175.2" r="8.5"/>
		</g>
		<g>
			<path class="st6" d="M140.6,179.1v-1.6h1v-4.5h-0.9v-1.6h2.6v6.1h0.9v1.6H140.6z"/>
			<path class="st6" d="M144.9,179.1v-2.6c0-0.6,0.1-1,0.6-1.2l1.9-0.8v-1.6l-0.1-0.1h-0.5l-0.1,0.1v1.1h-1.7v-1.3
				c0-0.8,0.4-1.1,0.8-1.3h2.5c0.5,0.2,0.8,0.5,0.8,1.3v1.9c0,0.6-0.1,0.9-0.6,1.2l-1.9,0.8v0.9h2.4v1.6H144.9z"/>
		</g>
	</g>
	<g>
		<g>
			<circle class="st4" cx="129" cy="240.5" r="8.5"/>
			<circle class="st5" cx="129" cy="240.5" r="8.5"/>
		</g>
		<g>
			<path class="st6" d="M124.9,244.3v-1.6h1v-4.5H125v-1.6h2.6v6.1h0.9v1.6H124.9z"/>
			<path class="st6" d="M130,244.3c-0.5-0.2-0.8-0.5-0.8-1.3v-1h1.7v0.8l0.1,0.1h0.5l0.1-0.1v-1.6l-0.1-0.1h-1v-1.3h1l0.1-0.1v-1.5
				l-0.1-0.1H131l-0.1,0.1v0.8h-1.7v-1c0-0.8,0.4-1.1,0.8-1.3h2.5c0.5,0.2,0.8,0.5,0.8,1.3v1.3c0,0.6-0.2,0.9-0.6,1.2
				c0.4,0.3,0.6,0.6,0.6,1.2v1.4c0,0.8-0.4,1.1-0.8,1.3H130z"/>
		</g>
	</g>
	<g>
		<g>
			<circle class="st4" cx="190.8" cy="237.4" r="8.5"/>
			<circle class="st5" cx="190.8" cy="237.4" r="8.5"/>
		</g>
		<g>
			<path class="st6" d="M186.7,241.3v-1.6h1v-4.5h-0.9v-1.6h2.6v6.1h0.9v1.6H186.7z"/>
			<path class="st6" d="M194.8,239.8v1.5h-1.7v-1.5h-2.2v-1.5l1.6-4.7h1.7l-1.6,4.6h0.5v-0.4l0.4-1h1.3v1.4h0.5v1.6H194.8z"/>
		</g>
	</g>
	<g>
		<g>
			<circle class="st4" cx="193.4" cy="152.3" r="8.5"/>
			<circle class="st5" cx="193.4" cy="152.3" r="8.5"/>
		</g>
		<g>
			<path class="st6" d="M189.4,156.2v-1.6h1v-4.5h-0.9v-1.6h2.6v6.1h0.9v1.6H189.4z"/>
			<path class="st6" d="M194.5,156.2c-0.5-0.2-0.8-0.5-0.8-1.3v-1h1.6v0.8l0.1,0.1h0.6l0.1-0.1v-2.1l-0.1-0.1h-0.6l-0.1,0.1v0.4
				h-1.6v-4.5h4v1.5h-2.4v1.6l0.4-0.4h1.3c0.5,0.2,0.8,0.5,0.8,1.3v2.4c0,0.8-0.4,1.1-0.8,1.3H194.5z"/>
		</g>
	</g>
	<g>
		<g>
			<circle class="st4" cx="217.4" cy="137.4" r="8.5"/>
			<circle class="st5" cx="217.4" cy="137.4" r="8.5"/>
		</g>
		<g>
			<path class="st6" d="M213.3,141.3v-1.6h1v-4.5h-0.9v-1.6h2.6v6.1h0.9v1.6H213.3z"/>
			<path class="st6" d="M221,141.3h-2.5c-0.5-0.2-0.8-0.5-0.8-1.3v-5.1c0-0.8,0.4-1.1,0.8-1.3h2.5c0.5,0.2,0.8,0.5,0.8,1.3v1h-1.7
				v-0.8L220,135h-0.5l-0.1,0.1v1.8l0.3-0.3h1.3c0.5,0.2,0.8,0.5,0.8,1.3v2.2C221.8,140.8,221.4,141.1,221,141.3z M220,139.9
				l0.1-0.1v-1.8l-0.1-0.1h-0.5l-0.1,0.1v1.8l0.1,0.1H220z"/>
		</g>
	</g>
	<g>
		<g>
			<circle class="st4" cx="95.6" cy="240.9" r="8.5"/>
			<circle class="st5" cx="95.6" cy="240.9" r="8.5"/>
		</g>
		<g>
			<path class="st6" d="M91.5,244.8v-1.6h1v-4.5h-0.9v-1.6h2.6v6.1h0.9v1.6H91.5z"/>
			<path class="st6" d="M99.2,244.8h-2.5c-0.5-0.2-0.8-0.5-0.8-1.3v-5.1c0-0.8,0.4-1.1,0.8-1.3h2.5c0.5,0.2,0.8,0.5,0.8,1.3v5.1
				C100,244.3,99.6,244.6,99.2,244.8z M98.3,238.6l-0.1-0.1h-0.5l-0.1,0.1v4.7l0.1,0.1h0.5l0.1-0.1V238.6z"/>
		</g>
	</g>
	<g>
		<g>
			<circle class="st4" cx="111.5" cy="217.5" r="8.5"/>
			<circle class="st5" cx="111.5" cy="217.5" r="8.5"/>
		</g>
		<g>
			<path class="st6" d="M107.4,221.3v-1.6h1v-4.5h-0.9v-1.6h2.6v6.1h0.9v1.6H107.4z"/>
			<path class="st6" d="M112.1,221.3v-1.6h1v-4.5h-0.9v-1.6h2.6v6.1h0.9v1.6H112.1z"/>
		</g>
	</g>
</g>
<g id="DRS">
	<g>
		<g>
			<path class="st7" d="M486.6,312.1c0,0.8-0.6,1.4-1.4,1.4h-67.6c-0.8,0-1.4-0.6-1.4-1.4v-48.8c0-0.8,0.6-1.4,1.4-1.4h67.6
				c0.8,0,1.4,0.6,1.4,1.4V312.1z"/>
		</g>
		<g>
			<path class="st6" d="M447.5,277.5c0,1.3-0.6,1.7-1.3,2H441v-12h5.2c0.7,0.3,1.3,0.7,1.3,2V277.5z M443.6,269.7v7.7h1l0.2-0.2
				v-7.3l-0.2-0.2H443.6z"/>
			<path class="st6" d="M448.3,279.5v-12h5.2c0.7,0.3,1.3,0.7,1.3,2v2.5c0,1.1-0.5,1.6-1.1,1.9l1.4,3.8v1.7h-2.3l-1.5-4.7H451v4.7
				H448.3z M451,269.7v3h1l0.2-0.2v-2.7l-0.2-0.2H451z"/>
			<path class="st6" d="M462,274.8v2.7c0,1.3-0.6,1.7-1.3,2h-3.9c-0.7-0.3-1.3-0.7-1.3-2v-2.4h2.7v2l0.2,0.2h0.8l0.2-0.2v-1.8
				l-0.2-0.2l-2.7-1.2c-0.8-0.4-0.9-0.9-0.9-1.8v-2.5c0-1.3,0.6-1.7,1.3-2h3.9c0.7,0.3,1.3,0.7,1.3,2v2.2h-2.7v-1.9l-0.2-0.2h-0.8
				l-0.2,0.2v1.7l0.2,0.3l2.7,1.1C461.9,273.3,462,273.9,462,274.8z"/>
			<path class="st6" d="M428.4,291.7c0,1.3-0.6,1.7-1.3,2h-5.2v-12h5.2c0.7,0.3,1.3,0.7,1.3,2V291.7z M424.6,283.9v7.7h1l0.2-0.2
				v-7.3l-0.2-0.2H424.6z"/>
			<path class="st6" d="M429.2,281.7h5.5v2.5h-2.8v2.2h2.7v2.5h-2.7v2.3h2.9v2.5h-5.6V281.7z"/>
			<path class="st6" d="M439.9,284.2v9.5h-2.7v-9.5h-1.9v-2.5h6.5v2.5H439.9z"/>
			<path class="st6" d="M442.3,281.7h5.5v2.5h-2.8v2.2h2.7v2.5h-2.7v2.3h2.9v2.5h-5.6V281.7z"/>
			<path class="st6" d="M455.2,291.7c0,1.3-0.6,1.7-1.3,2H450c-0.7-0.3-1.3-0.7-1.3-2v-8c0-1.3,0.6-1.7,1.3-2h3.9
				c0.7,0.3,1.3,0.7,1.3,2v2.9h-2.7v-2.6l-0.2-0.2h-0.8l-0.2,0.2v7.3l0.2,0.2h0.8l0.2-0.2v-2.5h2.7V291.7z"/>
			<path class="st6" d="M460.3,284.2v9.5h-2.7v-9.5h-1.9v-2.5h6.5v2.5H460.3z"/>
			<path class="st6" d="M462.7,293.7v-2.5h0.5v-7h-0.5v-2.5h3.7v2.5h-0.5v7h0.5v2.5H462.7z"/>
			<path class="st6" d="M473.6,291.7c0,1.3-0.6,1.7-1.3,2h-3.9c-0.7-0.3-1.3-0.7-1.3-2v-8c0-1.3,0.6-1.7,1.3-2h3.9
				c0.7,0.3,1.3,0.7,1.3,2V291.7z M471,284.1l-0.2-0.2H470l-0.2,0.2v7.3l0.2,0.2h0.8l0.2-0.2V284.1z"/>
			<path class="st6" d="M478.6,281.7h2.3v12h-2.3l-1.7-5.2h-0.2v5.2h-2.3v-12h2.3l1.7,5.2h0.2V281.7z"/>
			<path class="st6" d="M436.3,298.4h-3.5v-2.5h6.5v2.2l-3.5,7.3h3.5v2.5h-6.5v-2.2L436.3,298.4z"/>
			<path class="st6" d="M446.6,305.9c0,1.3-0.6,1.7-1.3,2h-3.9c-0.7-0.3-1.3-0.7-1.3-2v-8c0-1.3,0.6-1.7,1.3-2h3.9
				c0.7,0.3,1.3,0.7,1.3,2V305.9z M443.9,298.2l-0.2-0.2h-0.8l-0.2,0.2v7.3l0.2,0.2h0.8l0.2-0.2V298.2z"/>
			<path class="st6" d="M451.6,295.9h2.3v12h-2.3l-1.7-5.2h-0.2v5.2h-2.3v-12h2.3l1.7,5.2h0.2V295.9z"/>
			<path class="st6" d="M454.7,295.9h5.5v2.5h-2.8v2.2h2.7v2.5h-2.7v2.3h2.9v2.5h-5.6V295.9z"/>
			<path class="st6" d="M464.2,307.9v-2.5h1.5v-7h-1.3v-2.5h4v9.5h1.3v2.5H464.2z"/>
		</g>
	</g>
	<g>
		<g>
			<path class="st7" d="M113.7,105.2c0,0.8-0.6,1.4-1.4,1.4H44.7c-0.8,0-1.4-0.6-1.4-1.4V56.4c0-0.8,0.6-1.4,1.4-1.4H77
				c0.8,0,2.1,0,2.8,0h32.4c0.8,0,1.4,0.6,1.4,1.4V105.2z"/>
		</g>
		<g>
			<path class="st6" d="M74.5,70.6c0,1.3-0.6,1.7-1.3,2H68v-12h5.2c0.7,0.3,1.3,0.7,1.3,2V70.6z M70.7,62.8v7.7h1l0.2-0.2V63
				l-0.2-0.2H70.7z"/>
			<path class="st6" d="M75.3,72.6v-12h5.2c0.7,0.3,1.3,0.7,1.3,2v2.5c0,1.1-0.5,1.6-1.1,1.9l1.4,3.8v1.7h-2.3L78.3,68H78v4.7H75.3z
				 M78,62.8v3h1l0.2-0.2V63L79,62.8H78z"/>
			<path class="st6" d="M89,67.9v2.7c0,1.3-0.6,1.7-1.3,2h-3.9c-0.7-0.3-1.3-0.7-1.3-2v-2.4h2.7v2l0.2,0.2h0.8l0.2-0.2v-1.8
				l-0.1-0.2L83.5,67c-0.8-0.4-0.9-0.9-0.9-1.8v-2.5c0-1.3,0.6-1.7,1.3-2h3.9c0.7,0.3,1.3,0.7,1.3,2v2.2h-2.7V63l-0.2-0.2h-0.8
				L85.2,63v1.7l0.2,0.3l2.7,1.1C88.9,66.4,89,67,89,67.9z"/>
			<path class="st6" d="M55.4,84.8c0,1.3-0.6,1.7-1.3,2h-5.2v-12h5.2c0.7,0.3,1.3,0.7,1.3,2V84.8z M51.6,77v7.7h1l0.2-0.2v-7.3
				L52.6,77H51.6z"/>
			<path class="st6" d="M56.2,74.8h5.5v2.5h-2.8v2.2h2.7V82h-2.7v2.3h2.9v2.5h-5.6V74.8z"/>
			<path class="st6" d="M66.9,77.3v9.5h-2.7v-9.5h-1.9v-2.5h6.5v2.5H66.9z"/>
			<path class="st6" d="M69.3,74.8h5.5v2.5H72v2.2h2.7V82H72v2.3h2.9v2.5h-5.6V74.8z"/>
			<path class="st6" d="M82.2,84.8c0,1.3-0.6,1.7-1.3,2H77c-0.7-0.3-1.3-0.7-1.3-2v-8c0-1.3,0.6-1.7,1.3-2h3.9
				c0.7,0.3,1.3,0.7,1.3,2v2.9h-2.7v-2.6L79.4,77h-0.8l-0.2,0.2v7.3l0.2,0.2h0.8l0.2-0.2V82h2.7V84.8z"/>
			<path class="st6" d="M87.3,77.3v9.5h-2.7v-9.5h-1.9v-2.5h6.5v2.5H87.3z"/>
			<path class="st6" d="M89.7,86.8v-2.5h0.5v-7h-0.5v-2.5h3.7v2.5h-0.5v7h0.5v2.5H89.7z"/>
			<path class="st6" d="M100.7,84.8c0,1.3-0.6,1.7-1.3,2h-3.9c-0.7-0.3-1.3-0.7-1.3-2v-8c0-1.3,0.6-1.7,1.3-2h3.9
				c0.7,0.3,1.3,0.7,1.3,2V84.8z M98,77.2L97.8,77H97l-0.2,0.2v7.3l0.2,0.2h0.8l0.2-0.2V77.2z"/>
			<path class="st6" d="M105.7,74.8h2.3v12h-2.3l-1.7-5.2h-0.2v5.2h-2.3v-12h2.3l1.7,5.2h0.2V74.8z"/>
			<path class="st6" d="M63.3,91.5h-3.5V89h6.5v2.2l-3.5,7.3h3.5v2.5h-6.5v-2.2L63.3,91.5z"/>
			<path class="st6" d="M73.6,99c0,1.3-0.6,1.7-1.3,2h-3.9c-0.7-0.3-1.3-0.7-1.3-2v-8c0-1.3,0.6-1.7,1.3-2h3.9
				c0.7,0.3,1.3,0.7,1.3,2V99z M70.9,91.3l-0.2-0.2h-0.8l-0.2,0.2v7.3l0.2,0.2h0.8l0.2-0.2V91.3z"/>
			<path class="st6" d="M78.6,89h2.3v12h-2.3l-1.7-5.2h-0.2v5.2h-2.3V89h2.3l1.7,5.2h0.2V89z"/>
			<path class="st6" d="M81.7,89h5.5v2.5h-2.8v2.2h2.7v2.5h-2.7v2.3h2.9v2.5h-5.6V89z"/>
			<path class="st6" d="M90.6,101v-4c0-0.9,0.2-1.5,0.9-1.8l2.9-1.3v-2.5l-0.2-0.2h-0.8l-0.2,0.2v1.7h-2.7V91c0-1.3,0.6-1.7,1.3-2
				h3.9c0.7,0.3,1.3,0.7,1.3,2v3c0,0.9-0.1,1.5-0.9,1.8l-2.9,1.3v1.3h3.8v2.5H90.6z"/>
		</g>
	</g>
	<g>
		<circle class="st8" cx="174.8" cy="110.4" r="4.7"/>
		<circle class="st7" cx="174.8" cy="110.4" r="4.7"/>
	</g>
	<g>
		<circle class="st8" cx="451.4" cy="221.3" r="4.7"/>
		<circle class="st7" cx="451.4" cy="221.3" r="4.7"/>
	</g>
	<g>
		<path class="st7" d="M422,287.7"/>
	</g>
	<g>
		<line class="st9" x1="451.4" y1="221.3" x2="451.4" y2="261.9"/>
	</g>
	<g>
		<path class="st9" d="M174.8,110.4h-17.2c-4.7,0-8.5-3.8-8.5-8.5V90.8c0-4.7-3.8-8.5-8.5-8.5h-26.9"/>
	</g>
	<g>
		<g>
			<g>
				<g>
					<line class="st10" x1="465.4" y1="169.4" x2="469.2" y2="158.5"/>
				</g>
				<g>
					<path class="st7" d="M462.1,162.1c0.2-0.6,0.8-0.9,1.4-0.7s0.9,0.8,0.7,1.4c-0.2,0.6-0.8,0.9-1.4,0.7
						C462.2,163.3,461.9,162.7,462.1,162.1z"/>
				</g>
				<g>
					<path class="st7" d="M457.9,160.6c0.2-0.6,0.8-0.9,1.4-0.7c0.6,0.2,0.9,0.8,0.7,1.4c-0.2,0.6-0.8,0.9-1.4,0.7
						C458,161.8,457.7,161.2,457.9,160.6z"/>
				</g>
				<g>
					<path class="st7" d="M453.8,159.1c0.2-0.6,0.8-0.9,1.4-0.7c0.6,0.2,0.9,0.8,0.7,1.4s-0.8,0.9-1.4,0.7
						C453.9,160.3,453.6,159.6,453.8,159.1z"/>
				</g>
				<g>
					<path class="st7" d="M449.6,157.6c0.2-0.6,0.8-0.9,1.4-0.7c0.6,0.2,0.9,0.8,0.7,1.4s-0.8,0.9-1.4,0.7
						C449.7,158.8,449.4,158.1,449.6,157.6z"/>
				</g>
				<g>
					<path class="st7" d="M445.5,156.1c0.2-0.6,0.8-0.9,1.4-0.7s0.9,0.8,0.7,1.4c-0.2,0.6-0.8,0.9-1.4,0.7
						C445.6,157.3,445.3,156.6,445.5,156.1z"/>
				</g>
				<g>
					<path class="st7" d="M441.4,154.5c0.2-0.6,0.8-0.9,1.4-0.7c0.6,0.2,0.9,0.8,0.7,1.4c-0.2,0.6-0.8,0.9-1.4,0.7
						C441.5,155.8,441.2,155.1,441.4,154.5z"/>
				</g>
				<g>
					<path class="st7" d="M437.2,153c0.2-0.6,0.8-0.9,1.4-0.7s0.9,0.8,0.7,1.4c-0.2,0.6-0.8,0.9-1.4,0.7
						C437.3,154.3,437,153.6,437.2,153z"/>
				</g>
				<g>
					<path class="st7" d="M433.1,151.5c0.2-0.6,0.8-0.9,1.4-0.7s0.9,0.8,0.7,1.4c-0.2,0.6-0.8,0.9-1.4,0.7
						C433.2,152.7,432.9,152.1,433.1,151.5z"/>
				</g>
				<g>
					<path class="st7" d="M428.9,150c0.2-0.6,0.8-0.9,1.4-0.7s0.9,0.8,0.7,1.4c-0.2,0.6-0.8,0.9-1.4,0.7
						C429,151.2,428.7,150.6,428.9,150z"/>
				</g>
				<g>
					<path class="st7" d="M424.8,148.5c0.2-0.6,0.8-0.9,1.4-0.7c0.6,0.2,0.9,0.8,0.7,1.4c-0.2,0.6-0.8,0.9-1.4,0.7
						C424.9,149.7,424.6,149.1,424.8,148.5z"/>
				</g>
				<g>
					<path class="st7" d="M420.6,147c0.2-0.6,0.8-0.9,1.4-0.7s0.9,0.8,0.7,1.4c-0.2,0.6-0.8,0.9-1.4,0.7
						C420.7,148.2,420.4,147.6,420.6,147z"/>
				</g>
				<g>
					<path class="st7" d="M416.5,145.5c0.2-0.6,0.8-0.9,1.4-0.7c0.6,0.2,0.9,0.8,0.7,1.4c-0.2,0.6-0.8,0.9-1.4,0.7
						C416.6,146.7,416.3,146.1,416.5,145.5z"/>
				</g>
				<g>
					<path class="st7" d="M412.3,144c0.2-0.6,0.8-0.9,1.4-0.7s0.9,0.8,0.7,1.4c-0.2,0.6-0.8,0.9-1.4,0.7
						C412.4,145.2,412.1,144.6,412.3,144z"/>
				</g>
				<g>
					<path class="st7" d="M408.2,142.5c0.2-0.6,0.8-0.9,1.4-0.7s0.9,0.8,0.7,1.4c-0.2,0.6-0.8,0.9-1.4,0.7
						C408.3,143.7,408,143.1,408.2,142.5z"/>
				</g>
				<g>
					<path class="st7" d="M404.1,141c0.2-0.6,0.8-0.9,1.4-0.7c0.6,0.2,0.9,0.8,0.7,1.4c-0.2,0.6-0.8,0.9-1.4,0.7
						C404.2,142.2,403.9,141.6,404.1,141z"/>
				</g>
				<g>
					<path class="st7" d="M399.9,139.5c0.2-0.6,0.8-0.9,1.4-0.7s0.9,0.8,0.7,1.4c-0.2,0.6-0.8,0.9-1.4,0.7
						C400,140.7,399.7,140.1,399.9,139.5z"/>
				</g>
				<g>
					<path class="st7" d="M395.8,138c0.2-0.6,0.8-0.9,1.4-0.7s0.9,0.8,0.7,1.4c-0.2,0.6-0.8,0.9-1.4,0.7
						C395.9,139.2,395.6,138.5,395.8,138z"/>
				</g>
				<g>
					<path class="st7" d="M391.6,136.5c0.2-0.6,0.8-0.9,1.4-0.7s0.9,0.8,0.7,1.4c-0.2,0.6-0.8,0.9-1.4,0.7
						C391.7,137.7,391.4,137,391.6,136.5z"/>
				</g>
				<g>
					<path class="st7" d="M387.5,135c0.2-0.6,0.8-0.9,1.4-0.7s0.9,0.8,0.7,1.4c-0.2,0.6-0.8,0.9-1.4,0.7
						C387.6,136.2,387.3,135.5,387.5,135z"/>
				</g>
				<g>
					<path class="st7" d="M383.3,133.5c0.2-0.6,0.8-0.9,1.4-0.7c0.6,0.2,0.9,0.8,0.7,1.4c-0.2,0.6-0.8,0.9-1.4,0.7
						S383.1,134,383.3,133.5z"/>
				</g>
				<g>
					<path class="st7" d="M379.2,131.9c0.2-0.6,0.8-0.9,1.4-0.7s0.9,0.8,0.7,1.4c-0.2,0.6-0.8,0.9-1.4,0.7
						C379.3,133.2,379,132.5,379.2,131.9z"/>
				</g>
				<g>
					<path class="st7" d="M375,130.4c0.2-0.6,0.8-0.9,1.4-0.7c0.6,0.2,0.9,0.8,0.7,1.4c-0.2,0.6-0.8,0.9-1.4,0.7
						C375.1,131.6,374.8,131,375,130.4z"/>
				</g>
				<g>
					<path class="st7" d="M370.9,128.9c0.2-0.6,0.8-0.9,1.4-0.7s0.9,0.8,0.7,1.4s-0.8,0.9-1.4,0.7
						C371,130.1,370.7,129.5,370.9,128.9z"/>
				</g>
				<g>
					<path class="st7" d="M366.8,127.4c0.2-0.6,0.8-0.9,1.4-0.7c0.6,0.2,0.9,0.8,0.7,1.4c-0.2,0.6-0.8,0.9-1.4,0.7
						C366.8,128.6,366.5,128,366.8,127.4z"/>
				</g>
				<g>
					<path class="st7" d="M362.6,126c0.2-0.6,0.8-0.9,1.4-0.7c0.6,0.2,0.9,0.8,0.7,1.4s-0.8,0.9-1.4,0.7
						C362.7,127.2,362.4,126.6,362.6,126z"/>
				</g>
				<g>
					<path class="st7" d="M358.4,124.5c0.2-0.6,0.8-0.9,1.4-0.7c0.6,0.2,0.9,0.8,0.7,1.4c-0.2,0.6-0.8,0.9-1.4,0.7
						C358.5,125.7,358.2,125.1,358.4,124.5z"/>
				</g>
				<g>
					<path class="st7" d="M354.3,123.1c0.2-0.6,0.8-0.9,1.4-0.7c0.6,0.2,0.9,0.8,0.7,1.4c-0.2,0.6-0.8,0.9-1.4,0.7
						S354.1,123.7,354.3,123.1z"/>
				</g>
				<g>
					<path class="st7" d="M350.1,121.6c0.2-0.6,0.8-0.9,1.4-0.7c0.6,0.2,0.9,0.8,0.7,1.4c-0.2,0.6-0.8,0.9-1.4,0.7
						S349.9,122.2,350.1,121.6z"/>
				</g>
				<g>
					<path class="st7" d="M345.9,120.2c0.2-0.6,0.8-0.9,1.4-0.7c0.6,0.2,0.9,0.8,0.7,1.4c-0.2,0.6-0.8,0.9-1.4,0.7
						C346,121.4,345.7,120.7,345.9,120.2z"/>
				</g>
				<g>
					<path class="st7" d="M341.8,118.7c0.2-0.6,0.8-0.9,1.4-0.7c0.6,0.2,0.9,0.8,0.7,1.4c-0.2,0.6-0.8,0.9-1.4,0.7
						S341.6,119.3,341.8,118.7z"/>
				</g>
				<g>
					<path class="st7" d="M337.6,117.3c0.2-0.6,0.8-0.9,1.4-0.7c0.6,0.2,0.9,0.8,0.7,1.4c-0.2,0.6-0.8,0.9-1.4,0.7
						S337.4,117.8,337.6,117.3z"/>
				</g>
				<g>
					<path class="st7" d="M333.4,115.8c0.2-0.6,0.8-0.9,1.4-0.7c0.6,0.2,0.9,0.8,0.7,1.4c-0.2,0.6-0.8,0.9-1.4,0.7
						S333.2,116.4,333.4,115.8z"/>
				</g>
				<g>
					<path class="st7" d="M329.3,114.4c0.2-0.6,0.8-0.9,1.4-0.7c0.6,0.2,0.9,0.8,0.7,1.4c-0.2,0.6-0.8,0.9-1.4,0.7
						C329.4,115.6,329.1,114.9,329.3,114.4z"/>
				</g>
				<g>
					<path class="st7" d="M325.1,112.9c0.2-0.6,0.8-0.9,1.4-0.7c0.6,0.2,0.9,0.8,0.7,1.4c-0.2,0.6-0.8,0.9-1.4,0.7
						S324.9,113.5,325.1,112.9z"/>
				</g>
				<g>
					<path class="st7" d="M321,111.4c0.2-0.6,0.8-0.9,1.4-0.7c0.6,0.2,0.9,0.8,0.7,1.4s-0.8,0.9-1.4,0.7S320.8,112,321,111.4z"/>
				</g>
				<g>
					<path class="st7" d="M316.8,110c0.2-0.6,0.8-0.9,1.4-0.7c0.6,0.2,0.9,0.8,0.7,1.4c-0.2,0.6-0.8,0.9-1.4,0.7
						C316.9,111.2,316.6,110.6,316.8,110z"/>
				</g>
				<g>
					<path class="st7" d="M312.6,108.5c0.2-0.6,0.8-0.9,1.4-0.7c0.6,0.2,0.9,0.8,0.7,1.4s-0.8,0.9-1.4,0.7S312.4,109.1,312.6,108.5z
						"/>
				</g>
				<g>
					<path class="st7" d="M308.5,107.1c0.2-0.6,0.8-0.9,1.4-0.7s0.9,0.8,0.7,1.4c-0.2,0.6-0.8,0.9-1.4,0.7
						C308.6,108.3,308.3,107.7,308.5,107.1z"/>
				</g>
				<g>
					<path class="st7" d="M304.3,105.6c0.2-0.6,0.8-0.9,1.4-0.7c0.6,0.2,0.9,0.8,0.7,1.4c-0.2,0.6-0.8,0.9-1.4,0.7
						S304.1,106.2,304.3,105.6z"/>
				</g>
				<g>
					<path class="st7" d="M300.1,104.2c0.2-0.6,0.8-0.9,1.4-0.7c0.6,0.2,0.9,0.8,0.7,1.4c-0.2,0.6-0.8,0.9-1.4,0.7
						C300.3,105.4,299.9,104.8,300.1,104.2z"/>
				</g>
				<g>
					<path class="st7" d="M296,102.8c0.2-0.6,0.8-0.9,1.4-0.7c0.6,0.2,0.9,0.8,0.7,1.4c-0.2,0.6-0.8,0.9-1.4,0.7
						C296.1,104,295.8,103.4,296,102.8z"/>
				</g>
				<g>
					<path class="st7" d="M291.8,101.4c0.2-0.6,0.8-0.9,1.4-0.7c0.6,0.2,0.9,0.8,0.7,1.4c-0.2,0.6-0.8,0.9-1.4,0.7
						C291.9,102.6,291.6,101.9,291.8,101.4z"/>
				</g>
				<g>
					<path class="st7" d="M287.6,99.9c0.2-0.6,0.8-0.9,1.4-0.7c0.6,0.2,0.9,0.8,0.7,1.4s-0.8,0.9-1.4,0.7
						C287.7,101.1,287.4,100.5,287.6,99.9z"/>
				</g>
				<g>
					<path class="st7" d="M283.4,98.5c0.2-0.6,0.8-0.9,1.4-0.7c0.6,0.2,0.9,0.8,0.7,1.4c-0.2,0.6-0.8,0.9-1.4,0.7
						S283.2,99.1,283.4,98.5z"/>
				</g>
				<g>
					<path class="st7" d="M279.3,97.1c0.2-0.6,0.8-0.9,1.4-0.7c0.6,0.2,0.9,0.8,0.7,1.4c-0.2,0.6-0.8,0.9-1.4,0.7
						C279.4,98.3,279.1,97.6,279.3,97.1z"/>
				</g>
				<g>
					<path class="st7" d="M275.1,95.6c0.2-0.6,0.8-0.9,1.4-0.7c0.6,0.2,0.9,0.8,0.7,1.4c-0.2,0.6-0.8,0.9-1.4,0.7
						C275.2,96.8,274.9,96.2,275.1,95.6z"/>
				</g>
				<g>
					<path class="st7" d="M270.9,94.2c0.2-0.6,0.8-0.9,1.4-0.7c0.6,0.2,0.9,0.8,0.7,1.4c-0.2,0.6-0.8,0.9-1.4,0.7
						C271,95.4,270.7,94.7,270.9,94.2z"/>
				</g>
				<g>
					<path class="st7" d="M266.8,92.7c0.2-0.6,0.8-0.9,1.4-0.7c0.6,0.2,0.9,0.8,0.7,1.4c-0.2,0.6-0.8,0.9-1.4,0.7
						C266.9,93.9,266.6,93.3,266.8,92.7z"/>
				</g>
				<g>
					<path class="st7" d="M262.6,91.2c0.2-0.6,0.8-0.9,1.4-0.7s0.9,0.8,0.7,1.4c-0.2,0.6-0.8,0.9-1.4,0.7
						C262.7,92.5,262.4,91.8,262.6,91.2z"/>
				</g>
				<g>
					<path class="st7" d="M258.5,89.8c0.2-0.6,0.8-0.9,1.4-0.7c0.6,0.2,0.9,0.8,0.7,1.4c-0.2,0.6-0.8,0.9-1.4,0.7
						C258.6,91,258.3,90.4,258.5,89.8z"/>
				</g>
				<g>
					<path class="st7" d="M254.3,88.3c0.2-0.6,0.8-0.9,1.4-0.7c0.6,0.2,0.9,0.8,0.7,1.4c-0.2,0.6-0.8,0.9-1.4,0.7
						C254.4,89.5,254.1,88.9,254.3,88.3z"/>
				</g>
				<g>
					<path class="st7" d="M250.1,86.8c0.2-0.6,0.8-0.9,1.4-0.7c0.6,0.2,0.9,0.8,0.7,1.4s-0.8,0.9-1.4,0.7
						C250.2,88,249.9,87.4,250.1,86.8z"/>
				</g>
				<g>
					<path class="st7" d="M246,85.4c0.2-0.6,0.8-0.9,1.4-0.7s0.9,0.8,0.7,1.4s-0.8,0.9-1.4,0.7C246.1,86.6,245.8,85.9,246,85.4z"/>
				</g>
				<g>
					<path class="st7" d="M241.8,83.9c0.2-0.6,0.8-0.9,1.4-0.7c0.6,0.2,0.9,0.8,0.7,1.4c-0.2,0.6-0.8,0.9-1.4,0.7
						C241.9,85.1,241.6,84.4,241.8,83.9z"/>
				</g>
				<g>
					<path class="st7" d="M237.7,82.4c0.2-0.6,0.8-0.9,1.4-0.7c0.6,0.2,0.9,0.8,0.7,1.4c-0.2,0.6-0.8,0.9-1.4,0.7
						C237.8,83.6,237.5,82.9,237.7,82.4z"/>
				</g>
				<g>
					<path class="st7" d="M233.6,80.8c0.2-0.6,0.9-0.8,1.4-0.6c0.6,0.2,0.8,0.9,0.6,1.4c-0.2,0.6-0.9,0.9-1.4,0.6
						C233.6,82,233.3,81.4,233.6,80.8z"/>
				</g>
				<g>
					<path class="st7" d="M229.5,79.1c0.2-0.6,0.9-0.8,1.4-0.6c0.6,0.2,0.8,0.9,0.6,1.4c-0.2,0.6-0.9,0.8-1.4,0.6
						C229.5,80.4,229.3,79.7,229.5,79.1z"/>
				</g>
				<g>
					<path class="st7" d="M225.4,77.5c0.2-0.6,0.9-0.8,1.4-0.6c0.6,0.2,0.8,0.9,0.6,1.4s-0.9,0.8-1.4,0.6
						C225.4,78.7,225.2,78.1,225.4,77.5z"/>
				</g>
				<g>
					<path class="st7" d="M221.3,75.9c0.2-0.6,0.9-0.8,1.4-0.6c0.6,0.2,0.8,0.9,0.6,1.4s-0.9,0.8-1.4,0.6
						C221.3,77.1,221.1,76.4,221.3,75.9z"/>
				</g>
				<g>
					<path class="st7" d="M217.2,74.2c0.2-0.6,0.9-0.8,1.4-0.6c0.6,0.2,0.8,0.9,0.6,1.4s-0.9,0.8-1.4,0.6
						C217.3,75.4,217,74.8,217.2,74.2z"/>
				</g>
				<g>
					<line class="st10" x1="212" y1="78.3" x2="216.3" y2="67.6"/>
				</g>
			</g>
		</g>
	</g>
	<g>
		<g>
			<g>
				<g>
					<line class="st10" x1="135.8" y1="117.7" x2="128" y2="109.1"/>
				</g>
				<g>
					<path class="st7" d="M127.8,117.1c-0.4-0.4-0.4-1.1,0-1.6c0.4-0.4,1.1-0.4,1.6,0c0.4,0.4,0.4,1.1,0,1.6
						C129,117.6,128.3,117.6,127.8,117.1z"/>
				</g>
				<g>
					<path class="st7" d="M124.7,120.2c-0.4-0.4-0.4-1.1,0-1.6c0.4-0.4,1.1-0.4,1.6,0c0.4,0.4,0.4,1.1,0,1.6
						C125.8,120.6,125.1,120.6,124.7,120.2z"/>
				</g>
				<g>
					<path class="st7" d="M121.6,123.3c-0.4-0.4-0.4-1.1,0-1.6s1.1-0.4,1.6,0s0.4,1.1,0,1.6C122.7,123.7,122,123.7,121.6,123.3z"/>
				</g>
				<g>
					<path class="st7" d="M118.5,126.5c-0.4-0.4-0.5-1.1,0-1.6c0.4-0.4,1.1-0.5,1.6,0c0.4,0.4,0.5,1.1,0,1.6
						C119.7,126.9,119,126.9,118.5,126.5z"/>
				</g>
				<g>
					<path class="st7" d="M115.5,129.7c-0.4-0.4-0.5-1.1-0.1-1.6c0.4-0.4,1.1-0.5,1.6,0c0.4,0.4,0.5,1.1,0.1,1.6
						C116.7,130.1,116,130.1,115.5,129.7z"/>
				</g>
				<g>
					<path class="st7" d="M112.5,132.9c-0.5-0.4-0.5-1.1-0.1-1.6c0.4-0.5,1.1-0.5,1.6-0.1s0.5,1.1,0.1,1.6
						C113.7,133.3,113,133.3,112.5,132.9z"/>
				</g>
				<g>
					<path class="st7" d="M109.6,136.2c-0.5-0.4-0.5-1.1-0.1-1.6c0.4-0.5,1.1-0.5,1.6-0.1c0.5,0.4,0.5,1.1,0.1,1.6
						C110.8,136.6,110.1,136.6,109.6,136.2z"/>
				</g>
				<g>
					<path class="st7" d="M106.7,139.5c-0.5-0.4-0.5-1.1-0.1-1.6c0.4-0.5,1.1-0.5,1.6-0.1c0.5,0.4,0.5,1.1,0.1,1.6
						C107.9,139.9,107.2,139.9,106.7,139.5z"/>
				</g>
				<g>
					<path class="st7" d="M103.9,142.9c-0.5-0.4-0.5-1.1-0.1-1.6c0.4-0.5,1.1-0.5,1.6-0.1c0.5,0.4,0.5,1.1,0.1,1.6
						C105,143.2,104.3,143.3,103.9,142.9z"/>
				</g>
				<g>
					<path class="st7" d="M101.1,146.3c-0.5-0.4-0.5-1.1-0.2-1.6c0.4-0.5,1.1-0.5,1.5-0.2c0.5,0.4,0.5,1.1,0.2,1.6
						C102.2,146.6,101.6,146.7,101.1,146.3z"/>
				</g>
				<g>
					<path class="st7" d="M98.3,149.7c-0.5-0.4-0.5-1.1-0.2-1.6c0.4-0.5,1.1-0.5,1.5-0.2c0.5,0.4,0.5,1.1,0.2,1.6
						C99.5,150,98.8,150.1,98.3,149.7z"/>
				</g>
				<g>
					<path class="st7" d="M95.5,153.1c-0.5-0.4-0.5-1.1-0.2-1.6c0.4-0.5,1.1-0.5,1.5-0.2c0.5,0.4,0.5,1.1,0.2,1.6
						C96.7,153.4,96,153.5,95.5,153.1z"/>
				</g>
				<g>
					<path class="st7" d="M92.8,156.5c-0.5-0.4-0.5-1.1-0.2-1.6c0.4-0.5,1.1-0.5,1.5-0.2c0.5,0.4,0.5,1.1,0.2,1.6
						C93.9,156.9,93.3,156.9,92.8,156.5z"/>
				</g>
				<g>
					<path class="st7" d="M90,160c-0.5-0.4-0.5-1.1-0.2-1.6s1.1-0.5,1.5-0.2c0.5,0.4,0.5,1.1,0.2,1.6S90.5,160.4,90,160z"/>
				</g>
				<g>
					<path class="st7" d="M87.2,163.4c-0.5-0.4-0.5-1.1-0.2-1.6c0.4-0.5,1.1-0.5,1.5-0.2c0.5,0.4,0.5,1.1,0.2,1.6
						C88.4,163.7,87.7,163.8,87.2,163.4z"/>
				</g>
				<g>
					<path class="st7" d="M84.5,166.8c-0.5-0.4-0.5-1.1-0.2-1.6c0.4-0.5,1.1-0.5,1.5-0.2c0.5,0.4,0.5,1.1,0.2,1.6
						C85.6,167.1,84.9,167.2,84.5,166.8z"/>
				</g>
				<g>
					<path class="st7" d="M81.7,170.2c-0.5-0.4-0.5-1.1-0.2-1.6c0.4-0.5,1.1-0.5,1.5-0.2c0.5,0.4,0.5,1.1,0.2,1.6
						C82.9,170.5,82.2,170.6,81.7,170.2z"/>
				</g>
				<g>
					<path class="st7" d="M78.9,173.7c-0.5-0.4-0.5-1.1-0.2-1.6c0.4-0.5,1.1-0.5,1.6-0.2s0.5,1.1,0.2,1.6
						C80.1,174,79.4,174,78.9,173.7z"/>
				</g>
				<g>
					<path class="st7" d="M76.2,177.1c-0.5-0.4-0.5-1.1-0.2-1.6c0.4-0.5,1.1-0.5,1.6-0.2c0.5,0.4,0.5,1.1,0.2,1.6
						C77.3,177.4,76.6,177.5,76.2,177.1z"/>
				</g>
				<g>
					<path class="st7" d="M73.4,180.5c-0.5-0.4-0.5-1.1-0.2-1.5c0.4-0.5,1.1-0.5,1.6-0.2s0.5,1.1,0.2,1.5
						C74.6,180.8,73.9,180.9,73.4,180.5z"/>
				</g>
				<g>
					<path class="st7" d="M70.6,183.9c-0.5-0.4-0.6-1.1-0.2-1.5c0.4-0.5,1.1-0.5,1.6-0.2c0.5,0.4,0.5,1.1,0.2,1.5
						C71.8,184.2,71.1,184.3,70.6,183.9z"/>
				</g>
				<g>
					<path class="st7" d="M67.9,187.3c-0.5-0.4-0.6-1.1-0.2-1.5c0.4-0.5,1.1-0.5,1.6-0.2c0.5,0.4,0.6,1.1,0.2,1.5
						C69,187.6,68.3,187.7,67.9,187.3z"/>
				</g>
				<g>
					<path class="st7" d="M65.1,190.8c-0.5-0.4-0.6-1.1-0.2-1.5c0.4-0.5,1.1-0.5,1.6-0.2c0.5,0.4,0.6,1.1,0.2,1.5
						C66.3,191.1,65.6,191.1,65.1,190.8z"/>
				</g>
				<g>
					<path class="st7" d="M62.3,194.2c-0.5-0.4-0.6-1.1-0.2-1.5s1.1-0.5,1.6-0.2c0.5,0.4,0.6,1.1,0.2,1.5
						C63.5,194.5,62.8,194.6,62.3,194.2z"/>
				</g>
				<g>
					<path class="st7" d="M59.6,197.6c-0.5-0.4-0.6-1.1-0.2-1.5c0.4-0.5,1.1-0.5,1.6-0.2c0.5,0.4,0.6,1.1,0.2,1.5
						C60.7,197.9,60,198,59.6,197.6z"/>
				</g>
				<g>
					<path class="st7" d="M56.8,201c-0.5-0.4-0.6-1.1-0.2-1.5c0.4-0.5,1.1-0.5,1.6-0.2c0.5,0.4,0.6,1.1,0.2,1.5
						C58,201.3,57.3,201.4,56.8,201z"/>
				</g>
				<g>
					<path class="st7" d="M54.1,204.5c-0.5-0.4-0.6-1.1-0.2-1.5c0.4-0.5,1.1-0.6,1.5-0.2c0.5,0.4,0.6,1.1,0.2,1.5
						C55.3,204.8,54.6,204.9,54.1,204.5z"/>
				</g>
				<g>
					<path class="st7" d="M51.6,208.1c-0.5-0.3-0.6-1-0.3-1.5c0.4-0.5,1-0.6,1.5-0.3s0.6,1,0.3,1.5
						C52.8,208.4,52.1,208.5,51.6,208.1z"/>
				</g>
				<g>
					<path class="st7" d="M49.1,211.8c-0.5-0.3-0.6-1-0.3-1.5c0.3-0.5,1-0.6,1.5-0.3c0.5,0.3,0.6,1,0.3,1.5
						C50.3,212,49.6,212.1,49.1,211.8z"/>
				</g>
				<g>
					<path class="st7" d="M46.7,215.5c-0.5-0.3-0.7-1-0.3-1.5c0.3-0.5,1-0.7,1.5-0.3c0.5,0.3,0.7,1,0.3,1.5
						C47.9,215.6,47.2,215.8,46.7,215.5z"/>
				</g>
				<g>
					<path class="st7" d="M44.4,219.2c-0.5-0.3-0.7-1-0.3-1.5c0.3-0.5,1-0.7,1.5-0.3c0.5,0.3,0.7,1,0.3,1.5
						C45.5,219.3,44.9,219.5,44.4,219.2z"/>
				</g>
				<g>
					<path class="st7" d="M42,222.9c-0.5-0.3-0.7-1-0.4-1.5c0.3-0.5,1-0.7,1.5-0.4c0.5,0.3,0.7,1,0.4,1.5
						C43.2,223.1,42.6,223.2,42,222.9z"/>
				</g>
				<g>
					<path class="st7" d="M39.8,226.7c-0.5-0.3-0.7-1-0.4-1.5c0.3-0.5,1-0.7,1.5-0.4c0.5,0.3,0.7,1,0.4,1.5
						C41,226.8,40.3,227,39.8,226.7z"/>
				</g>
				<g>
					<path class="st7" d="M37.6,230.5c-0.5-0.3-0.7-1-0.4-1.5c0.3-0.5,1-0.7,1.5-0.4c0.5,0.3,0.7,1,0.4,1.5
						C38.8,230.6,38.1,230.8,37.6,230.5z"/>
				</g>
				<g>
					<path class="st7" d="M35.6,234.4c-0.5-0.3-0.8-0.9-0.5-1.5c0.3-0.5,1-0.8,1.5-0.5s0.8,0.9,0.5,1.5
						C36.8,234.5,36.1,234.7,35.6,234.4z"/>
				</g>
				<g>
					<path class="st7" d="M33.7,238.4c-0.6-0.3-0.8-0.9-0.5-1.5c0.3-0.5,0.9-0.8,1.5-0.5c0.6,0.3,0.8,0.9,0.5,1.5
						S34.2,238.6,33.7,238.4z"/>
				</g>
				<g>
					<path class="st7" d="M31.8,242.4c-0.6-0.3-0.8-0.9-0.5-1.5c0.3-0.5,0.9-0.8,1.5-0.5c0.6,0.3,0.8,0.9,0.5,1.5
						C33,242.4,32.3,242.6,31.8,242.4z"/>
				</g>
				<g>
					<path class="st7" d="M29.9,246.3c-0.6-0.3-0.8-0.9-0.5-1.5c0.3-0.5,0.9-0.8,1.5-0.5c0.6,0.3,0.8,0.9,0.5,1.5
						S30.4,246.6,29.9,246.3z"/>
				</g>
				<g>
					<path class="st7" d="M28,250.3c-0.6-0.3-0.8-0.9-0.5-1.5c0.3-0.5,0.9-0.8,1.5-0.5c0.6,0.3,0.8,0.9,0.5,1.5
						C29.2,250.3,28.6,250.6,28,250.3z"/>
				</g>
				<g>
					<path class="st7" d="M26.1,254.3c-0.6-0.3-0.8-0.9-0.5-1.5c0.3-0.5,0.9-0.8,1.5-0.5s0.8,0.9,0.5,1.5S26.7,254.5,26.1,254.3z"/>
				</g>
				<g>
					<path class="st7" d="M24.2,258.3c-0.6-0.3-0.8-0.9-0.5-1.5c0.3-0.5,0.9-0.8,1.5-0.5s0.8,0.9,0.5,1.5
						C25.4,258.3,24.8,258.5,24.2,258.3z"/>
				</g>
				<g>
					<path class="st7" d="M22.3,262.2c-0.6-0.3-0.8-0.9-0.5-1.5c0.3-0.5,0.9-0.8,1.5-0.5c0.6,0.3,0.8,0.9,0.5,1.5
						C23.6,262.3,22.9,262.5,22.3,262.2z"/>
				</g>
				<g>
					<path class="st7" d="M20.5,266.2c-0.6-0.3-0.8-0.9-0.5-1.5c0.3-0.5,0.9-0.8,1.5-0.5s0.8,0.9,0.5,1.5S21,266.5,20.5,266.2z"/>
				</g>
				<g>
					<path class="st7" d="M18.6,270.2c-0.6-0.3-0.8-0.9-0.5-1.5s0.9-0.8,1.5-0.5c0.6,0.3,0.8,0.9,0.5,1.5
						C19.8,270.2,19.1,270.4,18.6,270.2z"/>
				</g>
				<g>
					<path class="st7" d="M16.7,274.2c-0.6-0.3-0.8-0.9-0.5-1.5c0.3-0.5,0.9-0.8,1.5-0.5c0.6,0.3,0.8,0.9,0.5,1.5
						C17.9,274.2,17.2,274.4,16.7,274.2z"/>
				</g>
				<g>
					<line class="st10" x1="20.5" y1="279.6" x2="10" y2="274.6"/>
				</g>
			</g>
		</g>
	</g>
</g>
<g id="SPEED_x5F_TRAP">
	<g>
		<g>
			<path class="st11" d="M326.6,78c0,0.8-0.6,1.4-1.4,1.4h-42.2c-0.8,0-1.4-0.6-1.4-1.4V43.3c0-0.8,0.6-1.4,1.4-1.4h42.2
				c0.8,0,1.4,0.6,1.4,1.4V78z"/>
		</g>
		<g>
			<path class="st6" d="M293.7,54.8v2.7c0,1.3-0.6,1.7-1.3,2h-3.9c-0.7-0.3-1.3-0.7-1.3-2v-2.4h2.7v2l0.2,0.2h0.8l0.2-0.2v-1.8
				l-0.1-0.2l-2.7-1.2c-0.8-0.4-0.9-0.9-0.9-1.8v-2.5c0-1.3,0.6-1.7,1.3-2h3.9c0.7,0.3,1.3,0.7,1.3,2v2.2H291v-1.9l-0.2-0.2H290
				l-0.2,0.2v1.7l0.2,0.3l2.7,1.1C293.6,53.3,293.7,53.9,293.7,54.8z"/>
			<path class="st6" d="M297.1,55.4v4.2h-2.7v-12h5.2c0.7,0.3,1.3,0.7,1.3,2v3.8c0,1.3-0.6,1.7-1.3,2H297.1z M297.1,49.7v3.5h1
				l0.2-0.2v-3.2l-0.2-0.2H297.1z"/>
			<path class="st6" d="M301.6,47.6h5.5v2.5h-2.8v2.2h2.7v2.5h-2.7v2.3h2.9v2.5h-5.6V47.6z"/>
			<path class="st6" d="M308,47.6h5.5v2.5h-2.8v2.2h2.7v2.5h-2.7v2.3h2.9v2.5H308V47.6z"/>
			<path class="st6" d="M320.9,57.6c0,1.3-0.6,1.7-1.3,2h-5.2v-12h5.2c0.7,0.3,1.3,0.7,1.3,2V57.6z M317.1,49.7v7.7h1l0.2-0.2v-7.3
				l-0.2-0.2H317.1z"/>
			<path class="st6" d="M294.6,64.2v9.5H292v-9.5H290v-2.5h6.5v2.5H294.6z"/>
			<path class="st6" d="M297,73.7v-12h5.2c0.7,0.3,1.3,0.7,1.3,2v2.5c0,1.1-0.5,1.6-1.1,1.9l1.4,3.8v1.7h-2.3l-1.5-4.7h-0.3v4.7H297
				z M299.7,63.9v3h1l0.2-0.2v-2.7l-0.2-0.2H299.7z"/>
			<path class="st6" d="M308.1,71.4h-1.3l-0.2,2.3h-2.5v-2l1.5-10h3.6l1.5,10v2h-2.5L308.1,71.4z M307.1,68.9h0.8l-0.3-3.8h-0.2
				L307.1,68.9z"/>
			<path class="st6" d="M314.1,69.6v4.2h-2.7v-12h5.2c0.7,0.3,1.3,0.7,1.3,2v3.8c0,1.3-0.6,1.7-1.3,2H314.1z M314.1,63.9v3.5h1
				l0.2-0.2v-3.2l-0.2-0.2H314.1z"/>
		</g>
	</g>
	<g>
		<circle class="st8" cx="244.4" cy="100.4" r="4.7"/>
		<circle class="st11" cx="244.4" cy="100.4" r="4.7"/>
	</g>
	<g>
		<path class="st12" d="M281.5,61h-28.6c-4.7,0-8.5,3.8-8.5,8.5v30.9"/>
	</g>
</g>
<g id="アイコン">
	<g>
		
			<rect x="259.7" y="123.3" transform="matrix(0.153 0.9882 -0.9882 0.153 344.4027 -152.3629)" class="st5" width="2.8" height="2.8"/>
		
			<rect x="260.5" y="128.9" transform="matrix(0.153 0.9882 -0.9882 0.153 350.674 -148.4748)" class="st5" width="2.8" height="2.8"/>
		
			<rect x="257.3" y="126.6" transform="matrix(0.153 0.9882 -0.9882 0.153 345.5944 -147.2832)" class="st5" width="2.8" height="2.8"/>
		
			<rect x="258.2" y="132.2" transform="matrix(0.153 0.9882 -0.9882 0.153 351.8657 -143.3952)" class="st5" width="2.8" height="2.8"/>
		
			<rect x="251.7" y="127.4" transform="matrix(0.153 0.9882 -0.9882 0.153 341.7063 -141.0119)" class="st5" width="2.8" height="2.8"/>
		
			<rect x="252.6" y="133" transform="matrix(0.153 0.9882 -0.9882 0.153 347.9776 -137.1239)" class="st5" width="2.8" height="2.8"/>
		
			<rect x="261.4" y="134.5" transform="matrix(0.153 0.9882 -0.9882 0.153 356.9453 -144.5868)" class="st5" width="2.8" height="2.8"/>
		
			<rect x="261" y="131.7" transform="matrix(0.153 0.9882 -0.9882 0.153 353.8097 -146.5308)" class="st6" width="2.8" height="2.8"/>
		
			<rect x="260.1" y="126.1" transform="matrix(0.153 0.9882 -0.9882 0.153 347.5384 -150.4189)" class="st6" width="2.8" height="2.8"/>
		
			<rect x="256.9" y="123.8" transform="matrix(0.153 0.9882 -0.9882 0.153 342.4587 -149.2272)" class="st6" width="2.8" height="2.8"/>
		
			<rect x="257.7" y="129.4" transform="matrix(0.153 0.9882 -0.9882 0.153 348.73 -145.3392)" class="st6" width="2.8" height="2.8"/>
		
			<rect x="258.6" y="135" transform="matrix(0.153 0.9882 -0.9882 0.153 355.0013 -141.4511)" class="st6" width="2.8" height="2.8"/>
		
			<rect x="255.4" y="132.6" transform="matrix(0.153 0.9882 -0.9882 0.153 349.9216 -140.2595)" class="st6" width="2.8" height="2.8"/>
		
			<rect x="254.5" y="127" transform="matrix(0.153 0.9882 -0.9882 0.153 343.6503 -144.1476)" class="st6" width="2.8" height="2.8"/>
		
			<rect x="249.8" y="133.5" transform="matrix(0.153 0.9882 -0.9882 0.153 346.0336 -133.9882)" class="st6" width="2.8" height="2.8"/>
		
			<rect x="248.9" y="127.9" transform="matrix(0.153 0.9882 -0.9882 0.153 339.7623 -137.8763)" class="st6" width="2.8" height="2.8"/>
		
			<rect x="251.3" y="124.6" transform="matrix(0.153 0.9882 -0.9882 0.153 338.5707 -142.9559)" class="st6" width="2.8" height="2.8"/>
		
			<rect x="252.1" y="130.2" transform="matrix(0.153 0.9882 -0.9882 0.153 344.842 -139.0679)" class="st6" width="2.8" height="2.8"/>
		
			<rect x="253" y="135.8" transform="matrix(0.153 0.9882 -0.9882 0.153 351.1133 -135.1799)" class="st6" width="2.8" height="2.8"/>
		
			<rect x="254.1" y="124.2" transform="matrix(0.153 0.9882 -0.9882 0.153 340.5147 -146.0916)" class="st5" width="2.8" height="2.8"/>
		
			<rect x="254.9" y="129.8" transform="matrix(0.153 0.9882 -0.9882 0.153 346.786 -142.2035)" class="st5" width="2.8" height="2.8"/>
		
			<rect x="249.3" y="130.7" transform="matrix(0.153 0.9882 -0.9882 0.153 342.8979 -135.9323)" class="st5" width="2.8" height="2.8"/>
		
			<rect x="255.8" y="135.4" transform="matrix(0.153 0.9882 -0.9882 0.153 353.0573 -138.3155)" class="st5" width="2.8" height="2.8"/>
		
			<rect x="248.5" y="125.1" transform="matrix(0.153 0.9882 -0.9882 0.153 336.6266 -139.8203)" class="st5" width="2.8" height="2.8"/>
		
			<rect x="250.2" y="136.3" transform="matrix(0.153 0.9882 -0.9882 0.153 349.1692 -132.0442)" class="st5" width="2.8" height="2.8"/>
	</g>
	<g>
		<g>
			<path class="st6" d="M462.8,426.3c0,1.6-1.3,2.8-2.8,2.8H91.1c-1.6,0-2.8-1.3-2.8-2.8v-24.9c0-1.6,1.3-2.8,2.8-2.8h368.8
				c1.6,0,2.8,1.3,2.8,2.8V426.3z"/>
			<path class="st13" d="M462.8,426.3c0,1.6-1.3,2.8-2.8,2.8H91.1c-1.6,0-2.8-1.3-2.8-2.8v-24.9c0-1.6,1.3-2.8,2.8-2.8h368.8
				c1.6,0,2.8,1.3,2.8,2.8V426.3z"/>
		</g>
		<g>
			<path class="st5" d="M133.8,415.3v2.6c0,1.3-0.6,1.7-1.3,2h-3.3c-0.7-0.3-1.3-0.7-1.3-2v-2h1.8v2.1l0.4,0.4h1.6l0.4-0.4v-2.8
				l-0.3-0.4L129,414c-0.8-0.3-1.1-0.8-1.1-1.9v-2.2c0-1.3,0.6-1.7,1.3-2h3.3c0.7,0.3,1.3,0.7,1.3,2v1.9H132v-2.1l-0.4-0.4h-1.6
				l-0.4,0.4v2.4l0.4,0.4l2.6,0.7C133.4,413.6,133.8,414.1,133.8,415.3z"/>
			<path class="st5" d="M135.1,407.9h5.1v1.6h-3.3v3.4h3.1v1.6h-3.1v3.7h3.4v1.6h-5.2V407.9z"/>
			<path class="st5" d="M147.5,417.9c0,1.3-0.6,1.7-1.3,2h-3.3c-0.7-0.3-1.3-0.7-1.3-2v-8c0-1.3,0.6-1.7,1.3-2h3.3
				c0.7,0.3,1.3,0.7,1.3,2v2.7h-1.8v-2.8l-0.4-0.4h-1.6l-0.4,0.4v8.3l0.4,0.4h1.6l0.4-0.4v-2.7h1.8V417.9z"/>
			<path class="st5" d="M152.2,409.5v10.3h-1.8v-10.3h-2.1v-1.6h6.1v1.6H152.2z"/>
			<path class="st5" d="M161.1,417.9c0,1.3-0.6,1.7-1.3,2h-3.3c-0.7-0.3-1.3-0.7-1.3-2v-8c0-1.3,0.6-1.7,1.3-2h3.3
				c0.7,0.3,1.3,0.7,1.3,2V417.9z M159.3,409.7l-0.4-0.4h-1.6l-0.4,0.4v8.3l0.4,0.4h1.6l0.4-0.4V409.7z"/>
			<path class="st5" d="M162.5,419.8v-12h4.6c0.7,0.3,1.3,0.7,1.3,2v2.6c0,1.3-0.6,1.6-1.3,1.9l-0.3,0.1l2.1,4.3v1.1h-1.6l-2.2-5.1
				h-0.8v5.1H162.5z M164.3,409.4v3.9h2l0.4-0.4v-3.1l-0.4-0.4H164.3z"/>
			<path class="st5" d="M172.6,419.8v-1.6h1.8v-8.7h-1.7v-1.6h3.5v10.4h1.7v1.6H172.6z"/>
		</g>
		<line class="st14" x1="102.5" y1="413.9" x2="123.7" y2="413.9"/>
		<g>
			<path class="st5" d="M223.9,415.3v2.6c0,1.3-0.6,1.7-1.3,2h-3.3c-0.7-0.3-1.3-0.7-1.3-2v-2h1.8v2.1l0.4,0.4h1.6l0.4-0.4v-2.8
				l-0.3-0.4l-2.6-0.8c-0.8-0.3-1.1-0.8-1.1-1.9v-2.2c0-1.3,0.6-1.7,1.3-2h3.3c0.7,0.3,1.3,0.7,1.3,2v1.9h-1.8v-2.1l-0.4-0.4h-1.6
				l-0.4,0.4v2.4l0.4,0.4l2.6,0.7C223.5,413.6,223.9,414.1,223.9,415.3z"/>
			<path class="st5" d="M225.2,407.9h5.1v1.6H227v3.4h3.1v1.6H227v3.7h3.4v1.6h-5.2V407.9z"/>
			<path class="st5" d="M237.6,417.9c0,1.3-0.6,1.7-1.3,2h-3.3c-0.7-0.3-1.3-0.7-1.3-2v-8c0-1.3,0.6-1.7,1.3-2h3.3
				c0.7,0.3,1.3,0.7,1.3,2v2.7h-1.8v-2.8l-0.4-0.4h-1.6l-0.4,0.4v8.3l0.4,0.4h1.6l0.4-0.4v-2.7h1.8V417.9z"/>
			<path class="st5" d="M242.3,409.5v10.3h-1.8v-10.3h-2.1v-1.6h6.1v1.6H242.3z"/>
			<path class="st5" d="M251.2,417.9c0,1.3-0.6,1.7-1.3,2h-3.3c-0.7-0.3-1.3-0.7-1.3-2v-8c0-1.3,0.6-1.7,1.3-2h3.3
				c0.7,0.3,1.3,0.7,1.3,2V417.9z M249.4,409.7l-0.4-0.4h-1.6l-0.4,0.4v8.3l0.4,0.4h1.6l0.4-0.4V409.7z"/>
			<path class="st5" d="M252.6,419.8v-12h4.6c0.7,0.3,1.3,0.7,1.3,2v2.6c0,1.3-0.6,1.6-1.3,1.9l-0.3,0.1l2.1,4.3v1.1h-1.6l-2.2-5.1
				h-0.8v5.1H252.6z M254.4,409.4v3.9h2l0.4-0.4v-3.1l-0.4-0.4H254.4z"/>
			<path class="st5" d="M262.3,419.8v-3.6c0-1.1,0.4-1.7,1.2-2.1l3-1.2v-3.2l-0.4-0.4h-1.7l-0.4,0.4v2h-1.8v-1.9
				c0-1.3,0.6-1.7,1.3-2h3.3c0.7,0.3,1.3,0.7,1.3,2v2.5c0,1.1-0.3,1.7-1.1,2.1l-3,1.2v2.5h4.1v1.6H262.3z"/>
		</g>
		<line class="st15" x1="192.6" y1="413.9" x2="213.8" y2="413.9"/>
		<g>
			<path class="st5" d="M313.7,415.3v2.6c0,1.3-0.6,1.7-1.3,2h-3.3c-0.7-0.3-1.3-0.7-1.3-2v-2h1.8v2.1l0.4,0.4h1.6l0.4-0.4v-2.8
				l-0.3-0.4L309,414c-0.8-0.3-1.1-0.8-1.1-1.9v-2.2c0-1.3,0.6-1.7,1.3-2h3.3c0.7,0.3,1.3,0.7,1.3,2v1.9h-1.8v-2.1l-0.4-0.4H310
				l-0.4,0.4v2.4l0.4,0.4l2.6,0.7C313.4,413.6,313.7,414.1,313.7,415.3z"/>
			<path class="st5" d="M315.1,407.9h5.1v1.6h-3.3v3.4h3.1v1.6h-3.1v3.7h3.4v1.6h-5.2V407.9z"/>
			<path class="st5" d="M327.4,417.9c0,1.3-0.6,1.7-1.3,2h-3.3c-0.7-0.3-1.3-0.7-1.3-2v-8c0-1.3,0.6-1.7,1.3-2h3.3
				c0.7,0.3,1.3,0.7,1.3,2v2.7h-1.8v-2.8l-0.4-0.4h-1.6l-0.4,0.4v8.3l0.4,0.4h1.6l0.4-0.4v-2.7h1.8V417.9z"/>
			<path class="st5" d="M332.1,409.5v10.3h-1.8v-10.3h-2.1v-1.6h6.1v1.6H332.1z"/>
			<path class="st5" d="M341,417.9c0,1.3-0.6,1.7-1.3,2h-3.3c-0.7-0.3-1.3-0.7-1.3-2v-8c0-1.3,0.6-1.7,1.3-2h3.3
				c0.7,0.3,1.3,0.7,1.3,2V417.9z M339.2,409.7l-0.4-0.4h-1.6l-0.4,0.4v8.3l0.4,0.4h1.6l0.4-0.4V409.7z"/>
			<path class="st5" d="M342.4,419.8v-12h4.6c0.7,0.3,1.3,0.7,1.3,2v2.6c0,1.3-0.6,1.6-1.3,1.9l-0.3,0.1l2.1,4.3v1.1h-1.6l-2.2-5.1
				h-0.8v5.1H342.4z M344.2,409.4v3.9h2l0.4-0.4v-3.1l-0.4-0.4H344.2z"/>
			<path class="st5" d="M353.4,419.8c-0.7-0.3-1.3-0.7-1.3-2v-1.7h1.8v1.8l0.4,0.4h1.7l0.4-0.4v-3.2l-0.4-0.3h-1.8V413h1.8l0.4-0.4
				v-3l-0.4-0.4h-1.7l-0.4,0.4v1.8h-1.8v-1.7c0-1.3,0.6-1.7,1.3-2h3.3c0.7,0.3,1.3,0.7,1.3,2v1.9c0,1-0.2,1.5-0.9,1.9
				c0.6,0.4,0.9,0.9,0.9,1.9v2.2c0,1.3-0.6,1.7-1.3,2H353.4z"/>
		</g>
		<line class="st16" x1="282.4" y1="413.9" x2="303.7" y2="413.9"/>
		<g>
			<path class="st5" d="M403.6,417.9c0,1.3-0.6,1.7-1.3,2h-4.6v-12h4.6c0.7,0.3,1.3,0.7,1.3,2V417.9z M399.5,409.4v9h2l0.4-0.4v-8.3
				l-0.4-0.4H399.5z"/>
			<path class="st5" d="M405,419.8v-12h4.6c0.7,0.3,1.3,0.7,1.3,2v2.6c0,1.3-0.6,1.6-1.3,1.9l-0.3,0.1l2.1,4.3v1.1h-1.6l-2.2-5.1
				h-0.8v5.1H405z M406.8,409.4v3.9h2l0.4-0.4v-3.1l-0.4-0.4H406.8z"/>
			<path class="st5" d="M418.1,415.3v2.6c0,1.3-0.6,1.7-1.3,2h-3.3c-0.7-0.3-1.3-0.7-1.3-2v-2h1.8v2.1l0.4,0.4h1.6l0.4-0.4v-2.8
				l-0.3-0.4l-2.6-0.8c-0.8-0.3-1.1-0.8-1.1-1.9v-2.2c0-1.3,0.6-1.7,1.3-2h3.3c0.7,0.3,1.3,0.7,1.3,2v1.9h-1.8v-2.1l-0.4-0.4h-1.6
				l-0.4,0.4v2.4l0.4,0.4l2.6,0.7C417.7,413.6,418.1,414.1,418.1,415.3z"/>
			<path class="st5" d="M425.6,409.5h-3.9v-1.6h5.8v1.5l-4,8.9h4v1.6h-5.9v-1.5L425.6,409.5z"/>
			<path class="st5" d="M434.8,417.9c0,1.3-0.6,1.7-1.3,2h-3.3c-0.7-0.3-1.3-0.7-1.3-2v-8c0-1.3,0.6-1.7,1.3-2h3.3
				c0.7,0.3,1.3,0.7,1.3,2V417.9z M433,409.7l-0.4-0.4H431l-0.4,0.4v8.3l0.4,0.4h1.6l0.4-0.4V409.7z"/>
			<path class="st5" d="M440.5,407.9h1.6v12h-1.6l-2.6-7.1h-0.2v7.1h-1.6v-12h1.6l2.6,7.1h0.2V407.9z"/>
			<path class="st5" d="M443.5,407.9h5.1v1.6h-3.3v3.4h3.1v1.6h-3.1v3.7h3.4v1.6h-5.2V407.9z"/>
		</g>
		<g>
			<g>
				<g>
					<g>
						<line class="st17" x1="373.7" y1="406.5" x2="373.7" y2="421.4"/>
					</g>
					<g>
						<path class="st7" d="M381.3,413.9c0,0.8-0.7,1.4-1.5,1.4c-0.8,0-1.5-0.6-1.5-1.4c0-0.8,0.7-1.4,1.5-1.4
							C380.7,412.5,381.3,413.2,381.3,413.9z"/>
					</g>
					<g>
						<ellipse class="st7" cx="385.9" cy="413.9" rx="1.5" ry="1.4"/>
					</g>
					<g>
						<line class="st17" x1="392" y1="406.5" x2="392" y2="421.4"/>
					</g>
				</g>
			</g>
		</g>
	</g>
	<g>
		<defs>
			
				<rect id="SVGID_1_" x="248.4" y="171.1" transform="matrix(-0.1295 -0.9916 0.9916 -0.1295 119.2917 455.4941)" width="22.3" height="8.5"/>
		</defs>
		<clipPath id="SVGID_00000097495630289326346770000001353113994536513712_">
			<use xlink:href="#SVGID_1_"  style="overflow:visible;"/>
		</clipPath>
		<g style="clip-path:url(#SVGID_00000097495630289326346770000001353113994536513712_);">
			<polygon class="st19" points="265.3,164.6 265.7,167.4 259.4,174 251.6,169.3 251.3,166.5 259,171.2 			"/>
			<polygon class="st20" points="266.1,170.2 266.4,173.1 260.1,179.6 252.4,174.9 252,172.1 259.8,176.8 			"/>
			<polygon class="st21" points="266.8,175.9 267.2,178.7 260.9,185.2 253.1,180.5 252.7,177.7 260.5,182.4 			"/>
		</g>
	</g>
</g>
</svg>
