<svg width="832" height="528" viewBox="0 0 832 528" fill="none" xmlns="http://www.w3.org/2000/svg">
<path d="M346.407 504.619C265.198 504.726 184.223 506.246 103.019 506.246C93.7788 506.246 83.7317 506.179 75.0738 504.619C70.3561 503.769 65.6443 501.034 62.6536 498.11C58.0011 493.561 53.6412 487.723 52.1442 482.198C51.0935 478.321 52.6314 473.505 55.0104 469.903C58.0453 465.309 62.7526 460.374 68.386 457.608C74.5358 454.589 82.7677 452.774 90.3602 452.546C122.894 451.568 156.127 454.887 188.766 453.992C200.075 453.682 211.316 451.326 222.205 448.929C238.704 445.299 254.446 439.426 270.931 435.911C277.057 434.605 283.8 434.06 290.038 434.465C294.946 434.783 300.798 435.496 304.369 438.081C322.454 451.167 337.13 467.944 355.006 481.475C359.104 484.578 364.785 486.415 370.292 486.9C378.479 487.62 387.309 486.765 393.221 483.283C398.774 480.014 404.351 473.568 404.686 467.734C404.988 462.479 402.305 456.268 397.998 451.822C374.28 427.339 343.159 406.056 320.611 380.945C310.039 369.171 303.483 354.971 298.637 341.167C291.381 320.496 290.706 298.403 284.306 277.521C281.47 268.268 277.274 258.843 270.931 250.762C264.217 242.209 254.614 234.655 245.135 227.618C234.315 218.346 230.694 217.598 217.596 208.293C209.013 203.093 200.556 198.349 189.572 192.316C185.091 189.855 167.108 180.451 157.716 166.685C139.69 140.265 130.648 116.146 117.111 86.5861C114.088 79.9843 113.392 72.5015 114.245 65.6121C115.303 57.0724 117.533 47.7486 122.844 40.2987C128.36 32.5606 137.122 24.9791 146.251 19.3247C154.637 14.1305 165.054 9.709 175.391 7.75287C187.984 5.36956 202.389 5.45322 215.517 7.02964C248.567 10.9981 266.997 17.6594 300.309 20.952C322.69 23.1643 353.091 24.5299 375.308 26.1955C382.427 26.7292 397.587 33.428 400.865 38.129C409.689 50.7858 416.354 66.2146 419.017 80.8001C421.768 95.8674 420.309 111.932 415.196 126.726C412.078 135.747 409.886 145.674 403.253 152.763C399.059 157.245 391.636 159.595 384.384 159.814C375.713 160.077 363.969 155.329 357.394 150.774C345.179 142.31 337.038 133.59 328.254 122.748C316.369 108.078 303.021 93.1833 287.172 81.5234C280.41 76.5487 269.523 73.3456 260.421 72.8445C252.007 72.3813 241.397 74.8466 234.625 78.6304C228.022 82.32 222.095 89.008 221.489 95.265C220.522 105.226 222.125 116.172 226.504 126.184C238.049 152.575 251.514 179.417 268.064 204.474C280.176 222.812 293.93 240.851 310.102 257.271C334.057 281.593 360.891 304.625 388.444 326.702C404.52 339.582 420.881 347.868 437.886 359.971C448.671 367.646 444.73 371.582 440.991 375.159C437.253 378.736 426.66 388.9 426.66 392.517C426.66 396.133 426.82 406.74 433.348 411.321C439.749 415.812 457.445 420.041 466.071 416.022C520.025 390.878 577.388 363.959 633.504 337.008C641.998 332.929 656.813 330.546 666.466 331.041C675.603 331.51 687.219 335.433 692.739 340.805C705.054 352.791 712.634 367.974 719.968 383.115C726.647 396.904 731.353 411.826 732.627 426.147C733.583 436.898 730.383 448.374 724.745 458.332C718.918 468.624 710.015 478.612 698.71 485.634C685.174 494.041 652.786 504.991 634.937 505.161C534.596 506.121 448.316 504.485 346.407 504.619Z" stroke="black" stroke-width="10" stroke-linecap="round" stroke-linejoin="round"/>
</svg>
