<?xml version="1.0" encoding="utf-8"?>
<!-- Generator: Adobe Illustrator 26.5.0, SVG Export Plug-In . SVG Version: 6.00 Build 0)  -->
<svg version="1.1" xmlns="http://www.w3.org/2000/svg" xmlns:xlink="http://www.w3.org/1999/xlink" x="0px" y="0px"
	 viewBox="0 0 550 443.7" style="enable-background:new 0 0 550 443.7;" xml:space="preserve">
<style type="text/css">
	.st0{fill:none;stroke:#646464;stroke-width:14.1732;stroke-miterlimit:10;}
	.st1{fill:none;stroke:#FFD449;stroke-width:2.8346;stroke-miterlimit:10;}
	.st2{fill:none;stroke:#54C6EB;stroke-width:2.8346;stroke-miterlimit:10;}
	.st3{fill:none;stroke:#F4442E;stroke-width:2.8346;stroke-miterlimit:10;}
	.st4{fill:none;stroke:#FFFFFF;stroke-width:2.126;}
	.st5{fill:#646464;}
	.st6{fill:#FFFFFF;}
	.st7{fill:none;stroke:#646464;stroke-width:2.8346;stroke-miterlimit:10;}
	.st8{fill:#09BC8A;}
	.st9{fill:none;stroke:#09BC8A;stroke-width:2.2097;stroke-miterlimit:10;}
	.st10{fill:none;stroke:#09BC8A;stroke-width:1.9843;stroke-miterlimit:10;}
	.st11{clip-path:url(#SVGID_00000052082226627707448120000003225011589359256480_);}
	.st12{fill:none;stroke:#646464;stroke-width:4.8189;stroke-miterlimit:10;}
	.st13{fill:#FF3380;}
	.st14{clip-path:url(#SVGID_00000146480650356378285320000014607395338713294209_);}
	.st15{fill:none;stroke:#FF3380;stroke-width:1.9843;stroke-miterlimit:10;}
	.st16{fill:none;stroke:#646464;stroke-width:0.7087;stroke-miterlimit:10;}
	.st17{fill:none;stroke:#F4442E;stroke-width:5.6693;stroke-miterlimit:10;}
	.st18{fill:none;stroke:#54C6EB;stroke-width:5.6693;stroke-miterlimit:10;}
	.st19{fill:none;stroke:#FFD449;stroke-width:5.6693;stroke-miterlimit:10;}
	.st20{fill:none;stroke:#09BC8A;stroke-width:2.8346;stroke-miterlimit:10;}
	.st21{clip-path:url(#SVGID_00000110462622352096251210000003113858319540910269_);}
	.st22{fill:#F4442E;}
	.st23{fill:#54C6EB;}
	.st24{fill:#FFD449;}
</style>
<g id="コース">
	<path class="st0" d="M97.2,258.9c0,0,128.7-217.9,133.9-227.2s13.8-10.8,23.5-4.5c9.7,6.3,6,19.4,4.1,22.4
		c-6.1,9.2-20.3,33.4-23.9,40.3c-3.7,6.9-8.5,19.6-9.8,31c-1.3,11.4-1.5,11.9-1.8,14.3c-0.3,2.5-3.2,9.4-13,11.6s-22.2,5.1-28,6.7
		s-9.2,7.3-7.8,15.7s11.7,11.9,21.8,9.5c10.1-2.3,32.6-7.8,58.2-5.9s49.9,19.9,70.8,19.6c18.6-0.3,35.9-10.4,42.3-13.8
		c6.4-3.4,20.6-8.8,39.5-5.4c18.9,3.4,40.7,8,49.6,10s24,12.4,27.8,29.6c4.7,21-11,36.9-15.4,41.3s-18.7,18.4-25.6,29
		c-6.9,10.5-16.7,25.5-19,28.2c-2.3,2.8-5.7,6.4-12.4,5.9c-6.7-0.6-29.4-5.1-41.6-13.6c-12.1-8.5-21.4-20.5-23.1-23.6
		c-1.8-3.1-1.3-9.4,3.5-12.9c4.8-3.5,10.7-8.2,28.4-8.2c17.7,0,22.5-0.6,33.4-3.5c10.8-2.9,17.1-7.9,18.1-15.8
		c1.3-9.7-0.9-18.9-14.5-22.1c-13.6-3.2-39.1-8.9-53.9-10.2c-14.8-1.3-42.6-1-61,1.5c-18.4,2.5-46.7,8-57.5,11.4
		c-10.8,3.4-20,7.2-21.8,8c-1.8,0.9-5.9,1.5-7.5-3.2s-5-16.4-17.3-14.8c-12.3,1.6-11.9,11.1-11.9,16.5c0,5.4,2.9,81.5,2.9,88.1
		c0,8.9-2.3,26.5-21.4,26.5s-36.6-4.7-44.3-7.2C115,331.7,90,314.9,90,289.4C90,280,91.7,268.2,97.2,258.9z"/>
</g>
<g id="セクター">
	<path class="st1" d="M250.6,218.4c-2.6,0.6-4.9,1.3-6.6,1.8c-10.8,3.4-20,7.2-21.8,8c-1.8,0.9-5.9,1.5-7.5-3.2s-5-16.4-17.3-14.8
		c-12.3,1.6-11.9,11.1-11.9,16.5c0,5.4,2.9,81.5,2.9,88.1c0,8.9-2.3,26.5-21.4,26.5s-36.6-4.7-44.3-7.2C115,331.7,90,314.9,90,289.4
		c0-9.4,1.7-21.2,7.1-30.5c0,0,36.1-61.1,70.9-120"/>
	<path class="st2" d="M405.3,173c0.6,0.1,1.2,0.2,1.8,0.3c18.9,3.4,40.7,8,49.6,10s24,12.4,27.8,29.6c4.7,21-11,36.9-15.4,41.3
		s-18.7,18.4-25.6,29c-6.9,10.5-16.7,25.5-19,28.2c-2.3,2.8-5.7,6.4-12.4,5.9c-6.7-0.6-29.4-5.1-41.6-13.6
		c-12.1-8.5-21.4-20.5-23.1-23.6c-1.8-3.1-1.3-9.4,3.5-12.9c4.8-3.5,10.7-8.2,28.4-8.2c17.7,0,22.5-0.6,33.4-3.5
		c10.8-2.9,17.1-7.9,18.1-15.8c1.3-9.7-0.9-18.9-14.5-22.1c-13.6-3.2-39.1-8.9-53.9-10.2c-14.8-1.3-42.6-1-61,1.5
		c-15.4,2.1-37.7,6.3-50.9,9.6"/>
	<path class="st3" d="M168,138.9c30.8-52.3,60.6-102.8,63.1-107.1c5.2-9.3,13.8-10.8,23.5-4.5c9.7,6.3,6,19.4,4.1,22.4
		c-6.1,9.2-20.3,33.4-23.9,40.3c-3.7,6.9-8.5,19.6-9.8,31c-1.3,11.4-1.5,11.9-1.8,14.3c-0.3,2.5-3.2,9.4-13,11.6s-22.2,5.1-28,6.7
		s-9.2,7.3-7.8,15.7s11.7,11.9,21.8,9.5c10.1-2.3,32.6-7.8,58.2-5.9s49.9,19.9,70.8,19.6c18.6-0.3,35.9-10.4,42.3-13.8
		c6.2-3.3,19.7-8.4,37.7-5.7"/>
</g>
<g id="コーナー番号">
	<g>
		<g>
			<circle class="st4" cx="272.9" cy="14.3" r="8.5"/>
			<circle class="st5" cx="272.9" cy="14.3" r="8.5"/>
		</g>
		<g>
			<path class="st6" d="M271.2,18.2v-1.6h1v-4.5h-0.9v-1.6h2.6v6.1h0.9v1.6H271.2z"/>
		</g>
	</g>
	<g>
		<g>
			<circle class="st4" cx="246.2" cy="141.1" r="8.5"/>
			<circle class="st5" cx="246.2" cy="141.1" r="8.5"/>
		</g>
		<g>
			<path class="st6" d="M244.1,145v-2.6c0-0.6,0.1-1,0.6-1.2l1.9-0.8v-1.6l-0.1-0.1h-0.5l-0.1,0.1v1.1h-1.7v-1.3
				c0-0.8,0.4-1.1,0.8-1.3h2.5c0.5,0.2,0.8,0.5,0.8,1.3v1.9c0,0.6-0.1,0.9-0.6,1.2l-1.9,0.8v0.9h2.4v1.6H244.1z"/>
		</g>
	</g>
	<g>
		<g>
			<circle class="st4" cx="161.7" cy="188" r="8.5"/>
			<circle class="st5" cx="161.7" cy="188" r="8.5"/>
		</g>
		<g>
			<path class="st6" d="M160.5,191.9c-0.5-0.2-0.8-0.5-0.8-1.3v-1h1.7v0.8l0.1,0.1h0.5l0.1-0.1v-1.6l-0.1-0.1h-1v-1.3h1l0.1-0.1
				v-1.5l-0.1-0.1h-0.5l-0.1,0.1v0.8h-1.7v-1c0-0.8,0.4-1.1,0.8-1.3h2.5c0.5,0.2,0.8,0.5,0.8,1.3v1.3c0,0.6-0.2,0.9-0.6,1.2
				c0.4,0.3,0.6,0.6,0.6,1.2v1.4c0,0.8-0.4,1.1-0.8,1.3H160.5z"/>
		</g>
	</g>
	<g>
		<g>
			<circle class="st4" cx="265.9" cy="153.9" r="8.5"/>
			<circle class="st5" cx="265.9" cy="153.9" r="8.5"/>
		</g>
		<g>
			<path class="st6" d="M267.6,156.3v1.5h-1.7v-1.5h-2.2v-1.5l1.6-4.7h1.7l-1.6,4.6h0.5v-0.4l0.4-1h1.3v1.4h0.5v1.6H267.6z"/>
		</g>
	</g>
	<g>
		<g>
			<circle class="st4" cx="327.1" cy="171.9" r="8.5"/>
			<circle class="st5" cx="327.1" cy="171.9" r="8.5"/>
		</g>
		<g>
			<path class="st6" d="M325.9,175.8c-0.5-0.2-0.8-0.5-0.8-1.3v-1h1.6v0.8l0.1,0.1h0.6l0.1-0.1v-2.1l-0.1-0.1h-0.6l-0.1,0.1v0.4H325
				v-4.5h4v1.5h-2.4v1.6l0.4-0.4h1.3c0.5,0.2,0.8,0.5,0.8,1.3v2.4c0,0.8-0.4,1.1-0.8,1.3H325.9z"/>
		</g>
	</g>
	<g>
		<g>
			<circle class="st4" cx="387.1" cy="151.1" r="8.5"/>
			<circle class="st5" cx="387.1" cy="151.1" r="8.5"/>
		</g>
		<g>
			<path class="st6" d="M388.4,155h-2.5c-0.5-0.2-0.8-0.5-0.8-1.3v-5.1c0-0.8,0.4-1.1,0.8-1.3h2.5c0.5,0.2,0.8,0.5,0.8,1.3v1h-1.7
				v-0.8l-0.1-0.1h-0.5l-0.1,0.1v1.8l0.3-0.3h1.3c0.5,0.2,0.8,0.5,0.8,1.3v2.2C389.2,154.5,388.8,154.8,388.4,155z M387.4,153.6
				l0.1-0.1v-1.8l-0.1-0.1h-0.5l-0.1,0.1v1.8l0.1,0.1H387.4z"/>
		</g>
	</g>
	<g>
		<g>
			<circle class="st4" cx="504.8" cy="218" r="8.5"/>
			<circle class="st5" cx="504.8" cy="218" r="8.5"/>
		</g>
		<g>
			<path class="st6" d="M502.9,221.9l2.1-6.2h-2.4v-1.5h4.1v1.2l-2.1,6.5H502.9z"/>
		</g>
	</g>
	<g>
		<g>
			<circle class="st4" cx="422.4" cy="338.8" r="8.5"/>
			<circle class="st5" cx="422.4" cy="338.8" r="8.5"/>
		</g>
		<g>
			<path class="st6" d="M421.1,342.7c-0.5-0.2-0.8-0.5-0.8-1.3V340c0-0.6,0.2-0.9,0.6-1.2c-0.4-0.3-0.6-0.6-0.6-1.2v-1.3
				c0-0.8,0.4-1.1,0.8-1.3h2.5c0.5,0.2,0.8,0.5,0.8,1.3v1.3c0,0.6-0.2,0.9-0.6,1.2c0.4,0.3,0.6,0.6,0.6,1.2v1.4
				c0,0.8-0.4,1.1-0.8,1.3H421.1z M422,338.1l0.1,0.1h0.5l0.1-0.1v-1.5l-0.1-0.1h-0.5l-0.1,0.1V338.1z M422.7,341.2v-1.6l-0.1-0.1
				h-0.5l-0.1,0.1v1.6l0.1,0.1h0.5L422.7,341.2z"/>
		</g>
	</g>
	<g>
		<g>
			<circle class="st4" cx="331.3" cy="258" r="8.5"/>
			<circle class="st5" cx="331.3" cy="258" r="8.5"/>
		</g>
		<g>
			<path class="st6" d="M330.1,261.9c-0.5-0.2-0.8-0.5-0.8-1.3v-1h1.7v0.8l0.1,0.1h0.5l0.1-0.1v-1.8l-0.3,0.3h-1.3
				c-0.5-0.2-0.8-0.5-0.8-1.3v-2.2c0-0.8,0.4-1.1,0.8-1.3h2.5c0.5,0.2,0.8,0.5,0.8,1.3v5.1c0,0.8-0.4,1.1-0.8,1.3H330.1z
				 M331.7,257.5v-1.8l-0.1-0.1h-0.5l-0.1,0.1v1.8l0.1,0.1h0.5L331.7,257.5z"/>
		</g>
	</g>
	<g>
		<g>
			<circle class="st4" cx="448.2" cy="228.6" r="8.5"/>
			<circle class="st5" cx="448.2" cy="228.6" r="8.5"/>
		</g>
		<g>
			<path class="st6" d="M444.1,232.5v-1.6h1v-4.5h-0.9v-1.6h2.6v6.1h0.9v1.6H444.1z"/>
			<path class="st6" d="M451.7,232.5h-2.5c-0.5-0.2-0.8-0.5-0.8-1.3v-5.1c0-0.8,0.4-1.1,0.8-1.3h2.5c0.5,0.2,0.8,0.5,0.8,1.3v5.1
				C452.6,232,452.2,232.3,451.7,232.5z M450.9,226.3l-0.1-0.1h-0.5l-0.1,0.1v4.7l0.1,0.1h0.5l0.1-0.1V226.3z"/>
		</g>
	</g>
	<g>
		<g>
			<circle class="st4" cx="217.9" cy="248.3" r="8.5"/>
			<circle class="st5" cx="217.9" cy="248.3" r="8.5"/>
		</g>
		<g>
			<path class="st6" d="M213.9,252.2v-1.6h1v-4.5H214v-1.6h2.6v6.1h0.9v1.6H213.9z"/>
			<path class="st6" d="M218.6,252.2v-1.6h1v-4.5h-0.9v-1.6h2.6v6.1h0.9v1.6H218.6z"/>
		</g>
	</g>
	<g>
		<g>
			<circle class="st4" cx="181.9" cy="196.8" r="8.5"/>
			<circle class="st5" cx="181.9" cy="196.8" r="8.5"/>
		</g>
		<g>
			<path class="st6" d="M177.9,200.7v-1.6h1v-4.5H178v-1.6h2.6v6.1h0.9v1.6H177.9z"/>
			<path class="st6" d="M182.2,200.7v-2.6c0-0.6,0.1-1,0.6-1.2l1.9-0.8v-1.6l-0.1-0.1H184l-0.1,0.1v1.1h-1.7v-1.3
				c0-0.8,0.4-1.1,0.8-1.3h2.5c0.5,0.2,0.8,0.5,0.8,1.3v1.9c0,0.6-0.1,0.9-0.6,1.2l-1.9,0.8v0.9h2.4v1.6H182.2z"/>
		</g>
	</g>
	<g>
		<g>
			<circle class="st4" cx="192.3" cy="353.5" r="8.5"/>
			<circle class="st5" cx="192.3" cy="353.5" r="8.5"/>
		</g>
		<g>
			<path class="st6" d="M188.2,357.4v-1.6h1v-4.5h-0.9v-1.6h2.6v6.1h0.9v1.6H188.2z"/>
			<path class="st6" d="M193.4,357.4c-0.5-0.2-0.8-0.5-0.8-1.3v-1h1.7v0.8l0.1,0.1h0.5l0.1-0.1v-1.6l-0.1-0.1h-1v-1.3h1l0.1-0.1
				v-1.5l-0.1-0.1h-0.5l-0.1,0.1v0.8h-1.7v-1c0-0.8,0.4-1.1,0.8-1.3h2.5c0.5,0.2,0.8,0.5,0.8,1.3v1.3c0,0.6-0.2,0.9-0.6,1.2
				c0.4,0.3,0.6,0.6,0.6,1.2v1.4c0,0.8-0.4,1.1-0.8,1.3H193.4z"/>
		</g>
	</g>
	<g>
		<g>
			<circle class="st4" cx="59.1" cy="295.7" r="8.5"/>
			<circle class="st5" cx="59.1" cy="295.7" r="8.5"/>
		</g>
		<g>
			<path class="st6" d="M55,299.6V298h1v-4.5h-0.9V292h2.6v6.1h0.9v1.6H55z"/>
			<path class="st6" d="M63.1,298.1v1.5h-1.7v-1.5h-2.2v-1.5l1.6-4.7h1.7l-1.6,4.6h0.5v-0.4l0.4-1h1.3v1.4h0.5v1.6H63.1z"/>
		</g>
	</g>
</g>
<g id="DRS">
	<g>
		<circle class="st7" cx="186.3" cy="245.1" r="4.7"/>
		<circle class="st8" cx="186.3" cy="245.1" r="4.7"/>
	</g>
	<g>
		<g>
			<path class="st8" d="M302.7,371.7c0,0.8-0.6,1.4-1.4,1.4h-67.6c-0.8,0-1.4-0.6-1.4-1.4v-48.8c0-0.8,0.6-1.4,1.4-1.4h67.6
				c0.8,0,1.4,0.6,1.4,1.4V371.7z"/>
		</g>
		<g>
			<path class="st6" d="M263.5,337.1c0,1.3-0.6,1.7-1.3,2H257v-12h5.2c0.7,0.3,1.3,0.7,1.3,2V337.1z M259.7,329.3v7.7h1l0.2-0.2
				v-7.3l-0.2-0.2H259.7z"/>
			<path class="st6" d="M264.3,339.1v-12h5.2c0.7,0.3,1.3,0.7,1.3,2v2.5c0,1.1-0.5,1.6-1.1,1.9l1.4,3.8v1.7h-2.3l-1.5-4.7H267v4.7
				H264.3z M267,329.3v3h1l0.2-0.2v-2.7l-0.2-0.2H267z"/>
			<path class="st6" d="M278,334.4v2.7c0,1.3-0.6,1.7-1.3,2h-3.9c-0.7-0.3-1.3-0.7-1.3-2v-2.4h2.7v2l0.2,0.2h0.8l0.2-0.2V335
				l-0.1-0.2l-2.7-1.2c-0.8-0.4-0.9-0.9-0.9-1.8v-2.5c0-1.3,0.6-1.7,1.3-2h3.9c0.7,0.3,1.3,0.7,1.3,2v2.2h-2.7v-1.9l-0.2-0.2h-0.8
				l-0.2,0.2v1.7l0.2,0.3l2.7,1.1C277.9,332.9,278,333.5,278,334.4z"/>
			<path class="st6" d="M244.4,351.3c0,1.3-0.6,1.7-1.3,2h-5.2v-12h5.2c0.7,0.3,1.3,0.7,1.3,2V351.3z M240.6,343.5v7.7h1l0.2-0.2
				v-7.3l-0.2-0.2H240.6z"/>
			<path class="st6" d="M245.3,341.3h5.5v2.5h-2.8v2.2h2.7v2.5h-2.7v2.3h2.9v2.5h-5.6V341.3z"/>
			<path class="st6" d="M255.9,343.8v9.5h-2.7v-9.5h-1.9v-2.5h6.5v2.5H255.9z"/>
			<path class="st6" d="M258.3,341.3h5.5v2.5H261v2.2h2.7v2.5H261v2.3h2.9v2.5h-5.6V341.3z"/>
			<path class="st6" d="M271.2,351.3c0,1.3-0.6,1.7-1.3,2H266c-0.7-0.3-1.3-0.7-1.3-2v-8c0-1.3,0.6-1.7,1.3-2h3.9
				c0.7,0.3,1.3,0.7,1.3,2v2.9h-2.7v-2.6l-0.2-0.2h-0.8l-0.2,0.2v7.3l0.2,0.2h0.8l0.2-0.2v-2.5h2.7V351.3z"/>
			<path class="st6" d="M276.3,343.8v9.5h-2.7v-9.5h-1.9v-2.5h6.5v2.5H276.3z"/>
			<path class="st6" d="M278.7,353.3v-2.5h0.5v-7h-0.5v-2.5h3.7v2.5h-0.5v7h0.5v2.5H278.7z"/>
			<path class="st6" d="M289.7,351.3c0,1.3-0.6,1.7-1.3,2h-3.9c-0.7-0.3-1.3-0.7-1.3-2v-8c0-1.3,0.6-1.7,1.3-2h3.9
				c0.7,0.3,1.3,0.7,1.3,2V351.3z M287,343.7l-0.2-0.2H286l-0.2,0.2v7.3l0.2,0.2h0.8l0.2-0.2V343.7z"/>
			<path class="st6" d="M294.7,341.3h2.3v12h-2.3l-1.7-5.2h-0.2v5.2h-2.3v-12h2.3l1.7,5.2h0.2V341.3z"/>
			<path class="st6" d="M252.3,358h-3.5v-2.5h6.5v2.2l-3.5,7.3h3.5v2.5h-6.5v-2.2L252.3,358z"/>
			<path class="st6" d="M262.6,365.5c0,1.3-0.6,1.7-1.3,2h-3.9c-0.7-0.3-1.3-0.7-1.3-2v-8c0-1.3,0.6-1.7,1.3-2h3.9
				c0.7,0.3,1.3,0.7,1.3,2V365.5z M259.9,357.8l-0.2-0.2H259l-0.2,0.2v7.3l0.2,0.2h0.8l0.2-0.2V357.8z"/>
			<path class="st6" d="M267.6,355.5h2.3v12h-2.3l-1.7-5.2h-0.2v5.2h-2.3v-12h2.3l1.7,5.2h0.2V355.5z"/>
			<path class="st6" d="M270.8,355.5h5.5v2.5h-2.8v2.2h2.7v2.5h-2.7v2.3h2.9v2.5h-5.6V355.5z"/>
			<path class="st6" d="M279.7,367.5v-4c0-0.9,0.2-1.5,0.9-1.8l2.9-1.3v-2.5l-0.2-0.2h-0.8l-0.2,0.2v1.7h-2.7v-2.1
				c0-1.3,0.6-1.7,1.3-2h3.9c0.7,0.3,1.3,0.7,1.3,2v3c0,0.9-0.1,1.5-0.9,1.8l-2.9,1.3v1.3h3.8v2.5H279.7z"/>
		</g>
	</g>
	<g>
		<g>
			<path class="st8" d="M531.5,371.7c0,0.8-0.6,1.4-1.4,1.4h-67.6c-0.8,0-1.4-0.6-1.4-1.4v-48.8c0-0.8,0.6-1.4,1.4-1.4H530
				c0.8,0,1.4,0.6,1.4,1.4V371.7z"/>
		</g>
		<g>
			<path class="st6" d="M492.3,337.1c0,1.3-0.6,1.7-1.3,2h-5.2v-12h5.2c0.7,0.3,1.3,0.7,1.3,2V337.1z M488.4,329.3v7.7h1l0.2-0.2
				v-7.3l-0.2-0.2H488.4z"/>
			<path class="st6" d="M493.1,339.1v-12h5.2c0.7,0.3,1.3,0.7,1.3,2v2.5c0,1.1-0.5,1.6-1.1,1.9l1.4,3.8v1.7h-2.3l-1.5-4.7h-0.3v4.7
				H493.1z M495.8,329.3v3h1l0.2-0.2v-2.7l-0.2-0.2H495.8z"/>
			<path class="st6" d="M506.8,334.4v2.7c0,1.3-0.6,1.7-1.3,2h-3.9c-0.7-0.3-1.3-0.7-1.3-2v-2.4h2.7v2l0.2,0.2h0.8l0.2-0.2V335
				l-0.1-0.2l-2.7-1.2c-0.8-0.4-0.9-0.9-0.9-1.8v-2.5c0-1.3,0.6-1.7,1.3-2h3.9c0.7,0.3,1.3,0.7,1.3,2v2.2h-2.7v-1.9l-0.2-0.2h-0.8
				l-0.2,0.2v1.7l0.2,0.3l2.7,1.1C506.7,332.9,506.8,333.5,506.8,334.4z"/>
			<path class="st6" d="M473.2,351.3c0,1.3-0.6,1.7-1.3,2h-5.2v-12h5.2c0.7,0.3,1.3,0.7,1.3,2V351.3z M469.4,343.5v7.7h1l0.2-0.2
				v-7.3l-0.2-0.2H469.4z"/>
			<path class="st6" d="M474,341.3h5.5v2.5h-2.8v2.2h2.7v2.5h-2.7v2.3h2.9v2.5H474V341.3z"/>
			<path class="st6" d="M484.7,343.8v9.5H482v-9.5h-1.9v-2.5h6.5v2.5H484.7z"/>
			<path class="st6" d="M487.1,341.3h5.5v2.5h-2.8v2.2h2.7v2.5h-2.7v2.3h2.9v2.5h-5.6V341.3z"/>
			<path class="st6" d="M500,351.3c0,1.3-0.6,1.7-1.3,2h-3.9c-0.7-0.3-1.3-0.7-1.3-2v-8c0-1.3,0.6-1.7,1.3-2h3.9
				c0.7,0.3,1.3,0.7,1.3,2v2.9h-2.7v-2.6l-0.2-0.2h-0.8l-0.2,0.2v7.3l0.2,0.2h0.8l0.2-0.2v-2.5h2.7V351.3z"/>
			<path class="st6" d="M505.1,343.8v9.5h-2.7v-9.5h-1.9v-2.5h6.5v2.5H505.1z"/>
			<path class="st6" d="M507.5,353.3v-2.5h0.5v-7h-0.5v-2.5h3.7v2.5h-0.5v7h0.5v2.5H507.5z"/>
			<path class="st6" d="M518.5,351.3c0,1.3-0.6,1.7-1.3,2h-3.9c-0.7-0.3-1.3-0.7-1.3-2v-8c0-1.3,0.6-1.7,1.3-2h3.9
				c0.7,0.3,1.3,0.7,1.3,2V351.3z M515.8,343.7l-0.2-0.2h-0.8l-0.2,0.2v7.3l0.2,0.2h0.8l0.2-0.2V343.7z"/>
			<path class="st6" d="M523.5,341.3h2.3v12h-2.3l-1.7-5.2h-0.2v5.2h-2.3v-12h2.3l1.7,5.2h0.2V341.3z"/>
			<path class="st6" d="M481.1,358h-3.5v-2.5h6.5v2.2l-3.5,7.3h3.5v2.5h-6.5v-2.2L481.1,358z"/>
			<path class="st6" d="M491.4,365.5c0,1.3-0.6,1.7-1.3,2h-3.9c-0.7-0.3-1.3-0.7-1.3-2v-8c0-1.3,0.6-1.7,1.3-2h3.9
				c0.7,0.3,1.3,0.7,1.3,2V365.5z M488.7,357.8l-0.2-0.2h-0.8l-0.2,0.2v7.3l0.2,0.2h0.8l0.2-0.2V357.8z"/>
			<path class="st6" d="M496.4,355.5h2.3v12h-2.3l-1.7-5.2h-0.2v5.2h-2.3v-12h2.3l1.7,5.2h0.2V355.5z"/>
			<path class="st6" d="M499.5,355.5h5.5v2.5h-2.8v2.2h2.7v2.5h-2.7v2.3h2.9v2.5h-5.6V355.5z"/>
			<path class="st6" d="M509,367.5V365h1.5v-7h-1.3v-2.5h4v9.5h1.3v2.5H509z"/>
		</g>
	</g>
	<g>
		<g>
			<g>
				<g>
					<line class="st9" x1="411.9" y1="239.4" x2="414.6" y2="228.1"/>
				</g>
				<g>
					<path class="st8" d="M407.9,232.5c0.1-0.6,0.7-1,1.3-0.8s1,0.7,0.8,1.3c-0.1,0.6-0.7,1-1.3,0.8
						C408.2,233.6,407.8,233,407.9,232.5z"/>
				</g>
				<g>
					<path class="st8" d="M403.7,231.5c0.1-0.6,0.7-1,1.3-0.8c0.6,0.1,1,0.7,0.8,1.3s-0.7,1-1.3,0.8
						C403.9,232.7,403.5,232.1,403.7,231.5z"/>
				</g>
				<g>
					<path class="st8" d="M399.4,230.5c0.1-0.6,0.7-1,1.3-0.8c0.6,0.1,1,0.7,0.8,1.3c-0.1,0.6-0.7,1-1.3,0.8
						S399.3,231.1,399.4,230.5z"/>
				</g>
				<g>
					<path class="st8" d="M395.1,229.6c0.1-0.6,0.7-1,1.3-0.9c0.6,0.1,1,0.7,0.8,1.3c-0.1,0.6-0.7,1-1.3,0.9
						C395.4,230.8,395,230.2,395.1,229.6z"/>
				</g>
				<g>
					<path class="st8" d="M390.9,228.8c0.1-0.6,0.7-1,1.3-0.9c0.6,0.1,1,0.7,0.9,1.3c-0.1,0.6-0.7,1-1.3,0.9
						C391.1,229.9,390.7,229.4,390.9,228.8z"/>
				</g>
				<g>
					<path class="st8" d="M386.6,227.9c0.1-0.6,0.7-1,1.3-0.9c0.6,0.1,1,0.7,0.9,1.3c-0.1,0.6-0.7,1-1.3,0.9
						C386.8,229.1,386.4,228.5,386.6,227.9z"/>
				</g>
				<g>
					<path class="st8" d="M382.3,227.2c0.1-0.6,0.7-1,1.3-0.9c0.6,0.1,1,0.7,0.9,1.3c-0.1,0.6-0.7,1-1.3,0.9
						S382.1,227.8,382.3,227.2z"/>
				</g>
				<g>
					<path class="st8" d="M377.9,226.4c0.1-0.6,0.7-1,1.3-0.9c0.6,0.1,1,0.7,0.9,1.3c-0.1,0.6-0.7,1-1.3,0.9
						C378.2,227.6,377.8,227,377.9,226.4z"/>
				</g>
				<g>
					<path class="st8" d="M373.6,225.7c0.1-0.6,0.7-1,1.2-0.9c0.6,0.1,1,0.7,0.9,1.3c-0.1,0.6-0.7,1-1.2,0.9
						S373.5,226.3,373.6,225.7z"/>
				</g>
				<g>
					<path class="st8" d="M369.3,225.1c0.1-0.6,0.6-1,1.2-0.9c0.6,0.1,1,0.6,0.9,1.2c-0.1,0.6-0.6,1-1.2,0.9
						C369.6,226.3,369.2,225.7,369.3,225.1z"/>
				</g>
				<g>
					<path class="st8" d="M365,224.5c0.1-0.6,0.6-1,1.2-1c0.6,0.1,1,0.6,0.9,1.2c-0.1,0.6-0.6,1-1.2,1
						C365.3,225.7,364.9,225.1,365,224.5z"/>
				</g>
				<g>
					<path class="st8" d="M360.6,224c0.1-0.6,0.6-1,1.2-1c0.6,0.1,1,0.6,1,1.2c-0.1,0.6-0.6,1-1.2,1
						C361,225.1,360.6,224.6,360.6,224z"/>
				</g>
				<g>
					<path class="st8" d="M356.3,223.5c0.1-0.6,0.6-1.1,1.2-1c0.6,0.1,1,0.6,1,1.2c-0.1,0.6-0.6,1-1.2,1S356.2,224.1,356.3,223.5z"
						/>
				</g>
				<g>
					<path class="st8" d="M351.9,223.1c0-0.6,0.6-1.1,1.2-1c0.6,0,1,0.6,1,1.2c-0.1,0.6-0.6,1-1.2,1
						C352.3,224.3,351.9,223.8,351.9,223.1z"/>
				</g>
				<g>
					<path class="st8" d="M347.6,222.8c0-0.6,0.6-1.1,1.2-1c0.6,0,1.1,0.6,1,1.2c0,0.6-0.6,1.1-1.2,1
						C348,224,347.5,223.4,347.6,222.8z"/>
				</g>
				<g>
					<path class="st8" d="M343.2,222.6c0-0.6,0.5-1.1,1.1-1.1c0.6,0,1.1,0.5,1,1.2c0,0.6-0.5,1.1-1.1,1.1
						C343.6,223.7,343.2,223.2,343.2,222.6z"/>
				</g>
				<g>
					<path class="st8" d="M338.8,222.4c0-0.6,0.5-1.1,1.1-1.1c0.6,0,1.1,0.5,1.1,1.1c0,0.6-0.5,1.1-1.1,1.1
						C339.3,223.6,338.8,223.1,338.8,222.4z"/>
				</g>
				<g>
					<path class="st8" d="M334.5,222.4c0-0.6,0.5-1.1,1.1-1.1c0.6,0,1.1,0.5,1.1,1.1c0,0.6-0.5,1.1-1.1,1.1S334.5,223,334.5,222.4z"
						/>
				</g>
				<g>
					<path class="st8" d="M330.1,222.5c0-0.6,0.5-1.1,1.1-1.1c0.6,0,1.1,0.5,1.1,1.1c0,0.6-0.5,1.1-1.1,1.1
						C330.6,223.6,330.1,223.1,330.1,222.5z"/>
				</g>
				<g>
					<path class="st8" d="M325.7,222.7c0-0.6,0.4-1.1,1-1.2c0.6,0,1.1,0.5,1.1,1.1c0,0.6-0.4,1.1-1,1.1
						C326.3,223.7,325.8,223.3,325.7,222.7z"/>
				</g>
				<g>
					<path class="st8" d="M321.4,223c-0.1-0.6,0.4-1.1,1-1.2c0.6,0,1.1,0.4,1.2,1c0,0.6-0.4,1.1-1,1.2
						C322,224,321.4,223.6,321.4,223z"/>
				</g>
				<g>
					<path class="st8" d="M317,223.4c-0.1-0.6,0.4-1.2,1-1.2s1.1,0.4,1.2,1c0.1,0.6-0.4,1.2-1,1.2C317.6,224.5,317.1,224,317,223.4z
						"/>
				</g>
				<g>
					<path class="st8" d="M312.7,223.9c-0.1-0.6,0.4-1.2,1-1.2c0.6-0.1,1.1,0.4,1.2,1c0.1,0.6-0.4,1.2-1,1.2
						C313.3,225,312.7,224.5,312.7,223.9z"/>
				</g>
				<g>
					<path class="st8" d="M308.3,224.5c-0.1-0.6,0.3-1.2,0.9-1.2c0.6-0.1,1.1,0.4,1.2,1c0.1,0.6-0.3,1.2-0.9,1.2
						C309,225.5,308.4,225.1,308.3,224.5z"/>
				</g>
				<g>
					<path class="st8" d="M304,225.1c-0.1-0.6,0.3-1.2,0.9-1.2s1.2,0.3,1.2,0.9c0.1,0.6-0.3,1.2-0.9,1.2
						C304.6,226.1,304.1,225.7,304,225.1z"/>
				</g>
				<g>
					<path class="st8" d="M299.7,225.7c-0.1-0.6,0.3-1.2,0.9-1.3c0.6-0.1,1.2,0.3,1.2,0.9c0.1,0.6-0.3,1.2-0.9,1.3
						C300.3,226.7,299.8,226.3,299.7,225.7z"/>
				</g>
				<g>
					<path class="st8" d="M295.4,226.4c-0.1-0.6,0.3-1.2,0.9-1.3c0.6-0.1,1.2,0.3,1.3,0.9s-0.3,1.2-0.9,1.3
						C296,227.4,295.5,227,295.4,226.4z"/>
				</g>
				<g>
					<path class="st8" d="M291,227.1c-0.1-0.6,0.3-1.2,0.9-1.3s1.2,0.3,1.3,0.9s-0.3,1.2-0.9,1.3C291.7,228.1,291.1,227.7,291,227.1
						z"/>
				</g>
				<g>
					<path class="st8" d="M286.7,227.8c-0.1-0.6,0.3-1.2,0.9-1.3s1.2,0.3,1.3,0.9c0.1,0.6-0.3,1.2-0.9,1.3S286.8,228.4,286.7,227.8z
						"/>
				</g>
				<g>
					<path class="st8" d="M282.4,228.6c-0.1-0.6,0.3-1.2,0.9-1.3c0.6-0.1,1.2,0.3,1.3,0.9c0.1,0.6-0.3,1.2-0.9,1.3
						C283.1,229.6,282.5,229.2,282.4,228.6z"/>
				</g>
				<g>
					<path class="st8" d="M278.1,229.5c-0.1-0.6,0.3-1.2,0.9-1.3c0.6-0.1,1.2,0.3,1.3,0.9c0.1,0.6-0.3,1.2-0.9,1.3
						C278.8,230.4,278.3,230,278.1,229.5z"/>
				</g>
				<g>
					<path class="st8" d="M273.9,230.3c-0.1-0.6,0.3-1.2,0.9-1.3c0.6-0.1,1.2,0.3,1.3,0.9s-0.3,1.2-0.9,1.3
						C274.6,231.3,274,230.9,273.9,230.3z"/>
				</g>
				<g>
					<path class="st8" d="M269.6,231.2c-0.1-0.6,0.2-1.2,0.8-1.3c0.6-0.1,1.2,0.3,1.3,0.9c0.1,0.6-0.3,1.2-0.8,1.3
						C270.3,232.2,269.7,231.8,269.6,231.2z"/>
				</g>
				<g>
					<path class="st8" d="M265.3,232.1c-0.1-0.6,0.2-1.2,0.8-1.3c0.6-0.1,1.2,0.2,1.3,0.8s-0.2,1.2-0.8,1.3S265.4,232.7,265.3,232.1
						z"/>
				</g>
				<g>
					<path class="st8" d="M261,233.1c-0.1-0.6,0.2-1.2,0.8-1.3s1.2,0.2,1.3,0.8s-0.2,1.2-0.8,1.3C261.8,234.1,261.2,233.7,261,233.1
						z"/>
				</g>
				<g>
					<path class="st8" d="M256.8,234.1c-0.1-0.6,0.2-1.2,0.8-1.3s1.2,0.2,1.3,0.8s-0.2,1.2-0.8,1.3
						C257.5,235.1,256.9,234.7,256.8,234.1z"/>
				</g>
				<g>
					<path class="st8" d="M252.6,235.2c-0.2-0.6,0.2-1.2,0.8-1.4c0.6-0.1,1.2,0.2,1.3,0.8c0.1,0.6-0.2,1.2-0.8,1.3
						C253.3,236.2,252.7,235.8,252.6,235.2z"/>
				</g>
				<g>
					<path class="st8" d="M248.3,236.3c-0.2-0.6,0.2-1.2,0.8-1.4c0.6-0.2,1.2,0.2,1.3,0.8s-0.2,1.2-0.8,1.3
						C249.1,237.3,248.5,236.9,248.3,236.3z"/>
				</g>
				<g>
					<path class="st8" d="M244.1,237.5c-0.2-0.6,0.2-1.2,0.7-1.4c0.6-0.2,1.2,0.2,1.4,0.8c0.2,0.6-0.2,1.2-0.7,1.4
						C244.9,238.5,244.3,238.1,244.1,237.5z"/>
				</g>
				<g>
					<path class="st8" d="M239.9,238.8c-0.2-0.6,0.1-1.2,0.7-1.4s1.2,0.2,1.4,0.7c0.2,0.6-0.1,1.2-0.7,1.4
						C240.7,239.7,240.1,239.4,239.9,238.8z"/>
				</g>
				<g>
					<path class="st8" d="M235.8,240.2c-0.2-0.6,0.1-1.2,0.7-1.4c0.6-0.2,1.2,0.1,1.4,0.7c0.2,0.6-0.1,1.2-0.7,1.4
						C236.6,241.1,236,240.8,235.8,240.2z"/>
				</g>
				<g>
					<line class="st9" x1="234.8" y1="246.7" x2="230.7" y2="235.9"/>
				</g>
			</g>
		</g>
	</g>
	<g>
		<g>
			<g>
				<g>
					<line class="st9" x1="140.2" y1="362" x2="142.1" y2="350.5"/>
				</g>
				<g>
					<path class="st8" d="M135.7,355.2c0.1-0.6,0.7-1,1.3-0.9c0.6,0.1,1,0.7,0.9,1.3c-0.1,0.6-0.7,1-1.3,0.9
						C136,356.4,135.6,355.8,135.7,355.2z"/>
				</g>
				<g>
					<path class="st8" d="M131.4,354.3c0.1-0.6,0.7-1,1.3-0.8c0.6,0.1,1,0.7,0.8,1.3s-0.7,1-1.3,0.8
						C131.6,355.5,131.3,354.9,131.4,354.3z"/>
				</g>
				<g>
					<path class="st8" d="M127.1,353.3c0.2-0.6,0.8-0.9,1.3-0.8c0.6,0.1,0.9,0.8,0.8,1.3s-0.7,0.9-1.3,0.8
						C127.3,354.5,126.9,353.9,127.1,353.3z"/>
				</g>
				<g>
					<path class="st8" d="M122.8,352c0.2-0.6,0.8-0.9,1.4-0.7c0.6,0.2,0.9,0.8,0.7,1.4c-0.2,0.6-0.8,0.9-1.4,0.7
						C123,353.2,122.6,352.6,122.8,352z"/>
				</g>
				<g>
					<path class="st8" d="M118.6,350.6c0.2-0.6,0.8-0.9,1.4-0.7c0.6,0.2,0.9,0.8,0.7,1.4c-0.2,0.6-0.8,0.9-1.4,0.7
						C118.7,351.8,118.4,351.2,118.6,350.6z"/>
				</g>
				<g>
					<path class="st8" d="M114.5,349.1c0.2-0.6,0.9-0.8,1.4-0.6c0.6,0.2,0.8,0.9,0.6,1.4c-0.2,0.6-0.9,0.9-1.4,0.6
						C114.5,350.3,114.3,349.6,114.5,349.1z"/>
				</g>
				<g>
					<path class="st8" d="M110.4,347.3c0.3-0.6,0.9-0.8,1.5-0.5c0.5,0.3,0.8,0.9,0.5,1.5c-0.2,0.6-0.9,0.8-1.5,0.5
						C110.4,348.5,110.2,347.8,110.4,347.3z"/>
				</g>
				<g>
					<path class="st8" d="M106.5,345.2c0.3-0.5,1-0.7,1.5-0.4c0.5,0.3,0.7,0.9,0.5,1.5c-0.3,0.5-1,0.8-1.5,0.5
						C106.4,346.4,106.2,345.8,106.5,345.2z"/>
				</g>
				<g>
					<path class="st8" d="M102.7,343c0.3-0.5,1-0.7,1.5-0.4c0.5,0.3,0.7,1,0.4,1.5c-0.3,0.5-1,0.7-1.5,0.4
						C102.5,344.2,102.4,343.5,102.7,343z"/>
				</g>
				<g>
					<path class="st8" d="M99,340.5c0.4-0.5,1.1-0.6,1.5-0.3c0.5,0.3,0.6,1,0.3,1.5s-1,0.6-1.5,0.3C98.8,341.7,98.6,341,99,340.5z"
						/>
				</g>
				<g>
					<path class="st8" d="M95.5,337.8c0.4-0.5,1.1-0.5,1.5-0.1c0.5,0.4,0.6,1.1,0.2,1.5c-0.4,0.5-1.1,0.6-1.6,0.2
						C95.2,338.9,95.1,338.2,95.5,337.8z"/>
				</g>
				<g>
					<path class="st8" d="M92.2,334.8c0.4-0.4,1.1-0.4,1.6,0c0.4,0.4,0.5,1.1,0.1,1.6c-0.4,0.5-1.1,0.5-1.6,0.1
						C91.8,335.9,91.8,335.2,92.2,334.8z"/>
				</g>
				<g>
					<path class="st8" d="M89.2,331.6c0.5-0.4,1.2-0.4,1.6,0.1c0.4,0.5,0.4,1.1-0.1,1.6c-0.4,0.4-1.2,0.4-1.6-0.1
						C88.7,332.7,88.7,332,89.2,331.6z"/>
				</g>
				<g>
					<path class="st8" d="M86.4,328.1c0.5-0.4,1.2-0.3,1.5,0.2c0.4,0.5,0.3,1.2-0.2,1.5c-0.5,0.4-1.2,0.3-1.6-0.2
						C85.8,329.2,85.9,328.5,86.4,328.1z"/>
				</g>
				<g>
					<path class="st8" d="M83.9,324.5c0.5-0.3,1.2-0.2,1.5,0.3c0.3,0.5,0.2,1.2-0.3,1.5c-0.5,0.4-1.2,0.2-1.5-0.3
						C83.2,325.5,83.4,324.8,83.9,324.5z"/>
				</g>
				<g>
					<path class="st8" d="M81.6,320.7c0.5-0.3,1.2-0.1,1.5,0.4c0.3,0.5,0.1,1.2-0.4,1.5c-0.5,0.3-1.2,0.1-1.5-0.4
						C80.9,321.7,81.1,321,81.6,320.7z"/>
				</g>
				<g>
					<path class="st8" d="M79.7,316.7c0.6-0.2,1.2,0,1.4,0.5c0.3,0.5,0,1.2-0.5,1.5c-0.5,0.3-1.2,0-1.5-0.5
						C78.9,317.6,79.1,317,79.7,316.7z"/>
				</g>
				<g>
					<path class="st8" d="M78,312.6c0.6-0.2,1.2,0.1,1.4,0.6c0.2,0.6-0.1,1.2-0.6,1.4c-0.6,0.2-1.2,0-1.4-0.6
						C77.1,313.5,77.4,312.8,78,312.6z"/>
				</g>
				<g>
					<path class="st8" d="M76.6,308.4c0.6-0.2,1.2,0.1,1.4,0.7c0.2,0.6-0.1,1.2-0.7,1.4c-0.6,0.2-1.2-0.1-1.4-0.7
						C75.7,309.2,76,308.6,76.6,308.4z"/>
				</g>
				<g>
					<path class="st8" d="M75.4,304.1c0.6-0.1,1.2,0.2,1.4,0.8c0.2,0.6-0.2,1.2-0.8,1.3s-1.2-0.2-1.4-0.8
						C74.5,304.9,74.8,304.3,75.4,304.1z"/>
				</g>
				<g>
					<path class="st8" d="M74.5,299.8c0.6-0.1,1.2,0.3,1.3,0.9c0.1,0.6-0.3,1.2-0.9,1.3c-0.6,0.1-1.2-0.3-1.3-0.9
						C73.6,300.5,73.9,299.9,74.5,299.8z"/>
				</g>
				<g>
					<path class="st8" d="M73.9,295.4c0.6-0.1,1.2,0.4,1.2,1c0.1,0.6-0.3,1.1-1,1.2c-0.6,0.1-1.2-0.3-1.2-1
						C72.9,296,73.3,295.5,73.9,295.4z"/>
				</g>
				<g>
					<path class="st8" d="M73.6,291c0.6,0,1.1,0.4,1.2,1c0,0.6-0.4,1.1-1,1.2s-1.1-0.4-1.2-1C72.5,291.5,73,291,73.6,291z"/>
				</g>
				<g>
					<path class="st8" d="M73.5,286.6c0.6,0,1.1,0.5,1.1,1.1c0,0.6-0.5,1.1-1.1,1.1c-0.6,0-1.1-0.5-1.1-1.1
						C72.4,287.1,72.9,286.6,73.5,286.6z"/>
				</g>
				<g>
					<path class="st8" d="M73.6,282.1c0.6,0,1.1,0.6,1.1,1.2c0,0.6-0.5,1.1-1.2,1.1c-0.6,0-1.1-0.5-1.1-1.2
						C72.5,282.6,73,282.1,73.6,282.1z"/>
				</g>
				<g>
					<path class="st8" d="M74,277.7c0.6,0.1,1,0.6,1,1.2c-0.1,0.6-0.6,1-1.2,1c-0.6-0.1-1.1-0.6-1-1.2
						C72.9,278.1,73.4,277.6,74,277.7z"/>
				</g>
				<g>
					<path class="st8" d="M74.7,273.3c0.6,0.1,1,0.7,0.9,1.3c-0.1,0.6-0.7,1-1.3,0.9c-0.6-0.1-1-0.7-0.9-1.3
						C73.5,273.6,74.1,273.2,74.7,273.3z"/>
				</g>
				<g>
					<path class="st8" d="M75.6,269c0.6,0.1,0.9,0.7,0.8,1.3c-0.1,0.6-0.7,1-1.3,0.9c-0.6-0.1-1-0.7-0.9-1.3
						C74.4,269.2,75,268.9,75.6,269z"/>
				</g>
				<g>
					<path class="st8" d="M76.7,264.7c0.6,0.2,0.9,0.8,0.7,1.4c-0.2,0.6-0.7,0.9-1.3,0.8c-0.6-0.2-1-0.8-0.8-1.4
						C75.5,264.9,76.1,264.5,76.7,264.7z"/>
				</g>
				<g>
					<path class="st8" d="M78,260.5c0.6,0.2,0.9,0.8,0.7,1.4c-0.2,0.6-0.8,0.9-1.4,0.7c-0.6-0.2-0.9-0.8-0.7-1.4
						C76.8,260.6,77.5,260.3,78,260.5z"/>
				</g>
				<g>
					<path class="st8" d="M79.6,256.3c0.6,0.2,0.8,0.9,0.6,1.4c-0.2,0.6-0.9,0.8-1.4,0.6c-0.6-0.2-0.9-0.9-0.6-1.4
						C78.4,256.4,79,256.1,79.6,256.3z"/>
				</g>
				<g>
					<path class="st8" d="M81.4,252.3c0.5,0.3,0.8,0.9,0.5,1.5c-0.3,0.5-0.9,0.8-1.5,0.5c-0.6-0.2-0.8-0.9-0.5-1.5
						C80.2,252.3,80.9,252,81.4,252.3z"/>
				</g>
				<g>
					<path class="st8" d="M83.5,248.4c0.5,0.3,0.7,1,0.4,1.5c-0.3,0.5-1,0.7-1.5,0.4c-0.5-0.3-0.7-1-0.4-1.5
						C82.3,248.3,82.9,248.1,83.5,248.4z"/>
				</g>
				<g>
					<path class="st8" d="M85.7,244.6c0.5,0.3,0.7,1,0.4,1.5s-1,0.7-1.5,0.4c-0.5-0.3-0.7-1-0.4-1.5
						C84.5,244.4,85.2,244.3,85.7,244.6z"/>
				</g>
				<g>
					<path class="st8" d="M88,240.7c0.5,0.3,0.7,1,0.4,1.5c-0.3,0.5-1,0.7-1.5,0.4c-0.5-0.3-0.7-1-0.4-1.5
						C86.7,240.6,87.4,240.4,88,240.7z"/>
				</g>
				<g>
					<path class="st8" d="M90.2,236.9c0.5,0.3,0.7,1,0.4,1.5c-0.3,0.5-1,0.7-1.5,0.4s-0.7-1-0.4-1.5C89,236.8,89.7,236.6,90.2,236.9
						z"/>
				</g>
				<g>
					<path class="st8" d="M92.4,233.1c0.5,0.3,0.7,1,0.4,1.5c-0.3,0.5-1,0.7-1.5,0.4c-0.5-0.3-0.7-1-0.4-1.5
						C91.2,233,91.9,232.8,92.4,233.1z"/>
				</g>
				<g>
					<path class="st8" d="M94.7,229.3c0.5,0.3,0.7,1,0.4,1.5s-1,0.7-1.5,0.4c-0.5-0.3-0.7-1-0.4-1.5C93.5,229.1,94.1,229,94.7,229.3
						z"/>
				</g>
				<g>
					<path class="st8" d="M96.9,225.4c0.5,0.3,0.7,1,0.4,1.5c-0.3,0.5-1,0.7-1.5,0.4c-0.5-0.3-0.7-1-0.4-1.5
						C95.7,225.3,96.4,225.1,96.9,225.4z"/>
				</g>
				<g>
					<path class="st8" d="M99.2,221.6c0.5,0.3,0.7,1,0.4,1.5c-0.3,0.5-1,0.7-1.5,0.4c-0.5-0.3-0.7-1-0.4-1.5
						C97.9,221.5,98.6,221.3,99.2,221.6z"/>
				</g>
				<g>
					<path class="st8" d="M101.4,217.8c0.5,0.3,0.7,1,0.4,1.5s-1,0.7-1.5,0.4s-0.7-1-0.4-1.5C100.2,217.7,100.9,217.5,101.4,217.8z"
						/>
				</g>
				<g>
					<path class="st8" d="M103.6,214c0.5,0.3,0.7,1,0.4,1.5c-0.3,0.5-1,0.7-1.5,0.4s-0.7-1-0.4-1.5
						C102.4,213.8,103.1,213.7,103.6,214z"/>
				</g>
				<g>
					<path class="st8" d="M105.9,210.1c0.5,0.3,0.7,1,0.4,1.5c-0.3,0.5-1,0.7-1.5,0.4c-0.5-0.3-0.7-1-0.4-1.5
						C104.7,210,105.3,209.8,105.9,210.1z"/>
				</g>
				<g>
					<path class="st8" d="M108.1,206.3c0.5,0.3,0.7,1,0.4,1.5c-0.3,0.5-1,0.7-1.5,0.4c-0.5-0.3-0.7-1-0.4-1.5S107.6,206,108.1,206.3
						z"/>
				</g>
				<g>
					<path class="st8" d="M110.3,202.5c0.5,0.3,0.7,1,0.4,1.5c-0.3,0.5-1,0.7-1.5,0.4c-0.5-0.3-0.7-1-0.4-1.5
						C109.1,202.4,109.8,202.2,110.3,202.5z"/>
				</g>
				<g>
					<path class="st8" d="M112.6,198.7c0.5,0.3,0.7,1,0.4,1.5c-0.3,0.5-1,0.7-1.5,0.4c-0.5-0.3-0.7-1-0.4-1.5
						C111.4,198.5,112.1,198.4,112.6,198.7z"/>
				</g>
				<g>
					<path class="st8" d="M114.8,194.8c0.5,0.3,0.7,1,0.4,1.5s-1,0.7-1.5,0.4s-0.7-1-0.4-1.5C113.6,194.7,114.3,194.5,114.8,194.8z"
						/>
				</g>
				<g>
					<path class="st8" d="M117.1,191c0.5,0.3,0.7,1,0.4,1.5s-1,0.7-1.5,0.4c-0.5-0.3-0.7-1-0.4-1.5
						C115.9,190.9,116.5,190.7,117.1,191z"/>
				</g>
				<g>
					<path class="st8" d="M119.3,187.2c0.5,0.3,0.7,1,0.4,1.5c-0.3,0.5-1,0.7-1.5,0.4c-0.5-0.3-0.7-1-0.4-1.5
						C118.1,187.1,118.8,186.9,119.3,187.2z"/>
				</g>
				<g>
					<path class="st8" d="M121.5,183.4c0.5,0.3,0.7,1,0.4,1.5c-0.3,0.5-1,0.7-1.5,0.4c-0.5-0.3-0.7-1-0.4-1.5
						C120.3,183.2,121,183.1,121.5,183.4z"/>
				</g>
				<g>
					<path class="st8" d="M123.8,179.5c0.5,0.3,0.7,1,0.4,1.5c-0.3,0.5-1,0.7-1.5,0.4c-0.5-0.3-0.7-1-0.4-1.5
						C122.6,179.4,123.3,179.2,123.8,179.5z"/>
				</g>
				<g>
					<path class="st8" d="M126,175.7c0.5,0.3,0.7,1,0.4,1.5c-0.3,0.5-1,0.7-1.5,0.4c-0.5-0.3-0.7-1-0.4-1.5
						C124.8,175.6,125.5,175.4,126,175.7z"/>
				</g>
				<g>
					<path class="st8" d="M128.3,171.9c0.5,0.3,0.7,1,0.4,1.5s-1,0.7-1.5,0.4c-0.5-0.3-0.7-1-0.4-1.5
						C127.1,171.8,127.7,171.6,128.3,171.9z"/>
				</g>
				<g>
					<path class="st8" d="M130.5,168.1c0.5,0.3,0.7,1,0.4,1.5s-1,0.7-1.5,0.4s-0.7-1-0.4-1.5C129.3,168,130,167.8,130.5,168.1z"/>
				</g>
				<g>
					<path class="st8" d="M132.7,164.3c0.5,0.3,0.7,1,0.4,1.5c-0.3,0.5-1,0.7-1.5,0.4c-0.5-0.3-0.7-1-0.4-1.5
						S132.2,163.9,132.7,164.3z"/>
				</g>
				<g>
					<path class="st8" d="M135,160.4c0.5,0.3,0.7,1,0.4,1.5c-0.3,0.5-1,0.7-1.5,0.4s-0.7-1-0.4-1.5S134.5,160.1,135,160.4z"/>
				</g>
				<g>
					<path class="st8" d="M137.2,156.6c0.5,0.3,0.7,1,0.4,1.5s-1,0.7-1.5,0.4s-0.7-1-0.4-1.5C136,156.5,136.7,156.3,137.2,156.6z"/>
				</g>
				<g>
					<path class="st8" d="M139.5,152.8c0.5,0.3,0.7,1,0.4,1.5s-1,0.7-1.5,0.4c-0.5-0.3-0.7-1-0.4-1.5
						C138.2,152.7,138.9,152.5,139.5,152.8z"/>
				</g>
				<g>
					<path class="st8" d="M141.7,149c0.5,0.3,0.7,1,0.4,1.5s-1,0.7-1.5,0.4c-0.5-0.3-0.7-1-0.4-1.5
						C140.5,148.8,141.2,148.6,141.7,149z"/>
				</g>
				<g>
					<path class="st8" d="M143.9,145.1c0.5,0.3,0.7,1,0.4,1.5c-0.3,0.5-1,0.7-1.5,0.4c-0.5-0.3-0.7-1-0.4-1.5
						C142.7,145,143.4,144.8,143.9,145.1z"/>
				</g>
				<g>
					<path class="st8" d="M146.2,141.3c0.5,0.3,0.7,1,0.4,1.5c-0.3,0.5-1,0.7-1.5,0.4c-0.5-0.3-0.7-1-0.4-1.5
						C145,141.2,145.6,141,146.2,141.3z"/>
				</g>
				<g>
					<path class="st8" d="M148.4,137.5c0.5,0.3,0.7,1,0.4,1.5s-1,0.7-1.5,0.4s-0.7-1-0.4-1.5C147.2,137.4,147.9,137.2,148.4,137.5z"
						/>
				</g>
				<g>
					<path class="st8" d="M150.7,133.7c0.5,0.3,0.7,1,0.4,1.5s-1,0.7-1.5,0.4c-0.5-0.3-0.7-1-0.4-1.5
						C149.4,133.5,150.1,133.4,150.7,133.7z"/>
				</g>
				<g>
					<path class="st8" d="M152.9,129.8c0.5,0.3,0.7,1,0.4,1.5s-1,0.7-1.5,0.4s-0.7-1-0.4-1.5C151.7,129.7,152.4,129.5,152.9,129.8z"
						/>
				</g>
				<g>
					<path class="st8" d="M155.1,126c0.5,0.3,0.7,1,0.4,1.5c-0.3,0.5-1,0.7-1.5,0.4c-0.5-0.3-0.7-1-0.4-1.5
						C153.9,125.9,154.6,125.7,155.1,126z"/>
				</g>
				<g>
					<path class="st8" d="M157.4,122.2c0.5,0.3,0.7,1,0.4,1.5c-0.3,0.5-1,0.7-1.5,0.4c-0.5-0.3-0.7-1-0.4-1.5
						C156.2,122.1,156.8,121.9,157.4,122.2z"/>
				</g>
				<g>
					<path class="st8" d="M159.6,118.4c0.5,0.3,0.7,1,0.4,1.5s-1,0.7-1.5,0.4c-0.5-0.3-0.7-1-0.4-1.5
						C158.4,118.2,159.1,118.1,159.6,118.4z"/>
				</g>
				<g>
					<path class="st8" d="M161.8,114.5c0.5,0.3,0.7,1,0.4,1.5s-1,0.7-1.5,0.4c-0.5-0.3-0.7-1-0.4-1.5
						C160.6,114.4,161.3,114.2,161.8,114.5z"/>
				</g>
				<g>
					<path class="st8" d="M164.1,110.7c0.5,0.3,0.7,1,0.4,1.5c-0.3,0.5-1,0.7-1.5,0.4c-0.5-0.3-0.7-1-0.4-1.5
						C162.9,110.6,163.6,110.4,164.1,110.7z"/>
				</g>
				<g>
					<path class="st8" d="M166.3,106.9c0.5,0.3,0.7,1,0.4,1.5s-1,0.7-1.5,0.4s-0.7-1-0.4-1.5C165.1,106.8,165.8,106.6,166.3,106.9z"
						/>
				</g>
				<g>
					<path class="st8" d="M168.6,103.1c0.5,0.3,0.7,1,0.4,1.5c-0.3,0.5-1,0.7-1.5,0.4c-0.5-0.3-0.7-1-0.4-1.5
						C167.4,102.9,168,102.8,168.6,103.1z"/>
				</g>
				<g>
					<path class="st8" d="M170.8,99.2c0.5,0.3,0.7,1,0.4,1.5s-1,0.7-1.5,0.4c-0.5-0.3-0.7-1-0.4-1.5
						C169.6,99.1,170.3,98.9,170.8,99.2z"/>
				</g>
				<g>
					<path class="st8" d="M173,95.4c0.5,0.3,0.7,1,0.4,1.5s-1,0.7-1.5,0.4c-0.5-0.3-0.7-1-0.4-1.5C171.8,95.3,172.5,95.1,173,95.4z"
						/>
				</g>
				<g>
					<path class="st8" d="M175.3,91.6c0.5,0.3,0.7,1,0.4,1.5s-1,0.7-1.5,0.4c-0.5-0.3-0.7-1-0.4-1.5
						C174.1,91.5,174.8,91.3,175.3,91.6z"/>
				</g>
				<g>
					<path class="st8" d="M177.5,87.8c0.5,0.3,0.7,1,0.4,1.5s-1,0.7-1.5,0.4c-0.5-0.3-0.7-1-0.4-1.5C176.3,87.6,177,87.5,177.5,87.8
						z"/>
				</g>
				<g>
					<path class="st8" d="M179.8,83.9c0.5,0.3,0.7,1,0.4,1.5c-0.3,0.5-1,0.7-1.5,0.4s-0.7-1-0.4-1.5
						C178.6,83.8,179.2,83.6,179.8,83.9z"/>
				</g>
				<g>
					<path class="st8" d="M182,80.1c0.5,0.3,0.7,1,0.4,1.5s-1,0.7-1.5,0.4s-0.7-1-0.4-1.5C180.8,80,181.5,79.8,182,80.1z"/>
				</g>
				<g>
					<path class="st8" d="M184.2,76.3c0.5,0.3,0.7,1,0.4,1.5s-1,0.7-1.5,0.4s-0.7-1-0.4-1.5C183,76.2,183.7,76,184.2,76.3z"/>
				</g>
				<g>
					<path class="st8" d="M186.5,72.5c0.5,0.3,0.7,1,0.4,1.5c-0.3,0.5-1,0.7-1.5,0.4c-0.5-0.3-0.7-1-0.4-1.5
						C185.3,72.3,185.9,72.2,186.5,72.5z"/>
				</g>
				<g>
					<path class="st8" d="M188.7,68.6c0.5,0.3,0.7,1,0.4,1.5c-0.3,0.5-1,0.7-1.5,0.4c-0.5-0.3-0.7-1-0.4-1.5
						C187.5,68.5,188.2,68.3,188.7,68.6z"/>
				</g>
				<g>
					<path class="st8" d="M191,64.8c0.5,0.3,0.7,1,0.4,1.5s-1,0.7-1.5,0.4c-0.5-0.3-0.7-1-0.4-1.5C189.7,64.7,190.4,64.5,191,64.8z"
						/>
				</g>
				<g>
					<path class="st8" d="M193.2,61c0.5,0.3,0.7,1,0.4,1.5s-1,0.7-1.5,0.4c-0.5-0.3-0.7-1-0.4-1.5C192,60.9,192.7,60.7,193.2,61z"/>
				</g>
				<g>
					<path class="st8" d="M195.4,57.2c0.5,0.3,0.7,1,0.4,1.5c-0.3,0.5-1,0.7-1.5,0.4c-0.5-0.3-0.7-1-0.4-1.5
						C194.2,57,194.9,56.9,195.4,57.2z"/>
				</g>
				<g>
					<path class="st8" d="M197.7,53.3c0.5,0.3,0.7,1,0.4,1.5s-1,0.7-1.5,0.4c-0.5-0.3-0.7-1-0.4-1.5C196.5,53.2,197.1,53,197.7,53.3
						z"/>
				</g>
				<g>
					<path class="st8" d="M199.9,49.5c0.5,0.3,0.7,1,0.4,1.5s-1,0.7-1.5,0.4s-0.7-1-0.4-1.5C198.7,49.4,199.4,49.2,199.9,49.5z"/>
				</g>
				<g>
					<path class="st8" d="M202.1,45.7c0.5,0.3,0.7,1,0.4,1.5s-1,0.7-1.5,0.4c-0.5-0.3-0.7-1-0.4-1.5
						C200.9,45.6,201.6,45.4,202.1,45.7z"/>
				</g>
				<g>
					<path class="st8" d="M204.4,41.9c0.5,0.3,0.7,1,0.4,1.5c-0.3,0.5-1,0.7-1.5,0.4c-0.5-0.3-0.7-1-0.4-1.5
						C203.2,41.7,203.9,41.6,204.4,41.9z"/>
				</g>
				<g>
					<path class="st8" d="M206.6,38.1c0.5,0.3,0.7,1,0.4,1.5c-0.3,0.5-1,0.7-1.5,0.4c-0.5-0.3-0.7-1-0.4-1.5
						C205.4,37.9,206.1,37.7,206.6,38.1z"/>
				</g>
				<g>
					<path class="st8" d="M208.9,34.2c0.5,0.3,0.7,1,0.4,1.5s-1,0.7-1.5,0.4c-0.5-0.3-0.7-1-0.4-1.5
						C207.7,34.1,208.3,33.9,208.9,34.2z"/>
				</g>
				<g>
					<path class="st8" d="M211.1,30.4c0.5,0.3,0.7,1,0.4,1.5c-0.3,0.5-1,0.7-1.5,0.4s-0.7-1-0.4-1.5
						C209.9,30.3,210.6,30.1,211.1,30.4z"/>
				</g>
				<g>
					<path class="st8" d="M213.3,26.6c0.5,0.3,0.7,1,0.4,1.5c-0.3,0.5-1,0.7-1.5,0.4s-0.7-1-0.4-1.5
						C212.1,26.4,212.8,26.3,213.3,26.6z"/>
				</g>
				<g>
					<line class="st9" x1="210" y1="20.8" x2="220" y2="26.6"/>
				</g>
			</g>
		</g>
	</g>
	<g>
		<path class="st10" d="M186.3,245.1H197c4.7,0,8.5,3.8,8.5,8.5v85.2c0,4.7,3.8,8.5,8.5,8.5h18.2"/>
	</g>
	<g>
		<defs>
			<path id="SVGID_1_" d="M167.1,348.4c-20.8,0-39.5-5.3-46.5-7.5c-9.7-3.1-37.7-21.8-37.7-51.5c0-7.6,1.1-22.1,8.1-34.1l0,0
				c1.3-2.2,128.7-217.9,133.8-227c4.3-7.6,9.9-10.4,13.9-11.4c4.3-1,11.2-1.1,19.7,4.4c4.8,3.1,7.9,7.8,9.1,13.5
				c1.6,7.9-0.9,15.7-3,18.8c-5.9,9-20,32.9-23.6,39.7c-3.5,6.6-7.9,18.4-9,28.5c-0.9,8-1.3,10.7-1.5,12.4c-0.1,0.7-0.2,1.2-0.2,2
				c-0.6,4.8-5.2,14.7-18.5,17.6c-9.8,2.2-22.1,5.1-27.6,6.6c-3.5,1-3,5.7-2.7,7.6c0.1,0.7,0.4,1.7,1.9,2.7c2.6,1.7,7,2.2,11.3,1.2
				l0.7-0.2c10.9-2.5,33.6-7.8,59.7-5.9c13.7,1,26.5,6.1,38.9,11c11.4,4.5,22.1,8.8,31.3,8.6c15.3-0.2,30.1-8.2,37.3-12
				c0.7-0.4,1.3-0.7,1.9-1c7.4-3.9,23.1-9.8,44-6.1c18.1,3.2,38.6,7.6,48.5,9.7l1.4,0.3c11.1,2.4,28.8,14.8,33.2,35
				c2.5,11.4,1.6,28.9-17.3,47.8l-0.9,0.9c-4.8,4.8-17.7,17.6-23.8,26.9c-11.7,17.9-17.5,26.5-19.5,28.9c-2.3,2.8-7.8,9.3-18.5,8.3
				c-7.2-0.6-31.4-5.3-45-14.9c-13.3-9.3-23.1-22.2-25.2-25.9c-4.4-7.7-0.7-17.6,5.5-22.1l0.4-0.3c5.3-3.9,12.6-9.2,32.1-9.2
				c17.6,0,21.7-0.6,31.5-3.3c12.1-3.3,12.7-8.1,13-9.9c1.2-8.6-1.2-12.4-9.1-14.2c-13.6-3.2-38.6-8.8-52.9-10.1
				c-14.2-1.3-41.5-1-59.4,1.4c-18.2,2.5-46.2,8-56.4,11.2c-10.7,3.3-19.5,7-20.7,7.6c-3.2,1.6-7.1,1.8-10.4,0.5
				c-3.2-1.3-5.7-4.1-7-7.7l-0.2-0.7c-2.6-7.7-4.9-10-9.4-9.4c-5.1,0.7-5.7,2.4-5.7,8.9l0,0.6c0,2.4,0.7,21.7,1.4,40.3
				c0.8,22.7,1.6,44.2,1.6,47.8C195.6,335.9,185,348.4,167.1,348.4z M103.3,262.5c-3.9,6.6-6.2,16.4-6.2,26.8
				c0,21.5,22.2,36.2,27.9,38c5,1.6,22.8,6.8,42.2,6.8c3.5,0,14.3,0,14.3-19.4c0-3.3-0.8-26.7-1.6-47.3c-0.8-23.7-1.4-38.3-1.4-40.8
				l0-0.5c0-5.1-0.1-20.7,18-23C213,201,218.8,215,220.8,221c3.8-1.6,11.9-4.8,21-7.6c11-3.4,39.5-9.1,58.7-11.7
				c19.5-2.6,47.7-2.8,62.6-1.5c15.2,1.4,40.9,7.1,54.9,10.4c15,3.5,22,14.2,19.9,30c-1.4,10.6-9.3,17.9-23.3,21.7
				c-11.7,3.2-17.3,3.8-35.2,3.8c-14.9,0-19.6,3.5-23.8,6.5l-0.5,0.3c-1.6,1.2-1.6,3.2-1.5,3.7c1.5,2.5,10,13.5,21,21.2
				c10.4,7.3,31.5,11.8,38.1,12.4c3,0.3,4.3-0.9,6.4-3.4c1.1-1.3,5.1-7.1,18.5-27.6c6.9-10.5,20-23.6,25.6-29.2l0.9-0.9
				c11.5-11.5,16-23.2,13.5-34.7c-3.2-14.4-16.1-22.8-22.4-24.2l-1.4-0.3c-9.8-2.1-30.2-6.4-48-9.6c-17.5-3.1-30.3,2.3-35,4.7
				c-0.5,0.3-1.1,0.6-1.7,0.9c-8.1,4.3-24.9,13.3-43.7,13.6c-12,0.2-24-4.6-36.8-9.6c-11.4-4.5-23.1-9.1-34.7-10
				c-24-1.8-45.2,3.2-55.4,5.5l-0.7,0.2c-8.2,1.9-16.5,0.7-22.3-3.2c-4.4-2.9-7.2-7.1-8-12c-2-11.5,3.1-21,12.8-23.7
				c6.1-1.7,19.1-4.8,28.3-6.8c6.3-1.4,7.4-5.2,7.5-5.6c0.1-0.7,0.2-1.3,0.3-2.1c0.2-1.7,0.6-4.3,1.5-12.2
				c1.4-12,6.3-25.5,10.6-33.5c3.8-7.2,18-31.4,24.3-40.8c0,0,3.7-8.8-2.1-12.6c-3.3-2.2-6.4-3.1-8.5-2.5c-1.8,0.4-3.5,2-4.9,4.5
				C232.1,44.5,108.5,253.6,103.3,262.5L103.3,262.5z M219,221.9C219,221.9,219,221.9,219,221.9C219,221.9,219,221.9,219,221.9z
				 M216.2,134.4C216.2,134.4,216.2,134.5,216.2,134.4C216.2,134.5,216.2,134.4,216.2,134.4z"/>
		</defs>
		<clipPath id="SVGID_00000056405108870406982000000001236330045174435459_">
			<use xlink:href="#SVGID_1_"  style="overflow:visible;"/>
		</clipPath>
		<g style="clip-path:url(#SVGID_00000056405108870406982000000001236330045174435459_);">
			<path class="st12" d="M420.2,253.1l-0.5,17.8c-0.1,4.7,3.6,8.5,8.3,8.5h59.7c4.7,0,8.5,3.8,8.5,8.5v33.6"/>
			<path class="st10" d="M420.2,253.1l-0.5,17.8c-0.1,4.7,3.6,8.5,8.3,8.5h59.7c4.7,0,8.5,3.8,8.5,8.5v33.6"/>
		</g>
	</g>
	<g>
		<circle class="st7" cx="420.2" cy="253.1" r="4.7"/>
		<circle class="st8" cx="420.2" cy="253.1" r="4.7"/>
	</g>
	<g>
		<path class="st10" d="M420.2,253.1l-0.5,17.8c-0.1,4.7,3.6,8.5,8.3,8.5h59.7c4.7,0,8.5,3.8,8.5,8.5v33.6"/>
	</g>
</g>
<g id="SPEED_x5F_TRAP">
	<g>
		<g>
			<path class="st13" d="M329.7,79.2c0,0.8-0.6,1.4-1.4,1.4h-42.2c-0.8,0-1.4-0.6-1.4-1.4V44.6c0-0.8,0.6-1.4,1.4-1.4h42.2
				c0.8,0,1.4,0.6,1.4,1.4V79.2z"/>
		</g>
		<g>
			<path class="st6" d="M296.8,56.1v2.7c0,1.3-0.6,1.7-1.3,2h-3.9c-0.7-0.3-1.3-0.7-1.3-2v-2.4h2.7v2l0.2,0.2h0.8l0.2-0.2v-1.8
				l-0.1-0.2l-2.7-1.2c-0.8-0.4-0.9-0.9-0.9-1.8v-2.5c0-1.3,0.6-1.7,1.3-2h3.9c0.7,0.3,1.3,0.7,1.3,2v2.2h-2.7v-1.9L294,51h-0.8
				l-0.2,0.2v1.7l0.2,0.3l2.7,1.1C296.7,54.6,296.8,55.2,296.8,56.1z"/>
			<path class="st6" d="M300.3,56.6v4.2h-2.7v-12h5.2c0.7,0.3,1.3,0.7,1.3,2v3.8c0,1.3-0.6,1.7-1.3,2H300.3z M300.3,51v3.5h1
				l0.2-0.2v-3.2l-0.2-0.2H300.3z"/>
			<path class="st6" d="M304.8,48.8h5.5v2.5h-2.8v2.2h2.7V56h-2.7v2.3h2.9v2.5h-5.6V48.8z"/>
			<path class="st6" d="M311.2,48.8h5.5v2.5h-2.8v2.2h2.7V56h-2.7v2.3h2.9v2.5h-5.6V48.8z"/>
			<path class="st6" d="M324,58.8c0,1.3-0.6,1.7-1.3,2h-5.2v-12h5.2c0.7,0.3,1.3,0.7,1.3,2V58.8z M320.2,51v7.7h1l0.2-0.2v-7.3
				l-0.2-0.2H320.2z"/>
			<path class="st6" d="M297.8,65.5V75h-2.7v-9.5h-1.9V63h6.5v2.5H297.8z"/>
			<path class="st6" d="M300.2,75V63h5.2c0.7,0.3,1.3,0.7,1.3,2v2.5c0,1.1-0.5,1.6-1.1,1.9l1.4,3.8V75h-2.3l-1.5-4.7h-0.3V75H300.2z
				 M302.9,65.2v3h1L304,68v-2.7l-0.2-0.2H302.9z"/>
			<path class="st6" d="M311.3,72.6H310l-0.2,2.3h-2.5v-2l1.5-10h3.6l1.5,10v2h-2.5L311.3,72.6z M310.2,70.2h0.8l-0.3-3.8h-0.2
				L310.2,70.2z"/>
			<path class="st6" d="M317.3,70.8V75h-2.7V63h5.2c0.7,0.3,1.3,0.7,1.3,2v3.8c0,1.3-0.6,1.7-1.3,2H317.3z M317.3,65.2v3.5h1
				l0.2-0.2v-3.2l-0.2-0.2H317.3z"/>
		</g>
	</g>
	<g>
		<defs>
			<path id="SVGID_00000121965546562090170820000016464702326673979018_" d="M167.1,348.4c-20.8,0-39.5-5.3-46.5-7.5
				c-9.7-3.1-37.7-21.8-37.7-51.5c0-7.6,1.1-22.1,8.1-34.1l0,0c1.3-2.2,128.7-217.9,133.8-227c4.3-7.6,9.9-10.4,13.9-11.4
				c4.3-1,11.2-1.1,19.7,4.4c4.8,3.1,7.9,7.8,9.1,13.5c1.6,7.9-0.9,15.7-3,18.8c-5.9,9-20,32.9-23.6,39.7c-3.5,6.6-7.9,18.4-9,28.5
				c-0.9,8-1.3,10.7-1.5,12.4c-0.1,0.7-0.2,1.2-0.2,2c-0.6,4.8-5.2,14.7-18.5,17.6c-9.8,2.2-22.1,5.1-27.6,6.6c-3.5,1-3,5.7-2.7,7.6
				c0.1,0.7,0.4,1.7,1.9,2.7c2.6,1.7,7,2.2,11.3,1.2l0.7-0.2c10.9-2.5,33.6-7.8,59.7-5.9c13.7,1,26.5,6.1,38.9,11
				c11.4,4.5,22.1,8.8,31.3,8.6c15.3-0.2,30.1-8.2,37.3-12c0.7-0.4,1.3-0.7,1.9-1c7.4-3.9,23.1-9.8,44-6.1
				c18.1,3.2,38.6,7.6,48.5,9.7l1.4,0.3c11.1,2.4,28.8,14.8,33.2,35c2.5,11.4,1.6,28.9-17.3,47.8l-0.9,0.9
				c-4.8,4.8-17.7,17.6-23.8,26.9c-11.7,17.9-17.5,26.5-19.5,28.9c-2.3,2.8-7.8,9.3-18.5,8.3c-7.2-0.6-31.4-5.3-45-14.9
				c-13.3-9.3-23.1-22.2-25.2-25.9c-4.4-7.7-0.7-17.6,5.5-22.1l0.4-0.3c5.3-3.9,12.6-9.2,32.1-9.2c17.6,0,21.7-0.6,31.5-3.3
				c12.1-3.3,12.7-8.1,13-9.9c1.2-8.6-1.2-12.4-9.1-14.2c-13.6-3.2-38.6-8.8-52.9-10.1c-14.2-1.3-41.5-1-59.4,1.4
				c-18.2,2.5-46.2,8-56.4,11.2c-10.7,3.3-19.5,7-20.7,7.6c-3.2,1.6-7.1,1.8-10.4,0.5c-3.2-1.3-5.7-4.1-7-7.7l-0.2-0.7
				c-2.6-7.7-4.9-10-9.4-9.4c-5.1,0.7-5.7,2.4-5.7,8.9l0,0.6c0,2.4,0.7,21.7,1.4,40.3c0.8,22.7,1.6,44.2,1.6,47.8
				C195.6,335.9,185,348.4,167.1,348.4z M103.3,262.5c-3.9,6.6-6.2,16.4-6.2,26.8c0,21.5,22.2,36.2,27.9,38c5,1.6,22.8,6.8,42.2,6.8
				c3.5,0,14.3,0,14.3-19.4c0-3.3-0.8-26.7-1.6-47.3c-0.8-23.7-1.4-38.3-1.4-40.8l0-0.5c0-5.1-0.1-20.7,18-23
				C213,201,218.8,215,220.8,221c3.8-1.6,11.9-4.8,21-7.6c11-3.4,39.5-9.1,58.7-11.7c19.5-2.6,47.7-2.8,62.6-1.5
				c15.2,1.4,40.9,7.1,54.9,10.4c15,3.5,22,14.2,19.9,30c-1.4,10.6-9.3,17.9-23.3,21.7c-11.7,3.2-17.3,3.8-35.2,3.8
				c-14.9,0-19.6,3.5-23.8,6.5l-0.5,0.3c-1.6,1.2-1.6,3.2-1.5,3.7c1.5,2.5,10,13.5,21,21.2c10.4,7.3,31.5,11.8,38.1,12.4
				c3,0.3,4.3-0.9,6.4-3.4c1.1-1.3,5.1-7.1,18.5-27.6c6.9-10.5,20-23.6,25.6-29.2l0.9-0.9c11.5-11.5,16-23.2,13.5-34.7
				c-3.2-14.4-16.1-22.8-22.4-24.2l-1.4-0.3c-9.8-2.1-30.2-6.4-48-9.6c-17.5-3.1-30.3,2.3-35,4.7c-0.5,0.3-1.1,0.6-1.7,0.9
				c-8.1,4.3-24.9,13.3-43.7,13.6c-12,0.2-24-4.6-36.8-9.6c-11.4-4.5-23.1-9.1-34.7-10c-24-1.8-45.2,3.2-55.4,5.5l-0.7,0.2
				c-8.2,1.9-16.5,0.7-22.3-3.2c-4.4-2.9-7.2-7.1-8-12c-2-11.5,3.1-21,12.8-23.7c6.1-1.7,19.1-4.8,28.3-6.8c6.3-1.4,7.4-5.2,7.5-5.6
				c0.1-0.7,0.2-1.3,0.3-2.1c0.2-1.7,0.6-4.3,1.5-12.2c1.4-12,6.3-25.5,10.6-33.5c3.8-7.2,18-31.4,24.3-40.8c0,0,3.7-8.8-2.1-12.6
				c-3.3-2.2-6.4-3.1-8.5-2.5c-1.8,0.4-3.5,2-4.9,4.5C232.1,44.5,108.5,253.6,103.3,262.5L103.3,262.5z M219,221.9
				C219,221.9,219,221.9,219,221.9C219,221.9,219,221.9,219,221.9z M216.2,134.4C216.2,134.4,216.2,134.5,216.2,134.4
				C216.2,134.5,216.2,134.4,216.2,134.4z"/>
		</defs>
		<clipPath id="SVGID_00000156551825564921341260000002089389070997443714_">
			<use xlink:href="#SVGID_00000121965546562090170820000016464702326673979018_"  style="overflow:visible;"/>
		</clipPath>
		<g style="clip-path:url(#SVGID_00000156551825564921341260000002089389070997443714_);">
			<line class="st12" x1="213.7" y1="61.9" x2="284.7" y2="61.9"/>
			<line class="st15" x1="213.7" y1="61.9" x2="284.7" y2="61.9"/>
		</g>
	</g>
	<g>
		<circle class="st7" cx="213.7" cy="61.9" r="4.7"/>
		<circle class="st13" cx="213.7" cy="61.9" r="4.7"/>
	</g>
	<g>
		<line class="st15" x1="213.7" y1="61.9" x2="284.7" y2="61.9"/>
	</g>
</g>
<g id="アイコン">
	<g>
		
			<rect x="143.1" y="130.2" transform="matrix(-0.8613 -0.5081 0.5081 -0.8613 202.0733 318.4254)" class="st5" width="2.8" height="2.8"/>
		
			<rect x="138.2" y="127.3" transform="matrix(-0.8613 -0.5081 0.5081 -0.8613 194.449 310.5822)" class="st5" width="2.8" height="2.8"/>
		
			<rect x="142.1" y="126.3" transform="matrix(-0.8613 -0.5081 0.5081 -0.8613 202.1827 310.6916)" class="st5" width="2.8" height="2.8"/>
		
			<rect x="137.2" y="123.4" transform="matrix(-0.8613 -0.5081 0.5081 -0.8613 194.5584 302.8484)" class="st5" width="2.8" height="2.8"/>
		
			<rect x="145" y="121.4" transform="matrix(-0.8613 -0.5081 0.5081 -0.8613 210.0259 303.0673)" class="st5" width="2.8" height="2.8"/>
		
			<rect x="140.1" y="118.6" transform="matrix(-0.8613 -0.5081 0.5081 -0.8613 202.4016 295.2241)" class="st5" width="2.8" height="2.8"/>
		
			<rect x="133.3" y="124.4" transform="matrix(-0.8613 -0.5081 0.5081 -0.8613 186.8246 302.739)" class="st5" width="2.8" height="2.8"/>
		
			<rect x="135.8" y="125.9" transform="matrix(-0.8613 -0.5081 0.5081 -0.8613 190.6368 306.6606)" class="st6" width="2.8" height="2.8"/>
		
			<rect x="140.6" y="128.8" transform="matrix(-0.8613 -0.5081 0.5081 -0.8613 198.2611 314.5038)" class="st6" width="2.8" height="2.8"/>
		
			<rect x="144.5" y="127.8" transform="matrix(-0.8613 -0.5081 0.5081 -0.8613 205.9949 314.6132)" class="st6" width="2.8" height="2.8"/>
		
			<rect x="139.6" y="124.9" transform="matrix(-0.8613 -0.5081 0.5081 -0.8613 198.3706 306.77)" class="st6" width="2.8" height="2.8"/>
		
			<rect x="134.8" y="122" transform="matrix(-0.8613 -0.5081 0.5081 -0.8613 190.7462 298.9268)" class="st6" width="2.8" height="2.8"/>
		
			<rect x="138.6" y="121" transform="matrix(-0.8613 -0.5081 0.5081 -0.8613 198.48 299.0363)" class="st6" width="2.8" height="2.8"/>
		
			<rect x="143.5" y="123.9" transform="matrix(-0.8613 -0.5081 0.5081 -0.8613 206.1043 306.8795)" class="st6" width="2.8" height="2.8"/>
		
			<rect x="141.5" y="116.1" transform="matrix(-0.8613 -0.5081 0.5081 -0.8613 206.3232 291.412)" class="st6" width="2.8" height="2.8"/>
		
			<rect x="146.4" y="119" transform="matrix(-0.8613 -0.5081 0.5081 -0.8613 213.9475 299.2551)" class="st6" width="2.8" height="2.8"/>
		
			<rect x="147.4" y="122.9" transform="matrix(-0.8613 -0.5081 0.5081 -0.8613 213.8381 306.9889)" class="st6" width="2.8" height="2.8"/>
		
			<rect x="142.5" y="120" transform="matrix(-0.8613 -0.5081 0.5081 -0.8613 206.2137 299.1457)" class="st6" width="2.8" height="2.8"/>
		
			<rect x="137.6" y="117.1" transform="matrix(-0.8613 -0.5081 0.5081 -0.8613 198.5894 291.3025)" class="st6" width="2.8" height="2.8"/>
		
			<rect x="146" y="125.3" transform="matrix(-0.8613 -0.5081 0.5081 -0.8613 209.9165 310.801)" class="st5" width="2.8" height="2.8"/>
		
			<rect x="141.1" y="122.4" transform="matrix(-0.8613 -0.5081 0.5081 -0.8613 202.2921 302.9579)" class="st5" width="2.8" height="2.8"/>
		
			<rect x="144" y="117.6" transform="matrix(-0.8613 -0.5081 0.5081 -0.8613 210.1353 295.3335)" class="st5" width="2.8" height="2.8"/>
		
			<rect x="136.2" y="119.6" transform="matrix(-0.8613 -0.5081 0.5081 -0.8613 194.6678 295.1147)" class="st5" width="2.8" height="2.8"/>
		
			<rect x="148.8" y="120.4" transform="matrix(-0.8613 -0.5081 0.5081 -0.8613 217.7596 303.1767)" class="st5" width="2.8" height="2.8"/>
		
			<rect x="139.1" y="114.7" transform="matrix(-0.8613 -0.5081 0.5081 -0.8613 202.511 287.4904)" class="st5" width="2.8" height="2.8"/>
	</g>
	<g>
		<g>
			<path class="st6" d="M462.8,426.3c0,1.6-1.3,2.8-2.8,2.8H91.1c-1.6,0-2.8-1.3-2.8-2.8v-24.9c0-1.6,1.3-2.8,2.8-2.8h368.8
				c1.6,0,2.8,1.3,2.8,2.8V426.3z"/>
			<path class="st16" d="M462.8,426.3c0,1.6-1.3,2.8-2.8,2.8H91.1c-1.6,0-2.8-1.3-2.8-2.8v-24.9c0-1.6,1.3-2.8,2.8-2.8h368.8
				c1.6,0,2.8,1.3,2.8,2.8V426.3z"/>
		</g>
		<g>
			<path class="st5" d="M133.8,415.3v2.6c0,1.3-0.6,1.7-1.3,2h-3.3c-0.7-0.3-1.3-0.7-1.3-2v-2h1.8v2.1l0.4,0.4h1.6l0.4-0.4v-2.8
				l-0.3-0.4L129,414c-0.8-0.3-1.1-0.8-1.1-1.9v-2.2c0-1.3,0.6-1.7,1.3-2h3.3c0.7,0.3,1.3,0.7,1.3,2v1.9H132v-2.1l-0.4-0.4h-1.6
				l-0.4,0.4v2.4l0.4,0.4l2.6,0.7C133.4,413.6,133.8,414.1,133.8,415.3z"/>
			<path class="st5" d="M135.1,407.9h5.1v1.6h-3.3v3.4h3.1v1.6h-3.1v3.7h3.4v1.6h-5.2V407.9z"/>
			<path class="st5" d="M147.5,417.9c0,1.3-0.6,1.7-1.3,2h-3.3c-0.7-0.3-1.3-0.7-1.3-2v-8c0-1.3,0.6-1.7,1.3-2h3.3
				c0.7,0.3,1.3,0.7,1.3,2v2.7h-1.8v-2.8l-0.4-0.4h-1.6l-0.4,0.4v8.3l0.4,0.4h1.6l0.4-0.4v-2.7h1.8V417.9z"/>
			<path class="st5" d="M152.2,409.5v10.3h-1.8v-10.3h-2.1v-1.6h6.1v1.6H152.2z"/>
			<path class="st5" d="M161.1,417.9c0,1.3-0.6,1.7-1.3,2h-3.3c-0.7-0.3-1.3-0.7-1.3-2v-8c0-1.3,0.6-1.7,1.3-2h3.3
				c0.7,0.3,1.3,0.7,1.3,2V417.9z M159.3,409.7l-0.4-0.4h-1.6l-0.4,0.4v8.3l0.4,0.4h1.6l0.4-0.4V409.7z"/>
			<path class="st5" d="M162.5,419.8v-12h4.6c0.7,0.3,1.3,0.7,1.3,2v2.6c0,1.3-0.6,1.6-1.3,1.9l-0.3,0.1l2.1,4.3v1.1h-1.6l-2.2-5.1
				h-0.8v5.1H162.5z M164.3,409.4v3.9h2l0.4-0.4v-3.1l-0.4-0.4H164.3z"/>
			<path class="st5" d="M172.6,419.8v-1.6h1.8v-8.7h-1.7v-1.6h3.5v10.4h1.7v1.6H172.6z"/>
		</g>
		<line class="st17" x1="102.5" y1="413.9" x2="123.7" y2="413.9"/>
		<g>
			<path class="st5" d="M223.9,415.3v2.6c0,1.3-0.6,1.7-1.3,2h-3.3c-0.7-0.3-1.3-0.7-1.3-2v-2h1.8v2.1l0.4,0.4h1.6l0.4-0.4v-2.8
				l-0.3-0.4l-2.6-0.8c-0.8-0.3-1.1-0.8-1.1-1.9v-2.2c0-1.3,0.6-1.7,1.3-2h3.3c0.7,0.3,1.3,0.7,1.3,2v1.9h-1.8v-2.1l-0.4-0.4h-1.6
				l-0.4,0.4v2.4l0.4,0.4l2.6,0.7C223.5,413.6,223.9,414.1,223.9,415.3z"/>
			<path class="st5" d="M225.2,407.9h5.1v1.6H227v3.4h3.1v1.6H227v3.7h3.4v1.6h-5.2V407.9z"/>
			<path class="st5" d="M237.6,417.9c0,1.3-0.6,1.7-1.3,2h-3.3c-0.7-0.3-1.3-0.7-1.3-2v-8c0-1.3,0.6-1.7,1.3-2h3.3
				c0.7,0.3,1.3,0.7,1.3,2v2.7h-1.8v-2.8l-0.4-0.4h-1.6l-0.4,0.4v8.3l0.4,0.4h1.6l0.4-0.4v-2.7h1.8V417.9z"/>
			<path class="st5" d="M242.3,409.5v10.3h-1.8v-10.3h-2.1v-1.6h6.1v1.6H242.3z"/>
			<path class="st5" d="M251.2,417.9c0,1.3-0.6,1.7-1.3,2h-3.3c-0.7-0.3-1.3-0.7-1.3-2v-8c0-1.3,0.6-1.7,1.3-2h3.3
				c0.7,0.3,1.3,0.7,1.3,2V417.9z M249.4,409.7l-0.4-0.4h-1.6l-0.4,0.4v8.3l0.4,0.4h1.6l0.4-0.4V409.7z"/>
			<path class="st5" d="M252.6,419.8v-12h4.6c0.7,0.3,1.3,0.7,1.3,2v2.6c0,1.3-0.6,1.6-1.3,1.9l-0.3,0.1l2.1,4.3v1.1h-1.6l-2.2-5.1
				h-0.8v5.1H252.6z M254.4,409.4v3.9h2l0.4-0.4v-3.1l-0.4-0.4H254.4z"/>
			<path class="st5" d="M262.3,419.8v-3.6c0-1.1,0.4-1.7,1.2-2.1l3-1.2v-3.2l-0.4-0.4h-1.7l-0.4,0.4v2h-1.8v-1.9
				c0-1.3,0.6-1.7,1.3-2h3.3c0.7,0.3,1.3,0.7,1.3,2v2.5c0,1.1-0.3,1.7-1.1,2.1l-3,1.2v2.5h4.1v1.6H262.3z"/>
		</g>
		<line class="st18" x1="192.6" y1="413.9" x2="213.8" y2="413.9"/>
		<g>
			<path class="st5" d="M313.7,415.3v2.6c0,1.3-0.6,1.7-1.3,2h-3.3c-0.7-0.3-1.3-0.7-1.3-2v-2h1.8v2.1l0.4,0.4h1.6l0.4-0.4v-2.8
				l-0.3-0.4L309,414c-0.8-0.3-1.1-0.8-1.1-1.9v-2.2c0-1.3,0.6-1.7,1.3-2h3.3c0.7,0.3,1.3,0.7,1.3,2v1.9h-1.8v-2.1l-0.4-0.4H310
				l-0.4,0.4v2.4l0.4,0.4l2.6,0.7C313.4,413.6,313.7,414.1,313.7,415.3z"/>
			<path class="st5" d="M315.1,407.9h5.1v1.6h-3.3v3.4h3.1v1.6h-3.1v3.7h3.4v1.6h-5.2V407.9z"/>
			<path class="st5" d="M327.4,417.9c0,1.3-0.6,1.7-1.3,2h-3.3c-0.7-0.3-1.3-0.7-1.3-2v-8c0-1.3,0.6-1.7,1.3-2h3.3
				c0.7,0.3,1.3,0.7,1.3,2v2.7h-1.8v-2.8l-0.4-0.4h-1.6l-0.4,0.4v8.3l0.4,0.4h1.6l0.4-0.4v-2.7h1.8V417.9z"/>
			<path class="st5" d="M332.1,409.5v10.3h-1.8v-10.3h-2.1v-1.6h6.1v1.6H332.1z"/>
			<path class="st5" d="M341,417.9c0,1.3-0.6,1.7-1.3,2h-3.3c-0.7-0.3-1.3-0.7-1.3-2v-8c0-1.3,0.6-1.7,1.3-2h3.3
				c0.7,0.3,1.3,0.7,1.3,2V417.9z M339.2,409.7l-0.4-0.4h-1.6l-0.4,0.4v8.3l0.4,0.4h1.6l0.4-0.4V409.7z"/>
			<path class="st5" d="M342.4,419.8v-12h4.6c0.7,0.3,1.3,0.7,1.3,2v2.6c0,1.3-0.6,1.6-1.3,1.9l-0.3,0.1l2.1,4.3v1.1h-1.6l-2.2-5.1
				h-0.8v5.1H342.4z M344.2,409.4v3.9h2l0.4-0.4v-3.1l-0.4-0.4H344.2z"/>
			<path class="st5" d="M353.4,419.8c-0.7-0.3-1.3-0.7-1.3-2v-1.7h1.8v1.8l0.4,0.4h1.7l0.4-0.4v-3.2l-0.4-0.3h-1.8V413h1.8l0.4-0.4
				v-3l-0.4-0.4h-1.7l-0.4,0.4v1.8h-1.8v-1.7c0-1.3,0.6-1.7,1.3-2h3.3c0.7,0.3,1.3,0.7,1.3,2v1.9c0,1-0.2,1.5-0.9,1.9
				c0.6,0.4,0.9,0.9,0.9,1.9v2.2c0,1.3-0.6,1.7-1.3,2H353.4z"/>
		</g>
		<line class="st19" x1="282.4" y1="413.9" x2="303.7" y2="413.9"/>
		<g>
			<path class="st5" d="M403.6,417.9c0,1.3-0.6,1.7-1.3,2h-4.6v-12h4.6c0.7,0.3,1.3,0.7,1.3,2V417.9z M399.5,409.4v9h2l0.4-0.4v-8.3
				l-0.4-0.4H399.5z"/>
			<path class="st5" d="M405,419.8v-12h4.6c0.7,0.3,1.3,0.7,1.3,2v2.6c0,1.3-0.6,1.6-1.3,1.9l-0.3,0.1l2.1,4.3v1.1h-1.6l-2.2-5.1
				h-0.8v5.1H405z M406.8,409.4v3.9h2l0.4-0.4v-3.1l-0.4-0.4H406.8z"/>
			<path class="st5" d="M418.1,415.3v2.6c0,1.3-0.6,1.7-1.3,2h-3.3c-0.7-0.3-1.3-0.7-1.3-2v-2h1.8v2.1l0.4,0.4h1.6l0.4-0.4v-2.8
				l-0.3-0.4l-2.6-0.8c-0.8-0.3-1.1-0.8-1.1-1.9v-2.2c0-1.3,0.6-1.7,1.3-2h3.3c0.7,0.3,1.3,0.7,1.3,2v1.9h-1.8v-2.1l-0.4-0.4h-1.6
				l-0.4,0.4v2.4l0.4,0.4l2.6,0.7C417.7,413.6,418.1,414.1,418.1,415.3z"/>
			<path class="st5" d="M425.6,409.5h-3.9v-1.6h5.8v1.5l-4,8.9h4v1.6h-5.9v-1.5L425.6,409.5z"/>
			<path class="st5" d="M434.8,417.9c0,1.3-0.6,1.7-1.3,2h-3.3c-0.7-0.3-1.3-0.7-1.3-2v-8c0-1.3,0.6-1.7,1.3-2h3.3
				c0.7,0.3,1.3,0.7,1.3,2V417.9z M433,409.7l-0.4-0.4H431l-0.4,0.4v8.3l0.4,0.4h1.6l0.4-0.4V409.7z"/>
			<path class="st5" d="M440.5,407.9h1.6v12h-1.6l-2.6-7.1h-0.2v7.1h-1.6v-12h1.6l2.6,7.1h0.2V407.9z"/>
			<path class="st5" d="M443.5,407.9h5.1v1.6h-3.3v3.4h3.1v1.6h-3.1v3.7h3.4v1.6h-5.2V407.9z"/>
		</g>
		<g>
			<g>
				<g>
					<g>
						<line class="st20" x1="373.7" y1="406.5" x2="373.7" y2="421.4"/>
					</g>
					<g>
						<path class="st8" d="M381.3,413.9c0,0.8-0.7,1.4-1.5,1.4c-0.8,0-1.5-0.6-1.5-1.4c0-0.8,0.7-1.4,1.5-1.4
							C380.7,412.5,381.3,413.2,381.3,413.9z"/>
					</g>
					<g>
						<ellipse class="st8" cx="385.9" cy="413.9" rx="1.5" ry="1.4"/>
					</g>
					<g>
						<line class="st20" x1="392" y1="406.5" x2="392" y2="421.4"/>
					</g>
				</g>
			</g>
		</g>
	</g>
	<g>
		<defs>
			
				<rect id="SVGID_00000122722732218403465970000011738032278899938461_" x="161.2" y="76" transform="matrix(-0.5031 0.8642 -0.8642 -0.5031 328.3475 -28.3088)" width="22.3" height="8.5"/>
		</defs>
		<clipPath id="SVGID_00000102544413054619936850000013302071693673042593_">
			<use xlink:href="#SVGID_00000122722732218403465970000011738032278899938461_"  style="overflow:visible;"/>
		</clipPath>
		<g style="clip-path:url(#SVGID_00000102544413054619936850000013302071693673042593_);">
			<polygon class="st22" points="161.2,85.2 162.6,82.8 171.6,81.5 174.9,89.9 173.4,92.4 170.2,83.9 			"/>
			<polygon class="st23" points="164,80.3 165.5,77.9 174.5,76.6 177.7,85 176.3,87.5 173,79 			"/>
			<polygon class="st24" points="166.9,75.4 168.3,73 177.3,71.7 180.6,80.1 179.1,82.6 175.9,74.1 			"/>
		</g>
	</g>
</g>
</svg>
